<?xml version="1.0" encoding="UTF-8" standalone="no"?>
<!DOCTYPE svg PUBLIC "-//W3C//DTD SVG 1.1//EN" "http://www.w3.org/Graphics/SVG/1.1/DTD/svg11.dtd">
<svg version="1.1" xmlns="http://www.w3.org/2000/svg" xmlns:xlink="http://www.w3.org/1999/xlink" preserveAspectRatio="xMidYMid meet" viewBox="55.2 481.19999999999993 1449.8999999999999 579.3000000000001" width="1445.9" height="575.3"><defs><path d="M489.8 858.2L511.5 858.2L511.5 525.3L489.8 525.9L489.8 858.2Z" id="b1pDdq8swy"></path><path d="M383.4 762.9L383.4 836.2L407.9 836.2L476.6 814L476.6 762.9L383.4 762.9Z" id="kuuyxgzGq"></path><path d="M476.6 836.2L476.6 814L407.9 836.2L476.6 836.2Z" id="bob21NfMT"></path><path d="M476.6 624C476.6 624 476.6 624 476.6 624C476.6 690.96 476.6 728.16 476.6 735.6C476.6 735.6 476.6 735.6 476.6 735.6C420.68 735.6 389.61 735.6 383.4 735.6C383.4 735.6 383.4 735.6 383.4 735.6C383.4 668.64 383.4 631.44 383.4 624C383.4 624 383.4 624 383.4 624C439.32 624 470.39 624 476.6 624Z" id="c2RIQWFceL"></path><path d="M565.7 624L503.9 624L503.9 735.6L561 735.6L565.7 624Z" id="aqpXWcRtX"></path><path d="M561 735.6L613.8 735.6L613.8 624L565.7 624L561 735.6Z" id="f33f3Kd2EO"></path><path d="M558.9 787.5L559.9 762.9L503.9 762.9L503.9 805.2L558.9 787.5Z" id="d4uXCtka3"></path><path d="M503.9 805.2L503.9 836.2L613.8 836.2L613.8 762.9L559.9 762.9L558.9 787.5L503.9 805.2Z" id="b5BX9WvM4P"></path><path d="M503.9 805.2L503.9 762.9L559.9 762.9L561 735.6L503.9 735.6L503.9 624L476.6 624L476.6 735.6L383.4 735.6L383.4 762.9L476.6 762.9L476.6 814L503.9 805.2Z" id="abENGbCr4"></path><path d="M613.8 762.9L613.8 735.6L561 735.6L559.9 762.9L613.8 762.9Z" id="a78FoUjCz"></path><path d="M476.6 836.2L503.9 836.2L503.9 805.2L476.6 814L476.6 836.2Z" id="nkRsSmnn"></path><path d="M383.3 701.1C383.3 709.75 383.3 752.98 383.3 830.8C462.44 833.8 506.41 835.47 515.2 835.8C517.2 836.1 518.3 837 518.3 839.4C518.3 841.7 515.6 842.7 513 842.7C499.44 842.7 390.96 842.7 377.4 842.7C375 842.7 373 841.3 372 839.2C372 839.1 371.9 839.1 371.9 839C371.8 838.7 371.8 838.3 371.7 838C371.6 837.6 371.4 837.1 371.4 836.7C371.4 823.15 371.4 714.75 371.4 701.2C371.5 697.9 374.1 695.2 377.4 695.2C380.7 695.2 383.3 697.9 383.3 701.1Z" id="b1zZFjS94X"></path><path d="M489.8 505.7C489.8 507.05 489.8 513.78 489.8 525.9L511.5 525.2L511.5 858.2L526.4 858.2C526.4 646.7 526.4 529.2 526.4 505.7C526.4 492.7 536.9 482.2 549.9 482.2C547.46 482.2 535.26 482.2 513.3 482.2C497.63 489.2 489.8 497.03 489.8 505.7Z" id="aMEolYFq4"></path><path d="M526.4 871.9C602.72 871.9 645.12 871.9 653.6 871.9C663.9 869.1 674.9 867.6 686.2 867.6C697.5 867.6 708.4 869.1 718.8 871.9C764.52 871.9 993.12 871.9 1404.6 871.9L1404.6 834.7L526.4 834.7L526.4 871.9Z" id="dfgk1240p"></path><path d="M1404.5 909.1L1404.5 871.9C993.02 871.9 764.42 871.9 718.7 871.9C742.4 878.3 762.9 891.6 777.7 909.1C861.27 909.1 1070.21 909.1 1404.5 909.1Z" id="adDSd1lmz"></path><path d="M1222.1 611.7C1222.1 627.72 1222.1 707.82 1222.1 852L1253.6 852L1253.6 595.6L1271.5 559.5C1245.15 587.34 1228.69 604.74 1222.1 611.7Z" id="eVBTHWt1l"></path><path d="M1487.1 706.5C1480.38 706.5 1476.65 706.5 1475.9 706.5C1459 706.5 1450.2 695.8 1450.2 695.8C1444.33 686.75 1397.37 614.35 1391.5 605.3C1385 591.7 1404.8 583.1 1404.8 583.1C1405.21 582.81 1407.28 581.34 1411 578.7L1399.2 559.4C1326.6 559.4 1286.27 559.4 1278.2 559.4C1275.8 559.4 1273.6 559.5 1271.5 559.6C1270.31 562.01 1264.34 574.04 1253.6 595.7L1253.6 852C1288.58 852 1308.01 852 1311.9 852C1350.4 852 1383.1 876.3 1395.9 910.3C1395.91 910.31 1395.98 910.34 1396.1 910.4C1429.4 910.4 1447.9 910.4 1451.6 910.4C1491.5 910.4 1487.1 871.7 1487.1 871.7C1487.1 849.67 1487.1 794.61 1487.1 706.5Z" id="csLY5wK8n"></path><path d="M526.4 871.9L526.4 909.1C564.26 909.1 585.29 909.1 589.5 909.1C603 891.6 622 878.3 643.9 871.9C628.23 871.9 589.07 871.9 526.4 871.9Z" id="bcl93f74u"></path><path d="M673.9 867.6C663.5 867.6 653.4 869.1 643.8 871.9C621.9 878.3 603 891.5 589.4 909.1C606.3 909.1 741.5 909.1 758.4 909.1C744.8 891.6 725.9 878.3 704 871.9C694.5 869.1 684.4 867.6 673.9 867.6Z" id="g9GUYeQm1B"></path><path d="M1295.5 867.6C1285 867.6 1275 869.1 1265.4 871.9C1243.5 878.3 1224.6 891.5 1211 909.1C1227.9 909.1 1363.1 909.1 1380 909.1C1366.5 891.6 1347.5 878.3 1325.6 871.9C1316.1 869.1 1306 867.6 1295.5 867.6Z" id="c29R3lL5rs"></path><path d="M549.9 482.2C536.9 482.2 526.4 492.7 526.4 505.7C526.4 529.2 526.4 646.7 526.4 858.2L1192.3 858.2C1192.3 646.7 1192.3 529.2 1192.3 505.7C1192.3 492.7 1181.8 482.2 1168.8 482.2C1045.02 482.2 611.79 482.2 549.9 482.2Z" id="b1xSQUAthm"></path><path d="M538.6 890.5C538.6 890.5 538.6 890.5 538.6 890.5C538.6 915.76 538.6 929.79 538.6 932.6C538.6 932.6 538.6 932.6 538.6 932.6C530.56 932.6 526.09 932.6 525.2 932.6C525.2 932.6 525.2 932.6 525.2 932.6C525.2 907.34 525.2 893.31 525.2 890.5C525.2 890.5 525.2 890.5 525.2 890.5C533.24 890.5 537.71 890.5 538.6 890.5Z" id="fHWjUzr1c"></path><path d="M511.5 899.3C511.5 901.75 511.5 921.35 511.5 923.8C511.5 928.7 515.4 932.6 520.3 932.6C520.63 932.6 522.26 932.6 525.2 932.6L525.2 890.5L520.3 890.5C514.43 893.1 511.5 896.03 511.5 899.3Z" id="bvj6mTanB"></path><path d="M553.1 890.5C553.1 890.5 553.1 890.5 553.1 890.5C553.1 915.76 553.1 929.79 553.1 932.6C553.1 932.6 553.1 932.6 553.1 932.6C544.4 932.6 539.57 932.6 538.6 932.6C538.6 932.6 538.6 932.6 538.6 932.6C538.6 907.34 538.6 893.31 538.6 890.5C538.6 890.5 538.6 890.5 538.6 890.5C547.3 890.5 552.13 890.5 553.1 890.5Z" id="b3Ip2YW1ZC"></path><path d="M553 890.5L553 932.6C554.2 932.6 554.87 932.6 555 932.6C559.9 932.6 563.8 928.7 563.8 923.8C563.8 921.35 563.8 901.75 563.8 899.3C563.8 894.5 559.9 890.5 555 890.5C554.73 890.5 554.07 890.5 553 890.5Z" id="c1njBkdC30"></path><path d="M1450.3 695.7C1450.3 695.7 1459 706.4 1476 706.4C1475.79 705.36 1474.76 700.16 1472.9 690.8C1432.1 626.06 1409.43 590.09 1404.9 582.9C1404.8 583 1385 591.6 1391.6 605.2C1403.34 623.3 1444.43 686.65 1450.3 695.7Z" id="dbMHR2ORb"></path><path d="M1274.9 757.1C1279.04 757.1 1312.16 757.1 1316.3 757.1C1319.8 757.1 1322.6 754.3 1322.6 750.8C1322.6 750.8 1322.6 750.8 1322.6 750.8C1322.6 747.3 1319.8 744.5 1316.3 744.5C1312.16 744.5 1279.04 744.5 1274.9 744.5C1271.4 744.5 1268.6 747.3 1268.6 750.8C1268.6 750.8 1268.6 750.8 1268.6 750.8C1270.47 755 1272.57 757.1 1274.9 757.1Z" id="b19RTWYMB4"></path><path d="M1270.8 765.1L1274.7 796.3L1289.4 817.8L1372.6 820.6L1283.1 822.7L1268.6 801.1L1268.6 765.1L1270.8 765.1Z" id="b1cFvEisvT"></path><path d="M1421.3 879.3L1448.2 879.3L1467.3 857.3L1467.3 767.6L1467.3 767.6L1460.8 855.6L1445.1 873.2L1424.5 873.2L1381.8 830.6L1421.3 879.3Z" id="a20sK68gFq"></path><path d="M678.4 1057.5C632.5 1057.5 595.2 1020.2 595.2 974.3C595.2 928.3 632.5 891.1 678.4 891.1C724.3 891.1 761.6 928.4 761.6 974.3C761.6 1020.3 724.3 1057.5 678.4 1057.5Z" id="c6LnTLScr"></path><path d="M713.5 965.4C713.5 989.7 693.8 1009.5 669.4 1009.5C659.5 1009.5 650.4 1006.2 643 1000.7C651 1011.4 663.9 1018.4 678.3 1018.4C702.6 1018.4 722.4 998.7 722.4 974.3C722.4 959.9 715.4 947.1 704.7 939C710.2 946.4 713.5 955.5 713.5 965.4Z" id="aourfBeLh"></path><path d="M704.7 939C697.3 933.5 688.2 930.2 678.3 930.2C654 930.2 634.2 949.9 634.2 974.3C634.2 984.2 637.5 993.3 643 1000.7C650.4 1006.2 659.5 1009.5 669.4 1009.5C693.7 1009.5 713.5 989.8 713.5 965.4C713.5 955.5 710.2 946.4 704.7 939Z" id="a38GN1aGJY"></path><path d="M1295.6 1057.5C1249.6 1057.5 1212.4 1020.2 1212.4 974.3C1212.4 928.3 1249.7 891.1 1295.6 891.1C1341.5 891.1 1378.8 928.4 1378.8 974.3C1378.8 1020.3 1341.5 1057.5 1295.6 1057.5Z" id="d1QPvpeg25"></path><path d="M1330.7 965.4C1330.7 989.7 1311 1009.5 1286.6 1009.5C1276.7 1009.5 1267.6 1006.2 1260.2 1000.7C1268.2 1011.4 1281.1 1018.4 1295.5 1018.4C1319.8 1018.4 1339.6 998.7 1339.6 974.3C1339.6 959.9 1332.7 947.1 1321.9 939C1327.4 946.4 1330.7 955.5 1330.7 965.4Z" id="aiM0Twe2Z"></path><path d="M1321.9 939C1314.5 933.5 1305.4 930.2 1295.5 930.2C1271.2 930.2 1251.4 949.9 1251.4 974.3C1251.4 984.2 1254.7 993.3 1260.2 1000.7C1267.6 1006.2 1276.7 1009.5 1286.6 1009.5C1311 1009.5 1330.7 989.8 1330.7 965.4C1330.7 955.5 1327.4 946.4 1321.9 939Z" id="ibsD2iFeZ"></path><path d="M779.2 974.3C779.2 918.7 734 873.4 678.3 873.4C622.7 873.4 577.4 918.6 577.4 974.3C577.4 977.5 574.8 980.2 571.5 980.2C568.3 980.2 565.6 977.6 565.6 974.3C565.6 912.2 616.1 861.7 678.2 861.7C740.3 861.7 790.8 912.2 790.8 974.3C790.9 977.6 788.3 980.2 785.1 980.2C781.8 980.2 779.2 977.6 779.2 974.3Z" id="b56WphedSv"></path><path d="M1080.7 546.8L786.3 546.8C697.98 546.8 648.91 546.8 639.1 546.8C629.4 546.8 621.5 554.7 621.5 564.4C621.5 574.1 629.4 582 639.1 582C646.83 582 685.46 582 755 582C791.84 582 812.31 582 816.4 582C826.1 582 834 589.9 834 599.6C834 609.3 826.1 617.2 816.4 617.2C812.31 617.2 791.84 617.2 755 617.2C750.68 617.2 748.28 617.2 747.8 617.2C738.1 617.2 730.2 625.1 730.2 634.8C730.2 644.5 738.1 652.4 747.8 652.4C748.28 652.4 750.68 652.4 755 652.4C880.58 652.4 950.35 652.4 964.3 652.4C974 652.4 981.9 660.3 981.9 670C981.9 679.7 974 687.6 964.3 687.6C950.35 687.6 880.58 687.6 755 687.6L592.1 687.6C586.82 687.6 583.89 687.6 583.3 687.6C573.6 687.6 565.7 695.5 565.7 705.2C565.7 714.9 573.6 722.8 583.3 722.8C594.75 722.8 651.98 722.8 755 722.8C807.74 722.8 837.04 722.8 842.9 722.8C852.6 722.8 860.5 730.7 860.5 740.4C860.5 750.1 852.6 758 842.9 758C837.04 758 807.74 758 755 758C690.74 758 655.04 758 647.9 758C638.2 758 630.3 765.9 630.3 775.6C630.3 785.3 638.2 793.2 647.9 793.2C676.75 793.2 821.02 793.2 1080.7 793.2L1087.3 793.2C1097.44 793.2 1103.07 793.2 1104.2 793.2C1121.5 793.2 1135.5 779.2 1135.5 761.9C1135.5 743.52 1135.5 596.48 1135.5 578.1C1135.6 560.8 1121.6 546.8 1104.2 546.8C1101.07 546.8 1093.23 546.8 1080.7 546.8Z" id="aDRX3w4r4"></path><path d="M1373.2 617.1L1359.4 595.7L1346.9 608.2L1361 629.3L1373.2 617.1Z" id="gPPkdDroQ"></path><path d="M1253.6 701.5L1253.6 724.2L1266.1 724.2L1361 629.3L1346.9 608.2L1253.6 701.5Z" id="bFiIUejIX"></path><path d="M1379.8 627.4L1373.2 617.1L1361 629.3L1367.8 639.4L1379.8 627.4Z" id="c1UZEJNDy9"></path><path d="M1266.1 724.2L1283 724.2L1367.8 639.4L1361 629.3L1266.1 724.2Z" id="aXQ3O537E"></path><path d="M1359.4 595.7L1359.3 595.6L1253.6 595.6L1253.6 608.2L1346.9 608.2L1346.9 608.2L1359.4 595.7Z" id="a1qBTmT4xE"></path><path d="M1253.6 608.2L1253.6 701.5L1346.9 608.2L1346.9 608.2L1253.6 608.2Z" id="a3mplecSIx"></path><path d="M1436.9 741.5L1436.9 715.8L1397.6 654.9L1385.9 666.5L1424.6 724.2L1436.9 741.5Z" id="d1Xk0QFgm"></path><path d="M1386 666.5L1328.3 724.2C1339.94 724.2 1346.41 724.2 1347.7 724.2C1347.7 724.2 1352.1 762.5 1390.3 762.5C1393.41 762.5 1408.98 762.5 1437 762.5L1437 741.4L1424.6 724.2L1386 666.5Z" id="a1L7ZpOWMl"></path><path d="M1397.6 654.9L1385.3 635.9L1373.4 647.8L1385.9 666.5L1397.6 654.9Z" id="cpU9CKnko"></path><path d="M1297 724.2L1328.2 724.2L1385.9 666.5L1373.4 647.8L1297 724.2Z" id="aowwnS79E"></path><path d="M1283 724.2L1297 724.2L1373.4 647.8L1367.8 639.4L1283 724.2Z" id="b1hDP8gRc4"></path><path d="M1385.3 635.9L1379.8 627.4L1367.8 639.4L1373.4 647.8L1385.3 635.9Z" id="ds7eR5Aav"></path><path d="M1409.7 939L1414.3 948.3C1455.28 948.3 1478.05 948.3 1482.6 948.3C1489.3 948.3 1494.7 942.9 1494.7 936.2C1494.7 935.76 1494.7 932.24 1494.7 931.8C1489.5 938.6 1479.4 939 1479.4 939C1470.11 939 1446.87 939 1409.7 939Z" id="a4G012p2U"></path><path d="M1494.7 917.4C1494.7 910.7 1489.3 905.3 1482.6 905.3C1476.62 905.3 1446.72 905.3 1392.9 905.3L1409.7 939.1C1451.52 939.1 1474.75 939.1 1479.4 939.1C1479.4 939 1489.5 938.6 1494.7 931.9C1494.7 929 1494.7 918.85 1494.7 917.4Z" id="a1XaNWPEiW"></path><path d="M1487.3 871.9C1490.42 871.9 1492.15 871.9 1492.5 871.9C1494.8 871.9 1496.8 871.1 1498.5 869.8C1497.83 865.3 1494.5 842.8 1488.5 802.3L1487.3 802.3L1487.3 871.9Z" id="cHQnZyCAD"></path><path d="M1502.1 811.9C1502.1 806.6 1497.8 802.3 1492.5 802.3C1492.23 802.3 1490.86 802.3 1488.4 802.3C1494.4 842.8 1497.73 865.3 1498.4 869.8C1500.7 868 1502.1 865.4 1502.1 862.3C1502.1 852.22 1502.1 816.94 1502.1 811.9Z" id="h1lJtWxeK"></path><path d="M323.3 892.9C323.3 892.9 323.3 892.9 323.3 892.9C323.3 939.64 323.3 965.61 323.3 970.8C323.3 970.8 323.3 970.8 323.3 970.8C304.46 970.8 293.99 970.8 291.9 970.8C291.9 970.8 291.9 970.8 291.9 970.8C291.9 924.06 291.9 898.09 291.9 892.9C291.9 892.9 291.9 892.9 291.9 892.9C310.74 892.9 321.21 892.9 323.3 892.9Z" id="cOvL6Ub7u"></path><path d="M339.9 1017C330.8 1017 323.4 1009.6 323.4 1000.5C323.4 976.68 323.4 786.12 323.4 762.3C323.3 753.2 330.7 745.8 339.9 745.8C339.9 800.04 339.9 989.88 339.9 1017Z" id="c2ii0Pfwc"></path><path d="M356.4 762.3C356.4 786.11 356.4 976.59 356.4 1000.4C356.4 1009.5 349 1016.9 339.9 1016.9C339.9 1016.9 339.9 1016.9 339.9 1016.9L339.9 745.8L339.9 745.8C350.9 750.73 356.4 756.23 356.4 762.3Z" id="b4BI3QJpL"></path><path d="M371.5 660.6C371.5 660.6 371.5 660.6 371.5 660.6C371.5 797.28 371.5 873.21 371.5 888.4C371.5 888.4 371.5 888.4 371.5 888.4C362.44 888.4 357.41 888.4 356.4 888.4C356.4 888.4 356.4 888.4 356.4 888.4C356.4 751.72 356.4 675.79 356.4 660.6C356.4 660.6 356.4 660.6 356.4 660.6C365.46 660.6 370.49 660.6 371.5 660.6Z" id="begOc1Dk9"></path><path d="M70.4 939.1L56.2 939.1C56.2 969.04 56.2 985.67 56.2 989C56.2 1004.5 68.7 1017 84.2 1017C98.37 1017 211.73 1017 225.9 1017C237.2 1017 246.9 1010.3 251.3 1000.6C235.07 1000.6 105.23 1000.6 89 1000.6C69.9 1000.6 70.4 977.3 70.4 977.3C70.4 972.21 70.4 959.47 70.4 939.1Z" id="aXToOsldg"></path><path d="M278.3 950C314.1 950 312.2 907.2 312.2 907.2C312.2 896.76 312.2 813.24 312.2 802.8C312.2 759.5 277.1 724.5 233.9 724.5C226.94 724.5 171.26 724.5 164.3 724.5C161.4 724.5 158.5 724.7 155.6 725C153.96 734.09 145.76 779.52 131 861.3C102.92 861.3 87.32 861.3 84.2 861.3C69.6 861.3 56.43 874.78 56.5 886.8C56.57 898.8 56.57 916.9 56.5 941.1L70.4 939.1C70.4 962.02 70.4 974.75 70.4 977.3C70.4 977.3 69.9 1000.6 88.9 1000.6C105.14 1000.6 235.06 1000.6 251.3 1000.6C252.9 997.1 253.8 993.1 253.8 989C253.8 986.4 253.8 973.4 253.8 950C268.51 950 276.67 950 278.3 950ZM150.9 861.4L171.9 744.1C209.04 744.1 229.67 744.1 233.8 744.1C266.2 744.1 292.5 770.5 292.5 802.9C292.5 808.42 292.5 836.02 292.5 885.7L252.7 881.7L149.1 871.4L150.9 861.4Z" id="bDzuFABCP"></path><path d="M107.3 1056.7C129.2 1056.7 147 1038.9 147 1017C147 995.1 129.2 977.3 107.3 977.3C85.4 977.3 67.6 995.1 67.6 1017C67.6 1038.9 85.4 1056.7 107.3 1056.7Z" id="b2B8HzTaog"></path><path d="M331.1 997.9C331.1 1030.32 304.82 1056.6 272.4 1056.6C239.98 1056.6 213.7 1030.32 213.7 997.9C213.7 965.48 239.98 939.2 272.4 939.2C304.82 939.2 331.1 965.48 331.1 997.9Z" id="bpDPGUXKz"></path><path d="M99.9 906.2C111.32 907.32 202.68 916.28 214.1 917.4C217 917.7 219.6 915.6 219.8 912.7C219.8 912.7 219.8 912.7 219.8 912.7C220.1 909.8 218 907.2 215.1 907C203.68 905.88 112.32 896.92 100.9 895.8C98 895.5 95.4 897.6 95.2 900.5C95.2 900.5 95.2 900.5 95.2 900.5C96.4 904.17 97.97 906.07 99.9 906.2Z" id="cD0mWyZYR"></path><path d="M99.9 927.9C111.32 929.02 202.68 937.98 214.1 939.1C217 939.4 219.6 937.3 219.8 934.4C219.8 934.4 219.8 934.4 219.8 934.4C220.1 931.5 218 928.9 215.1 928.7C203.68 927.58 112.32 918.62 100.9 917.5C98 917.2 95.4 919.3 95.2 922.2C95.2 922.2 95.2 922.2 95.2 922.2C96.4 925.87 97.97 927.77 99.9 927.9Z" id="aAEHj1cKr"></path><path d="M99.9 949.6C111.32 950.72 202.68 959.68 214.1 960.8C217 961.1 219.6 959 219.8 956.1C219.8 956.1 219.8 956.1 219.8 956.1C220.1 953.2 218 950.6 215.1 950.4C203.68 949.28 112.32 940.32 100.9 939.2C98 938.9 95.4 941 95.2 943.9C95.2 943.9 95.2 943.9 95.2 943.9C96.4 947.57 97.97 949.47 99.9 949.6Z" id="d1hReMqVPa"></path><path d="M120.8 1014.2C120.8 1025.2 111.9 1034.1 100.9 1034.1C100.9 1034.1 100.8 1034.1 100.8 1034.1C102.8 1034.9 105 1035.3 107.3 1035.3C117.4 1035.3 125.6 1027.1 125.6 1017C125.6 1009.7 121.4 1003.6 115.3 1000.6C118.7 1004.2 120.8 1008.9 120.8 1014.2Z" id="c6dhkOda7x"></path><path d="M115.3 1000.6C112.9 999.4 110.2 998.7 107.3 998.7C97.2 998.7 89 1006.9 89 1017C89 1024.8 93.9 1031.5 100.9 1034.1C100.9 1034.1 101 1034.1 101 1034.1C111.9 1034.1 120.8 1025.2 120.8 1014.2C120.8 1008.9 118.7 1004.1 115.3 1000.6Z" id="a5NbJlInt"></path><path d="M291.9 992.9C291.9 1007.3 280.2 1019 265.8 1019C260.2 1019 255 1017.2 250.8 1014.2C255.8 1020.7 263.6 1025 272.4 1025C287.4 1025 299.5 1012.9 299.5 997.9C299.6 986.3 292.3 976.4 282 972.5C288 977.3 291.9 984.6 291.9 992.9Z" id="akugXjUVy"></path><path d="M282 972.5C279 971.4 275.8 970.7 272.4 970.7C257.4 970.7 245.3 982.8 245.3 997.8C245.3 1003.9 247.4 1009.6 250.8 1014.1C255 1017.1 260.2 1018.9 265.8 1018.9C280.2 1019 291.9 1007.3 291.9 992.9C291.9 984.6 288 977.3 282 972.5Z" id="bh2gZqxQK"></path><path d="M233.8 744C229.67 744 209.04 744 171.9 744L150.9 861.3L149.1 871.3L252.7 881.6L292.5 885.6L292.5 802.8C274.9 763.6 255.33 744 233.8 744Z" id="a3veQOTejX"></path><path d="M511.5 835.7L511.5 624L477.7 624L454.7 833.6L511.5 835.7Z" id="a1hK5bQjsO"></path></defs><g><g><use xlink:href="#b1pDdq8swy" opacity="1" fill="#284557" fill-opacity="1"></use><g><use xlink:href="#b1pDdq8swy" opacity="1" fill-opacity="0" stroke="#000000" stroke-width="1" stroke-opacity="0"></use></g></g><g><use xlink:href="#kuuyxgzGq" opacity="1" fill="#c89a5e" fill-opacity="1"></use><g><use xlink:href="#kuuyxgzGq" opacity="1" fill-opacity="0" stroke="#000000" stroke-width="1" stroke-opacity="0"></use></g></g><g><use xlink:href="#bob21NfMT" opacity="1" fill="#b88d56" fill-opacity="1"></use><g><use xlink:href="#bob21NfMT" opacity="1" fill-opacity="0" stroke="#000000" stroke-width="1" stroke-opacity="0"></use></g></g><g><use xlink:href="#c2RIQWFceL" opacity="1" fill="#c89a5e" fill-opacity="1"></use><g><use xlink:href="#c2RIQWFceL" opacity="1" fill-opacity="0" stroke="#000000" stroke-width="1" stroke-opacity="0"></use></g></g><g><use xlink:href="#aqpXWcRtX" opacity="1" fill="#c89a5e" fill-opacity="1"></use><g><use xlink:href="#aqpXWcRtX" opacity="1" fill-opacity="0" stroke="#000000" stroke-width="1" stroke-opacity="0"></use></g></g><g><use xlink:href="#f33f3Kd2EO" opacity="1" fill="#b88d56" fill-opacity="1"></use><g><use xlink:href="#f33f3Kd2EO" opacity="1" fill-opacity="0" stroke="#000000" stroke-width="1" stroke-opacity="0"></use></g></g><g><use xlink:href="#d4uXCtka3" opacity="1" fill="#c89a5e" fill-opacity="1"></use><g><use xlink:href="#d4uXCtka3" opacity="1" fill-opacity="0" stroke="#000000" stroke-width="1" stroke-opacity="0"></use></g></g><g><use xlink:href="#b5BX9WvM4P" opacity="1" fill="#b88d56" fill-opacity="1"></use><g><use xlink:href="#b5BX9WvM4P" opacity="1" fill-opacity="0" stroke="#000000" stroke-width="1" stroke-opacity="0"></use></g></g><g><use xlink:href="#abENGbCr4" opacity="1" fill="#edc995" fill-opacity="1"></use><g><use xlink:href="#abENGbCr4" opacity="1" fill-opacity="0" stroke="#000000" stroke-width="1" stroke-opacity="0"></use></g></g><g><use xlink:href="#a78FoUjCz" opacity="1" fill="#debd8c" fill-opacity="1"></use><g><use xlink:href="#a78FoUjCz" opacity="1" fill-opacity="0" stroke="#000000" stroke-width="1" stroke-opacity="0"></use></g></g><g><use xlink:href="#nkRsSmnn" opacity="1" fill="#debd8c" fill-opacity="1"></use><g><use xlink:href="#nkRsSmnn" opacity="1" fill-opacity="0" stroke="#000000" stroke-width="1" stroke-opacity="0"></use></g></g><g><use xlink:href="#b1zZFjS94X" opacity="1" fill="#ffda64" fill-opacity="1"></use><g><use xlink:href="#b1zZFjS94X" opacity="1" fill-opacity="0" stroke="#000000" stroke-width="1" stroke-opacity="0"></use></g></g><g><use xlink:href="#aMEolYFq4" opacity="1" fill="#508fb3" fill-opacity="1"></use><g><use xlink:href="#aMEolYFq4" opacity="1" fill-opacity="0" stroke="#000000" stroke-width="1" stroke-opacity="0"></use></g></g><g><use xlink:href="#dfgk1240p" opacity="1" fill="#637c8f" fill-opacity="1"></use><g><use xlink:href="#dfgk1240p" opacity="1" fill-opacity="0" stroke="#000000" stroke-width="1" stroke-opacity="0"></use></g></g><g><use xlink:href="#adDSd1lmz" opacity="1" fill="#728ea4" fill-opacity="1"></use><g><use xlink:href="#adDSd1lmz" opacity="1" fill-opacity="0" stroke="#000000" stroke-width="1" stroke-opacity="0"></use></g></g><g><use xlink:href="#eVBTHWt1l" opacity="1" fill="#e0c268" fill-opacity="1"></use><g><use xlink:href="#eVBTHWt1l" opacity="1" fill-opacity="0" stroke="#000000" stroke-width="1" stroke-opacity="0"></use></g></g><g><use xlink:href="#csLY5wK8n" opacity="1" fill="#f5d674" fill-opacity="1"></use><g><use xlink:href="#csLY5wK8n" opacity="1" fill-opacity="0" stroke="#000000" stroke-width="1" stroke-opacity="0"></use></g></g><g><use xlink:href="#bcl93f74u" opacity="1" fill="#728ea4" fill-opacity="1"></use><g><use xlink:href="#bcl93f74u" opacity="1" fill-opacity="0" stroke="#000000" stroke-width="1" stroke-opacity="0"></use></g></g><g><use xlink:href="#g9GUYeQm1B" opacity="1" fill="#5b7285" fill-opacity="1"></use><g><use xlink:href="#g9GUYeQm1B" opacity="1" fill-opacity="0" stroke="#000000" stroke-width="1" stroke-opacity="0"></use></g></g><g><use xlink:href="#c29R3lL5rs" opacity="1" fill="#5b7285" fill-opacity="1"></use><g><use xlink:href="#c29R3lL5rs" opacity="1" fill-opacity="0" stroke="#000000" stroke-width="1" stroke-opacity="0"></use></g></g><g><use xlink:href="#b1xSQUAthm" opacity="1" fill="#5eaad5" fill-opacity="1"></use><g><use xlink:href="#b1xSQUAthm" opacity="1" fill-opacity="0" stroke="#000000" stroke-width="1" stroke-opacity="0"></use></g></g><g><use xlink:href="#fHWjUzr1c" opacity="1" fill="#8badc9" fill-opacity="1"></use><g><use xlink:href="#fHWjUzr1c" opacity="1" fill-opacity="0" stroke="#000000" stroke-width="1" stroke-opacity="0"></use></g></g><g><use xlink:href="#bvj6mTanB" opacity="1" fill="#e04a28" fill-opacity="1"></use><g><use xlink:href="#bvj6mTanB" opacity="1" fill-opacity="0" stroke="#000000" stroke-width="1" stroke-opacity="0"></use></g></g><g><use xlink:href="#b3Ip2YW1ZC" opacity="1" fill="#9ac0de" fill-opacity="1"></use><g><use xlink:href="#b3Ip2YW1ZC" opacity="1" fill-opacity="0" stroke="#000000" stroke-width="1" stroke-opacity="0"></use></g></g><g><use xlink:href="#c1njBkdC30" opacity="1" fill="#8badc9" fill-opacity="1"></use><g><use xlink:href="#c1njBkdC30" opacity="1" fill-opacity="0" stroke="#000000" stroke-width="1" stroke-opacity="0"></use></g></g><g><use xlink:href="#dbMHR2ORb" opacity="1" fill="#b5e8ff" fill-opacity="1"></use><g><use xlink:href="#dbMHR2ORb" opacity="1" fill-opacity="0" stroke="#000000" stroke-width="1" stroke-opacity="0"></use></g></g><g><use xlink:href="#b19RTWYMB4" opacity="1" fill="#c2aa5d" fill-opacity="1"></use><g><use xlink:href="#b19RTWYMB4" opacity="1" fill-opacity="0" stroke="#000000" stroke-width="1" stroke-opacity="0"></use></g></g><g><use xlink:href="#b1cFvEisvT" opacity="1" fill="#d6bb66" fill-opacity="1"></use><g><use xlink:href="#b1cFvEisvT" opacity="1" fill-opacity="0" stroke="#000000" stroke-width="1" stroke-opacity="0"></use></g></g><g><use xlink:href="#a20sK68gFq" opacity="1" fill="#d6bb66" fill-opacity="1"></use><g><use xlink:href="#a20sK68gFq" opacity="1" fill-opacity="0" stroke="#000000" stroke-width="1" stroke-opacity="0"></use></g></g><g><use xlink:href="#c6LnTLScr" opacity="1" fill="#454647" fill-opacity="1"></use><g><use xlink:href="#c6LnTLScr" opacity="1" fill-opacity="0" stroke="#000000" stroke-width="1" stroke-opacity="0"></use></g></g><g><use xlink:href="#aourfBeLh" opacity="1" fill="#6d6e70" fill-opacity="1"></use><g><use xlink:href="#aourfBeLh" opacity="1" fill-opacity="0" stroke="#000000" stroke-width="1" stroke-opacity="0"></use></g></g><g><use xlink:href="#a38GN1aGJY" opacity="1" fill="#77787a" fill-opacity="1"></use><g><use xlink:href="#a38GN1aGJY" opacity="1" fill-opacity="0" stroke="#000000" stroke-width="1" stroke-opacity="0"></use></g></g><g><use xlink:href="#d1QPvpeg25" opacity="1" fill="#454647" fill-opacity="1"></use><g><use xlink:href="#d1QPvpeg25" opacity="1" fill-opacity="0" stroke="#000000" stroke-width="1" stroke-opacity="0"></use></g></g><g><use xlink:href="#aiM0Twe2Z" opacity="1" fill="#6d6e70" fill-opacity="1"></use><g><use xlink:href="#aiM0Twe2Z" opacity="1" fill-opacity="0" stroke="#000000" stroke-width="1" stroke-opacity="0"></use></g></g><g><use xlink:href="#ibsD2iFeZ" opacity="1" fill="#77787a" fill-opacity="1"></use><g><use xlink:href="#ibsD2iFeZ" opacity="1" fill-opacity="0" stroke="#000000" stroke-width="1" stroke-opacity="0"></use></g></g><g><use xlink:href="#b56WphedSv" opacity="1" fill="#545557" fill-opacity="1"></use><g><use xlink:href="#b56WphedSv" opacity="1" fill-opacity="0" stroke="#000000" stroke-width="1" stroke-opacity="0"></use></g></g><g><use xlink:href="#aDRX3w4r4" opacity="1" fill="#5293b8" fill-opacity="1"></use><g><use xlink:href="#aDRX3w4r4" opacity="1" fill-opacity="0" stroke="#000000" stroke-width="1" stroke-opacity="0"></use></g></g><g><use xlink:href="#gPPkdDroQ" opacity="1" fill="#cae0f0" fill-opacity="1"></use><g><use xlink:href="#gPPkdDroQ" opacity="1" fill-opacity="0" stroke="#000000" stroke-width="1" stroke-opacity="0"></use></g></g><g><use xlink:href="#bFiIUejIX" opacity="1" fill="#d6efff" fill-opacity="1"></use><g><use xlink:href="#bFiIUejIX" opacity="1" fill-opacity="0" stroke="#000000" stroke-width="1" stroke-opacity="0"></use></g></g><g><use xlink:href="#c1UZEJNDy9" opacity="1" fill="#76c7eb" fill-opacity="1"></use><g><use xlink:href="#c1UZEJNDy9" opacity="1" fill-opacity="0" stroke="#000000" stroke-width="1" stroke-opacity="0"></use></g></g><g><use xlink:href="#aXQ3O537E" opacity="1" fill="#82d8ff" fill-opacity="1"></use><g><use xlink:href="#aXQ3O537E" opacity="1" fill-opacity="0" stroke="#000000" stroke-width="1" stroke-opacity="0"></use></g></g><g><use xlink:href="#a1qBTmT4xE" opacity="1" fill="#76c7eb" fill-opacity="1"></use><g><use xlink:href="#a1qBTmT4xE" opacity="1" fill-opacity="0" stroke="#000000" stroke-width="1" stroke-opacity="0"></use></g></g><g><use xlink:href="#a3mplecSIx" opacity="1" fill="#82d8ff" fill-opacity="1"></use><g><use xlink:href="#a3mplecSIx" opacity="1" fill-opacity="0" stroke="#000000" stroke-width="1" stroke-opacity="0"></use></g></g><g><use xlink:href="#d1Xk0QFgm" opacity="1" fill="#cae0f0" fill-opacity="1"></use><g><use xlink:href="#d1Xk0QFgm" opacity="1" fill-opacity="0" stroke="#000000" stroke-width="1" stroke-opacity="0"></use></g></g><g><use xlink:href="#a1L7ZpOWMl" opacity="1" fill="#d6efff" fill-opacity="1"></use><g><use xlink:href="#a1L7ZpOWMl" opacity="1" fill-opacity="0" stroke="#000000" stroke-width="1" stroke-opacity="0"></use></g></g><g><use xlink:href="#cpU9CKnko" opacity="1" fill="#76c7eb" fill-opacity="1"></use><g><use xlink:href="#cpU9CKnko" opacity="1" fill-opacity="0" stroke="#000000" stroke-width="1" stroke-opacity="0"></use></g></g><g><use xlink:href="#aowwnS79E" opacity="1" fill="#82d8ff" fill-opacity="1"></use><g><use xlink:href="#aowwnS79E" opacity="1" fill-opacity="0" stroke="#000000" stroke-width="1" stroke-opacity="0"></use></g></g><g><use xlink:href="#b1hDP8gRc4" opacity="1" fill="#d6efff" fill-opacity="1"></use><g><use xlink:href="#b1hDP8gRc4" opacity="1" fill-opacity="0" stroke="#000000" stroke-width="1" stroke-opacity="0"></use></g></g><g><use xlink:href="#ds7eR5Aav" opacity="1" fill="#cae0f0" fill-opacity="1"></use><g><use xlink:href="#ds7eR5Aav" opacity="1" fill-opacity="0" stroke="#000000" stroke-width="1" stroke-opacity="0"></use></g></g><g><use xlink:href="#a4G012p2U" opacity="1" fill="#c8c9c9" fill-opacity="1"></use><g><use xlink:href="#a4G012p2U" opacity="1" fill-opacity="0" stroke="#000000" stroke-width="1" stroke-opacity="0"></use></g></g><g><use xlink:href="#a1XaNWPEiW" opacity="1" fill="#f1f2f2" fill-opacity="1"></use><g><use xlink:href="#a1XaNWPEiW" opacity="1" fill-opacity="0" stroke="#000000" stroke-width="1" stroke-opacity="0"></use></g></g><g><use xlink:href="#cHQnZyCAD" opacity="1" fill="#d3d4d4" fill-opacity="1"></use><g><use xlink:href="#cHQnZyCAD" opacity="1" fill-opacity="0" stroke="#000000" stroke-width="1" stroke-opacity="0"></use></g></g><g><use xlink:href="#h1lJtWxeK" opacity="1" fill="#f1f2f2" fill-opacity="1"></use><g><use xlink:href="#h1lJtWxeK" opacity="1" fill-opacity="0" stroke="#000000" stroke-width="1" stroke-opacity="0"></use></g></g><g><use xlink:href="#cOvL6Ub7u" opacity="1" fill="#a1a3a8" fill-opacity="1"></use><g><use xlink:href="#cOvL6Ub7u" opacity="1" fill-opacity="0" stroke="#000000" stroke-width="1" stroke-opacity="0"></use></g></g><g><use xlink:href="#c2ii0Pfwc" opacity="1" fill="#6195b5" fill-opacity="1"></use><g><use xlink:href="#c2ii0Pfwc" opacity="1" fill-opacity="0" stroke="#000000" stroke-width="1" stroke-opacity="0"></use></g></g><g><use xlink:href="#b4BI3QJpL" opacity="1" fill="#6da9ce" fill-opacity="1"></use><g><use xlink:href="#b4BI3QJpL" opacity="1" fill-opacity="0" stroke="#000000" stroke-width="1" stroke-opacity="0"></use></g></g><g><use xlink:href="#begOc1Dk9" opacity="1" fill="#6d6e71" fill-opacity="1"></use><g><use xlink:href="#begOc1Dk9" opacity="1" fill-opacity="0" stroke="#000000" stroke-width="1" stroke-opacity="0"></use></g></g><g><use xlink:href="#aXToOsldg" opacity="1" fill="#ffda64" fill-opacity="1"></use><g><use xlink:href="#aXToOsldg" opacity="1" fill-opacity="0" stroke="#000000" stroke-width="1" stroke-opacity="0"></use></g></g><g><use xlink:href="#bDzuFABCP" opacity="1" fill="#ffda64" fill-opacity="1"></use><g><use xlink:href="#bDzuFABCP" opacity="1" fill-opacity="0" stroke="#000000" stroke-width="1" stroke-opacity="0"></use></g></g><g><use xlink:href="#b2B8HzTaog" opacity="1" fill="#454647" fill-opacity="1"></use><g><use xlink:href="#b2B8HzTaog" opacity="1" fill-opacity="0" stroke="#000000" stroke-width="1" stroke-opacity="0"></use></g></g><g><use xlink:href="#bpDPGUXKz" opacity="1" fill="#454647" fill-opacity="1"></use><g><use xlink:href="#bpDPGUXKz" opacity="1" fill-opacity="0" stroke="#000000" stroke-width="1" stroke-opacity="0"></use></g></g><g><use xlink:href="#cD0mWyZYR" opacity="1" fill="#e6c35a" fill-opacity="1"></use><g><use xlink:href="#cD0mWyZYR" opacity="1" fill-opacity="0" stroke="#000000" stroke-width="1" stroke-opacity="0"></use></g></g><g><use xlink:href="#aAEHj1cKr" opacity="1" fill="#e6c35a" fill-opacity="1"></use><g><use xlink:href="#aAEHj1cKr" opacity="1" fill-opacity="0" stroke="#000000" stroke-width="1" stroke-opacity="0"></use></g></g><g><use xlink:href="#d1hReMqVPa" opacity="1" fill="#e6c35a" fill-opacity="1"></use><g><use xlink:href="#d1hReMqVPa" opacity="1" fill-opacity="0" stroke="#000000" stroke-width="1" stroke-opacity="0"></use></g></g><g><use xlink:href="#c6dhkOda7x" opacity="1" fill="#888a8f" fill-opacity="1"></use><g><use xlink:href="#c6dhkOda7x" opacity="1" fill-opacity="0" stroke="#000000" stroke-width="1" stroke-opacity="0"></use></g></g><g><use xlink:href="#a5NbJlInt" opacity="1" fill="#a1a3a8" fill-opacity="1"></use><g><use xlink:href="#a5NbJlInt" opacity="1" fill-opacity="0" stroke="#000000" stroke-width="1" stroke-opacity="0"></use></g></g><g><use xlink:href="#akugXjUVy" opacity="1" fill="#888a8f" fill-opacity="1"></use><g><use xlink:href="#akugXjUVy" opacity="1" fill-opacity="0" stroke="#000000" stroke-width="1" stroke-opacity="0"></use></g></g><g><use xlink:href="#bh2gZqxQK" opacity="1" fill="#a1a3a8" fill-opacity="1"></use><g><use xlink:href="#bh2gZqxQK" opacity="1" fill-opacity="0" stroke="#000000" stroke-width="1" stroke-opacity="0"></use></g></g><g><use xlink:href="#a3veQOTejX" opacity="1" fill="#000000" fill-opacity="0"></use><g><use xlink:href="#a3veQOTejX" opacity="1" fill-opacity="0" stroke="#000000" stroke-width="1" stroke-opacity="0"></use></g></g><g><use xlink:href="#a1hK5bQjsO" opacity="1" fill="#231f20" fill-opacity="1"></use><g><use xlink:href="#a1hK5bQjsO" opacity="1" fill-opacity="0" stroke="#000000" stroke-width="1" stroke-opacity="0"></use></g></g></g></svg>