<?xml version="1.0" encoding="UTF-8" standalone="no"?>
<!DOCTYPE svg PUBLIC "-//W3C//DTD SVG 1.1//EN" "http://www.w3.org/Graphics/SVG/1.1/DTD/svg11.dtd">
<svg version="1.1" xmlns="http://www.w3.org/2000/svg" xmlns:xlink="http://www.w3.org/1999/xlink" preserveAspectRatio="xMidYMid meet" viewBox="0 0 640 640" width="640" height="640"><defs><path d="M0 509.69L666 509.69L666 509.36L0 509.36L0 509.69Z" id="k1aR5xE5lH"></path><path d="M555.15 531.13L599.27 531.13L599.27 530.8L555.15 530.8L555.15 531.13Z" id="f603QYlXS4"></path><path d="M444.06 531.13L538.38 531.13L538.38 530.8L444.06 530.8L444.06 531.13Z" id="g53ksnUh7m"></path><path d="M366.49 518.76L392.05 518.76L392.05 518.43L366.49 518.43L366.49 518.76Z" id="f7khHTI6NF"></path><path d="M69.88 521L115.55 521L115.55 520.66L69.88 520.66L69.88 521Z" id="boEmqiMWd"></path><path d="M127.41 521L210.46 521L210.46 520.66L127.41 520.66L127.41 521Z" id="c1l2e6Hukk"></path><path d="M250.86 526.62L299.9 526.62L299.9 526.29L250.86 526.29L250.86 526.62Z" id="a19SkvVGFo"></path><path d="M58.49 73.53C54.49 73.53 51.22 76.79 51.22 80.8C51.22 116.95 51.22 406.19 51.22 442.35C51.22 446.36 54.49 449.62 58.49 449.62C84.22 449.62 289.98 449.62 315.7 449.62C319.71 449.62 322.97 446.36 322.97 442.35C322.97 406.19 322.97 116.95 322.97 80.8C322.97 76.79 319.71 73.53 315.7 73.53C264.26 73.53 109.94 73.53 58.49 73.53ZM315.7 449.95C161.38 449.95 75.64 449.95 58.49 449.95C54.3 449.95 50.89 446.54 50.89 442.35C50.89 406.19 50.89 116.95 50.89 80.8C50.89 76.61 54.3 73.2 58.49 73.2C84.22 73.2 289.98 73.2 315.7 73.2C319.89 73.2 323.3 76.61 323.3 80.8C323.3 116.95 323.3 406.19 323.3 442.35C323.3 446.54 319.89 449.95 315.7 449.95" id="a8NLFBbbA"></path><path d="M346.6 73.53C342.59 73.53 339.33 76.79 339.33 80.8C339.33 116.95 339.33 406.19 339.33 442.35C339.33 446.36 342.59 449.62 346.6 449.62C372.32 449.62 578.09 449.62 603.81 449.62C607.82 449.62 611.08 446.36 611.08 442.35C611.08 406.19 611.08 116.95 611.08 80.8C611.08 76.79 607.82 73.53 603.81 73.53C552.37 73.53 398.04 73.53 346.6 73.53ZM603.81 449.95C449.49 449.95 363.75 449.95 346.6 449.95C342.41 449.95 339 446.54 339 442.35C339 406.19 339 116.95 339 80.8C339 76.61 342.41 73.2 346.6 73.2C372.32 73.2 578.09 73.2 603.81 73.2C608 73.2 611.41 76.61 611.41 80.8C611.41 116.95 611.41 406.19 611.41 442.35C611.41 446.54 608 449.95 603.81 449.95" id="a7x7D7NHb3"></path><path d="M448.88 501.88L473.53 501.88L473.53 322.64L448.88 322.64L448.88 501.88Z" id="cRqeC8EfU"></path><path d="M197.2 501.88L468.8 501.88L468.8 509.35L197.2 509.35L197.2 501.88Z" id="cajTgynKI"></path><path d="M448.88 501.88L192.47 501.88L192.47 322.64L448.88 322.64L448.88 501.88Z" id="bh1oVrkWt"></path><path d="M448.88 316.11L473.53 316.11L473.53 322.63L448.88 322.63L448.88 316.11Z" id="a1uqQjqsFE"></path><path d="M448.88 316.11L192.47 316.11L192.47 322.63L448.88 322.63L448.88 316.11Z" id="a4u3hskOn"></path><path d="M202.99 375.03L438.36 375.03L438.36 337.99L202.99 337.99L202.99 375.03ZM440.02 376.69L201.33 376.69L201.33 336.33L440.02 336.33L440.02 376.69Z" id="c1y29qQNd4"></path><path d="M202.99 486.52L438.36 486.52L438.36 388.24L202.99 388.24L202.99 486.52ZM440.02 488.18L201.33 488.18L201.33 386.58L440.02 386.58L440.02 488.18Z" id="aGdyVW5i"></path><path d="M233.49 342.47L407.86 342.47L407.86 337.16L233.49 337.16L233.49 342.47Z" id="b10rrQtx8l"></path><path d="M233.49 392.72L407.86 392.72L407.86 387.41L233.49 387.41L233.49 392.72Z" id="e1025yTsLl"></path><path d="M560.64 504.6C560.64 504.6 560.64 504.6 560.64 504.6C559.56 504.6 558.67 503.71 558.67 502.62C558.67 471.84 558.67 225.6 558.67 194.82C558.67 193.73 559.56 192.84 560.64 192.84C561.73 192.84 562.61 193.73 562.61 194.82C562.61 225.6 562.61 471.84 562.61 502.62C562.61 503.71 561.73 504.6 560.64 504.6" id="b8QD4knnb"></path><path d="M570.02 509.35L551.26 509.35C551.26 506.89 551.26 505.53 551.26 505.25C551.26 502.26 553.69 499.84 556.68 499.84C557.47 499.84 563.81 499.84 564.61 499.84C567.6 499.84 570.02 502.26 570.02 505.25C570.02 505.8 570.02 507.17 570.02 509.35Z" id="f3E4k8p8MG"></path><path d="M522.33 235.7C522.33 235.7 523.3 198.03 560.64 198.03C597.98 198.03 598.96 235.7 598.96 235.7C583.63 235.7 537.65 235.7 522.33 235.7Z" id="b175MwzXmc"></path><path d="M105.36 504.6C105.36 504.6 105.36 504.6 105.36 504.6C104.27 504.6 103.38 503.71 103.38 502.62C103.38 471.84 103.38 225.6 103.38 194.82C103.38 193.73 104.27 192.84 105.36 192.84C106.44 192.84 107.33 193.73 107.33 194.82C107.33 225.6 107.33 471.84 107.33 502.62C107.33 503.71 106.44 504.6 105.36 504.6" id="jsNqW1jPe"></path><path d="M114.73 509.35L95.98 509.35C95.98 506.89 95.98 505.53 95.98 505.25C95.98 502.26 98.4 499.84 101.39 499.84C102.18 499.84 108.53 499.84 109.32 499.84C112.31 499.84 114.73 502.26 114.73 505.25C114.73 505.8 114.73 507.17 114.73 509.35Z" id="egG2YF6nh"></path><path d="M67.04 235.7C67.04 235.7 68.02 198.03 105.36 198.03C142.7 198.03 143.67 235.7 143.67 235.7C128.35 235.7 82.37 235.7 67.04 235.7Z" id="a12MO1joCY"></path><path d="M381.01 313.29L286.25 313.29L286.25 316.11L381.01 316.11L381.01 313.29Z" id="b3yCsPq8rC"></path><path d="M381.01 313.29L286.25 313.29L295.38 259.04L390.13 259.04L381.01 313.29Z" id="d1GLvAcNuv"></path><path d="M379.25 313.29L284.49 313.29L293.62 259.04L388.38 259.04L379.25 313.29Z" id="cujZWaKpr"></path><path d="M288.09 309.02C292.75 281.35 295.33 265.97 295.85 262.9C295.95 262.31 296.46 261.88 297.05 261.88C305.7 261.88 374.92 261.88 383.57 261.88C384.33 261.88 384.9 262.56 384.78 263.3C384 267.91 377.8 304.81 377.02 309.43C376.92 310.01 376.42 310.44 375.82 310.44C367.17 310.44 297.95 310.44 289.3 310.44C288.54 310.44 287.97 309.77 288.09 309.02" id="g532hyt6z"></path><path d="M359.57 313.29L264.82 313.29L264.82 316.11L359.57 316.11L359.57 313.29Z" id="e1cVnZBKsx"></path><path d="M456.73 198.03L205.68 198.03L205.68 116.89L456.73 116.89L456.73 198.03Z" id="b7k1AJ9BmI"></path><path d="M456.73 198.03L460.32 198.03L460.32 116.89L456.73 116.89L456.73 198.03Z" id="ab4g6FdL6"></path><path d="M445.73 187.04L216.67 187.04L216.67 127.88L445.73 127.88L445.73 187.04Z" id="dOiev15xQ"></path><path d="M331.2 171.25L317.41 157.46L331.2 143.67L344.99 157.46L331.2 171.25Z" id="afVoPVyHo"></path><path d="M294.19 171.25L280.4 157.46L294.19 143.67L307.97 157.46L294.19 171.25Z" id="c7jdyMu1Yz"></path><path d="M257.17 171.25L243.39 157.46L257.17 143.67L270.96 157.46L257.17 171.25Z" id="b4m5LFsKUN"></path><path d="M368.21 171.25L354.43 157.46L368.21 143.67L382 157.46L368.21 171.25Z" id="adoKjIMjX"></path><path d="M405.23 171.25L391.44 157.46L405.23 143.67L419.02 157.46L405.23 171.25Z" id="a65wkH6SUS"></path><path d="M65.34 289.92C64.25 324.31 72.13 366.93 119.81 370.68C143.69 372.55 170.16 364.7 193.94 368.21C219.28 371.96 235.91 380.8 266.01 377.26C382.95 363.52 452.66 264.39 444.63 195.67C438 138.84 380.62 38.58 272 102.48C250.6 115.06 233.53 131.62 212.44 144.2C192.46 156.11 160.76 145.79 122.18 173.54C87.32 198.61 66.22 262.51 65.34 289.92" id="j1WJe7XYjz"></path><path d="M65.34 289.92C64.25 324.31 72.13 366.93 119.81 370.68C143.69 372.55 170.16 364.7 193.94 368.21C219.28 371.96 235.91 380.8 266.01 377.26C382.95 363.52 452.66 264.39 444.63 195.67C438 138.84 380.62 38.58 272 102.48C250.6 115.06 233.53 131.62 212.44 144.2C192.46 156.11 160.76 145.79 122.18 173.54C87.32 198.61 66.22 262.51 65.34 289.92" id="bwqTH498"></path><path d="M591.26 554.43C591.26 562.76 475.63 569.51 333 569.51C190.37 569.51 74.74 562.76 74.74 554.43C74.74 546.1 190.37 539.35 333 539.35C475.63 539.35 591.26 546.1 591.26 554.43" id="a2BWz9NQx"></path><path d="M483.44 163.9C483.87 157.27 478.86 151.89 472.23 151.89C453.79 151.89 306.27 151.89 287.83 151.89C281.2 151.89 275.47 157.27 275.03 163.9C274.74 168.15 273.33 189.43 270.79 227.72C254.87 345.56 246.02 411.03 244.25 424.12C243.35 430.75 248 436.13 254.63 436.13C273.07 436.13 420.59 436.13 439.03 436.13C445.66 436.13 451.76 430.75 452.65 424.12C454.42 411.03 463.27 345.56 479.2 227.72C481.46 193.68 482.87 172.41 483.44 163.9Z" id="g54iVi9Urp"></path><path d="M483.44 163.9C483.87 157.27 478.86 151.89 472.23 151.89C453.79 151.89 306.27 151.89 287.83 151.89C281.2 151.89 275.47 157.27 275.03 163.9C274.74 168.15 273.33 189.43 270.79 227.72C254.87 345.56 246.02 411.03 244.25 424.12C243.35 430.75 248 436.13 254.63 436.13C273.07 436.13 420.59 436.13 439.03 436.13C445.66 436.13 451.76 430.75 452.65 424.12C454.42 411.03 463.27 345.56 479.2 227.72C481.46 193.68 482.87 172.41 483.44 163.9Z" id="c1M9dlH0JB"></path><path d="M432.46 436.13C321.82 436.13 260.36 436.13 248.06 436.13C241.43 436.13 236.79 430.75 237.68 424.12C239.45 411.03 248.3 345.56 264.23 227.72L472.64 227.72C456.71 345.56 447.86 411.03 446.09 424.12C445.19 430.75 439.09 436.13 432.46 436.13" id="dff9O92nL"></path><path d="M315.24 148.56L287.78 148.56L287.78 147.23L315.24 147.23L315.24 148.56Z" id="aRQQoxMlW"></path><path d="M274.79 149.98C274.46 149.25 274.27 148.85 274.23 148.77C276.48 147.75 278.85 147.23 281.26 147.23C281.26 147.36 281.26 148.43 281.26 148.56C279.04 148.56 276.86 149.04 274.79 149.98" id="a19NJDmdG5"></path><path d="M465.66 151.89C355.02 151.89 293.56 151.89 281.26 151.89C274.63 151.89 268.9 157.27 268.46 163.9C268.18 168.15 266.77 189.43 264.23 227.72L472.64 227.72C475.18 189.43 476.59 168.15 476.87 163.9C477.31 157.27 472.29 151.89 465.66 151.89" id="bELYPov0B"></path><path d="M274.53 212.14C276.3 185.34 277.29 170.45 277.49 167.48C277.72 163.99 280.74 161.15 284.23 161.15C301.95 161.15 443.75 161.15 461.47 161.15C464.96 161.15 467.6 163.99 467.37 167.48C467.08 171.94 464.71 207.67 464.41 212.14C464.18 215.63 461.16 218.46 457.67 218.46C439.95 218.46 298.15 218.46 280.43 218.46C276.94 218.46 274.3 215.63 274.53 212.14" id="bso8p8SGB"></path><path d="M448.7 168.48C447.49 169.6 446.82 170.23 446.69 170.35C446.59 170.45 446.46 170.5 446.32 170.5C445.25 170.5 436.7 170.5 435.63 170.5C435.48 170.5 435.34 170.44 435.23 170.33C435.06 170.14 433.68 168.64 433.5 168.45C433.18 168.1 433.43 167.54 433.9 167.54C435.34 167.54 446.89 167.53 448.33 167.53C448.82 167.53 449.06 168.14 448.7 168.48" id="fajdMNtbn"></path><path d="M445.87 203.09C437.22 203.09 432.41 203.09 431.45 203.09C430.95 203.09 430.71 202.49 431.07 202.15C431.27 201.96 432.88 200.46 433.08 200.27C433.18 200.18 433.31 200.13 433.45 200.13C434.52 200.13 443.07 200.13 444.14 200.12C444.29 200.12 444.43 200.19 444.54 200.3C444.71 200.49 446.1 201.99 446.27 202.17C446.6 202.52 446.35 203.09 445.87 203.09" id="adqgeBtJP"></path><path d="M447.28 185.69C446.66 186.26 446.31 186.58 446.24 186.65C446.14 186.74 446.01 186.79 445.87 186.79C444.62 186.79 434.62 186.8 433.37 186.8C433.06 186.8 432.8 186.53 432.83 186.21C432.84 186.02 432.95 184.53 432.96 184.34C432.99 184.05 433.22 183.83 433.51 183.83C434.76 183.83 444.81 183.83 446.06 183.83C446.22 183.83 446.36 183.89 446.46 184C446.55 184.1 447.22 184.83 447.31 184.92C447.51 185.14 447.5 185.48 447.28 185.69" id="bTleft9oe"></path><path d="M448.98 186.7C448.35 195.38 448 200.2 447.93 201.17C447.89 201.64 447.31 201.85 446.98 201.5C446.81 201.31 445.43 199.81 445.26 199.62C445.15 199.51 445.1 199.36 445.11 199.21C445.19 198.14 445.82 189.57 445.9 188.49C445.91 188.36 445.97 188.23 446.07 188.14C446.27 187.95 447.87 186.45 448.07 186.26C448.43 185.93 449.02 186.21 448.98 186.7" id="h2OV4E7L5G"></path><path d="M450.23 169.59C449.6 178.27 449.24 183.09 449.17 184.06C449.14 184.53 448.55 184.74 448.23 184.39C448.06 184.2 446.68 182.7 446.5 182.51C446.4 182.4 446.35 182.25 446.36 182.1C446.44 181.03 447.06 172.46 447.14 171.38C447.15 171.25 447.21 171.12 447.31 171.03C447.51 170.84 449.11 169.34 449.31 169.16C449.67 168.82 450.26 169.1 450.23 169.59" id="akpKick9D"></path><path d="M425.6 209.06C425.6 209.06 425.6 209.06 425.6 209.06C425.67 208.04 426.56 207.21 427.58 207.21C429.84 207.21 447.93 207.21 450.2 207.21C451.33 207.21 452.19 208.13 452.11 209.26C452.11 209.26 452.11 209.26 452.11 209.26C452.05 210.28 451.16 211.11 450.14 211.11C447.88 211.11 429.78 211.11 427.52 211.11C426.39 211.11 425.53 210.19 425.6 209.06" id="ba6wEfWSs5"></path><path d="M397.28 209.06C397.28 209.06 397.28 209.06 397.28 209.06C397.35 208.04 398.24 207.21 399.26 207.21C401.52 207.21 419.62 207.21 421.88 207.21C423.01 207.21 423.87 208.13 423.8 209.26C423.8 209.26 423.8 209.26 423.8 209.26C423.73 210.28 422.84 211.11 421.82 211.11C419.56 211.11 401.46 211.11 399.2 211.11C398.07 211.11 397.21 210.19 397.28 209.06" id="b1jcQaZBa0"></path><path d="M368.96 209.06C368.96 209.06 368.96 209.06 368.96 209.06C369.03 208.04 369.92 207.21 370.94 207.21C373.2 207.21 391.3 207.21 393.56 207.21C394.69 207.21 395.55 208.13 395.48 209.26C395.48 209.26 395.48 209.26 395.48 209.26C395.41 210.28 394.52 211.11 393.5 211.11C391.24 211.11 373.15 211.11 370.88 211.11C369.75 211.11 368.89 210.19 368.96 209.06" id="f2nDH0cgzE"></path><path d="M340.71 209.06C340.71 209.06 340.71 209.06 340.71 209.06C340.78 208.04 341.67 207.21 342.69 207.21C344.95 207.21 363.05 207.21 365.31 207.21C366.44 207.21 367.3 208.13 367.23 209.26C367.23 209.26 367.23 209.26 367.23 209.26C367.16 210.28 366.27 211.11 365.25 211.11C362.99 211.11 344.9 211.11 342.63 211.11C341.5 211.11 340.64 210.19 340.71 209.06" id="apKsA97dp"></path><path d="M278.11 318.85C283.11 281.86 285.89 261.32 286.45 257.21C287 253.13 290.75 249.82 294.83 249.82C301 249.82 350.31 249.82 356.47 249.82C360.55 249.82 363.42 253.13 362.86 257.21C362.03 263.37 355.36 312.68 354.53 318.85C353.98 322.93 350.22 326.23 346.14 326.23C339.98 326.23 290.67 326.23 284.5 326.23C280.42 326.23 277.56 322.93 278.11 318.85" id="a67liALNZP"></path><path d="M365.91 318.85C370.91 281.86 373.69 261.32 374.24 257.21C374.79 253.13 378.55 249.82 382.63 249.82C388.79 249.82 438.1 249.82 444.27 249.82C448.35 249.82 451.21 253.13 450.66 257.21C449.82 263.37 443.16 312.68 442.33 318.85C441.77 322.93 438.02 326.23 433.94 326.23C427.77 326.23 378.46 326.23 372.3 326.23C368.22 326.23 365.36 322.93 365.91 318.85" id="e27cZXkgOg"></path><path d="M266.25 406.64C271.25 369.66 274.02 349.11 274.58 345C275.13 340.92 278.89 337.61 282.97 337.61C289.13 337.61 338.44 337.61 344.61 337.61C348.69 337.61 351.55 340.92 351 345C350.16 351.16 343.5 400.48 342.66 406.64C342.11 410.72 338.36 414.03 334.28 414.03C328.11 414.03 278.8 414.03 272.63 414.03C268.55 414.03 265.7 410.72 266.25 406.64" id="a1vEVEvyj7"></path><path d="M354.04 406.64C359.04 369.66 361.82 349.11 362.37 345C362.92 340.92 366.68 337.61 370.76 337.61C376.92 337.61 426.24 337.61 432.4 337.61C436.48 337.61 439.34 340.92 438.79 345C437.96 351.16 431.29 400.48 430.46 406.64C429.91 410.72 426.15 414.03 422.07 414.03C415.91 414.03 366.59 414.03 360.43 414.03C356.35 414.03 353.49 410.72 354.04 406.64" id="aT6o3YrAP"></path><path d="M274.01 318.85C279.01 281.86 281.79 261.32 282.34 257.21C282.9 253.13 286.65 249.82 290.73 249.82C296.9 249.82 346.21 249.82 352.37 249.82C356.45 249.82 359.31 253.13 358.76 257.21C357.93 263.37 351.26 312.68 350.43 318.85C349.88 322.93 346.12 326.23 342.04 326.23C335.88 326.23 286.56 326.23 280.4 326.23C276.32 326.23 273.46 322.93 274.01 318.85" id="g5vL5QKJvm"></path><path d="M274.01 318.85C279.01 281.86 281.79 261.32 282.34 257.21C282.9 253.13 286.65 249.82 290.73 249.82C296.9 249.82 346.21 249.82 352.37 249.82C356.45 249.82 359.31 253.13 358.76 257.21C357.93 263.37 351.26 312.68 350.43 318.85C349.88 322.93 346.12 326.23 342.04 326.23C335.88 326.23 286.56 326.23 280.4 326.23C276.32 326.23 273.46 322.93 274.01 318.85" id="dvE62sQbL"></path><path d="M361.81 318.85C366.81 281.86 369.58 261.32 370.14 257.21C370.69 253.13 374.45 249.82 378.53 249.82C384.69 249.82 434 249.82 440.17 249.82C444.25 249.82 447.11 253.13 446.55 257.21C445.72 263.37 439.06 312.68 438.22 318.85C437.67 322.93 433.92 326.23 429.84 326.23C423.67 326.23 374.36 326.23 368.19 326.23C364.11 326.23 361.25 322.93 361.81 318.85" id="b1AePmdhR6"></path><path d="M361.81 318.85C366.81 281.86 369.58 261.32 370.14 257.21C370.69 253.13 374.45 249.82 378.53 249.82C384.69 249.82 434 249.82 440.17 249.82C444.25 249.82 447.11 253.13 446.55 257.21C445.72 263.37 439.06 312.68 438.22 318.85C437.67 322.93 433.92 326.23 429.84 326.23C423.67 326.23 374.36 326.23 368.19 326.23C364.11 326.23 361.25 322.93 361.81 318.85" id="a9KuviFMMo"></path><path d="M262.14 406.64C267.14 369.66 269.92 349.11 270.48 345C271.03 340.92 274.78 337.61 278.86 337.61C285.03 337.61 334.34 337.61 340.5 337.61C344.58 337.61 347.45 340.92 346.89 345C346.06 351.16 339.39 400.48 338.56 406.64C338.01 410.72 334.25 414.03 330.17 414.03C324.01 414.03 274.7 414.03 268.53 414.03C264.45 414.03 261.59 410.72 262.14 406.64" id="b7nj2FYVax"></path><path d="M262.14 406.64C267.14 369.66 269.92 349.11 270.48 345C271.03 340.92 274.78 337.61 278.86 337.61C285.03 337.61 334.34 337.61 340.5 337.61C344.58 337.61 347.45 340.92 346.89 345C346.06 351.16 339.39 400.48 338.56 406.64C338.01 410.72 334.25 414.03 330.17 414.03C324.01 414.03 274.7 414.03 268.53 414.03C264.45 414.03 261.59 410.72 262.14 406.64" id="b16BiE7mmj"></path><path d="M349.94 406.64C354.94 369.66 357.71 349.11 358.27 345C358.82 340.92 362.58 337.61 366.66 337.61C372.82 337.61 422.13 337.61 428.3 337.61C432.38 337.61 435.24 340.92 434.69 345C433.85 351.16 427.19 400.48 426.35 406.64C425.8 410.72 422.05 414.03 417.97 414.03C411.8 414.03 362.49 414.03 356.33 414.03C352.25 414.03 349.39 410.72 349.94 406.64" id="d16uwKJFok"></path><path d="M349.94 406.64C354.94 369.66 357.71 349.11 358.27 345C358.82 340.92 362.58 337.61 366.66 337.61C372.82 337.61 422.13 337.61 428.3 337.61C432.38 337.61 435.24 340.92 434.69 345C433.85 351.16 427.19 400.48 426.35 406.64C425.8 410.72 422.05 414.03 417.97 414.03C411.8 414.03 362.49 414.03 356.33 414.03C352.25 414.03 349.39 410.72 349.94 406.64" id="b2pqzE5fUN"></path><path d="M312.92 313.67C312.92 313.67 312.92 313.67 312.92 313.67C308.85 313.67 305.97 310.34 306.52 306.28C307.01 302.63 310.96 273.43 311.46 269.78C312.01 265.71 315.78 262.38 319.85 262.38C323.92 262.38 326.8 265.71 326.25 269.78C325.76 273.43 321.81 302.63 321.32 306.28C320.77 310.34 316.99 313.67 312.92 313.67" id="iF3BJbOJH"></path><path d="M290.74 288.03C290.74 288.03 290.74 288.03 290.74 288.03C291.29 283.96 295.07 280.63 299.14 280.63C302.79 280.63 331.99 280.63 335.64 280.63C339.7 280.63 342.58 283.96 342.03 288.03C341.48 292.1 337.7 295.42 333.64 295.42C329.99 295.42 300.79 295.42 297.14 295.42C293.07 295.42 290.19 292.1 290.74 288.03" id="a5wsRftLko"></path><path d="M283.93 393.96C283.93 393.96 283.93 393.96 283.93 393.96C281.44 391.08 282.08 386.37 285.35 383.49C288.28 380.91 311.71 360.27 314.64 357.69C317.91 354.81 322.62 354.81 325.11 357.69C327.59 360.56 326.96 365.27 323.69 368.15C320.76 370.73 297.32 391.38 294.39 393.96C291.13 396.83 286.42 396.83 283.93 393.96" id="e3DpSazOvQ"></path><path d="M288.83 357.68C288.83 357.68 288.83 357.68 288.83 357.68C292.1 354.81 296.81 354.81 299.3 357.68C301.53 360.27 319.38 380.91 321.62 383.49C324.1 386.37 323.47 391.08 320.2 393.96C316.94 396.83 312.23 396.83 309.74 393.96C307.51 391.37 289.65 370.73 287.42 368.15C284.93 365.27 285.57 360.56 288.83 357.68" id="aWB2csSHB"></path><path d="M378.53 288.03C378.53 288.03 378.53 288.03 378.53 288.03C379.08 283.96 382.86 280.63 386.93 280.63C390.58 280.63 419.78 280.63 423.43 280.63C427.5 280.63 430.38 283.96 429.83 288.03C429.28 292.1 425.5 295.42 421.43 295.42C417.78 295.42 388.58 295.42 384.93 295.42C380.86 295.42 377.98 292.1 378.53 288.03" id="a9RaHh0ym"></path><path d="M368.22 364.32C368.22 364.32 368.22 364.32 368.22 364.32C368.77 360.25 372.55 356.92 376.62 356.92C380.27 356.92 409.47 356.92 413.12 356.92C417.18 356.92 420.06 360.25 419.51 364.32C418.96 368.39 415.18 371.72 411.12 371.72C407.47 371.72 378.27 371.72 374.62 371.72C370.55 371.72 367.67 368.39 368.22 364.32" id="g1QwEmccn1"></path><path d="M365.11 387.32C365.11 387.32 365.11 387.32 365.11 387.32C365.66 383.25 369.44 379.92 373.51 379.92C377.16 379.92 406.36 379.92 410.01 379.92C414.08 379.92 416.95 383.25 416.4 387.32C415.85 391.39 412.08 394.72 408.01 394.72C404.36 394.72 375.16 394.72 371.51 394.72C367.44 394.72 364.56 391.39 365.11 387.32" id="e10qXWgLnU"></path><path d="M177.63 239.37C175.24 243.81 172.77 248.6 170.52 253.29C168.22 258 166.1 262.77 164.23 267.55C163.75 268.75 163.35 269.95 162.89 271.14C162.65 271.7 162.51 272.33 162.44 273.08C162.31 274.58 162.69 276.55 163.46 278.6C165.02 282.7 167.96 287.16 170.98 291.04C170.53 291.57 166.9 295.88 166.45 296.41C165.08 295.55 163.96 294.72 162.79 293.78C161.64 292.86 160.51 291.9 159.45 290.84C157.3 288.75 155.31 286.4 153.61 283.62C151.93 280.85 150.5 277.56 150.12 273.61C149.93 271.65 150.08 269.54 150.6 267.49C150.99 266.11 151.33 264.69 151.75 263.33C153.4 257.83 155.4 252.52 157.66 247.37C158.8 244.8 159.97 242.25 161.26 239.75C162.56 237.23 163.8 234.81 165.34 232.26C167.8 233.68 175.17 237.94 177.63 239.37Z" id="be9dSUtu4"></path><path d="M169.13 289.48L175.83 291.24C172.86 297.01 171.21 300.22 170.88 300.86C170.88 300.86 165.93 298.99 164.7 294.62C165.29 293.93 166.77 292.22 169.13 289.48Z" id="beI2V6nDM"></path><path d="M185.01 294.28L179.05 301.83L170.89 300.87L175.83 291.24L185.01 294.28Z" id="cAihSsDBF"></path><path d="M209.04 188.56C209.19 189.3 209.71 189.83 210.19 189.73C210.67 189.63 210.94 188.95 210.79 188.21C210.64 187.47 210.13 186.95 209.64 187.05C209.16 187.14 208.89 187.82 209.04 188.56" id="e1c059fDcM"></path><path d="M209.64 189.84C209.64 189.84 212.19 193.77 214.46 195.45C213.4 196.94 211.06 196.84 211.06 196.84C210.78 195.44 209.92 191.24 209.64 189.84Z" id="a5CW5hGpX"></path><path d="M209.2 182.23C209.02 182.23 208.85 182.25 208.68 182.28C207.64 182.49 206.79 183.32 206.27 184.6C205.75 185.92 205.65 187.54 205.98 189.19C206.67 192.55 208.98 194.94 211.16 194.49C212.2 194.28 213.05 193.46 213.56 192.17C214.08 190.86 214.19 189.23 213.85 187.59C213.52 185.94 212.79 184.49 211.8 183.48C210.98 182.66 210.08 182.23 209.2 182.23M210.64 194.88C208.47 194.88 206.32 192.51 205.66 189.25C205.31 187.55 205.42 185.85 205.96 184.48C206.52 183.09 207.46 182.19 208.61 181.95C209.76 181.72 210.98 182.18 212.03 183.25C213.07 184.3 213.83 185.81 214.18 187.52C214.52 189.23 214.42 190.92 213.87 192.29C213.32 193.69 212.38 194.58 211.22 194.82C211.03 194.86 210.84 194.88 210.64 194.88" id="a1Q57y3SIW"></path><path d="M279.24 265.33L287.78 263.52C288.44 270.48 288.81 274.34 288.88 275.12C288.88 275.12 281.51 276.52 277.97 270.69C278.14 269.97 278.56 268.19 279.24 265.33Z" id="a6cOGZXSB"></path><path d="M295.85 266.12L295.31 274.57L288.88 275.11L287.78 263.52L295.85 266.12Z" id="cOeMkeugz"></path><path d="M205.49 185C205.38 185 205.28 184.96 205.19 184.89C205.01 184.72 205 184.44 205.17 184.26C206.83 182.45 208.86 182.77 208.94 182.79C209.18 182.83 209.35 183.06 209.31 183.3C209.27 183.54 209.03 183.7 208.8 183.66C208.73 183.65 207.15 183.42 205.82 184.86C205.73 184.96 205.61 185 205.49 185" id="ad6izLsVY"></path><path d="M188.47 202.04C189.82 208.9 190.63 218.39 185.83 222.97C185.83 222.97 187.71 229.92 200.44 229.92C214.45 229.92 207.18 223.82 207.18 223.82C201.36 222.01 201.41 215.38 202.74 210.05C199.89 208.45 191.33 203.64 188.47 202.04Z" id="b10OoqljbH"></path><path d="M202.86 221.3C206 219.04 210.66 216.38 211.63 219.15C212.21 220.83 212.45 228.96 209.21 228.35C204.43 227.46 202.86 221.3 202.86 221.3" id="autObErhL"></path><path d="M183.21 227.55C181.96 225.78 182.02 220.2 183.35 219.22C185.49 217.63 194.69 217.26 207.08 220.11C205.74 225.52 208.6 228.35 208.6 228.35C203.52 228.19 188.29 227.71 183.21 227.55Z" id="a16gKsgzoW"></path><path d="M143.11 542.27C143.2 542.3 143.29 542.32 143.37 542.36C143.54 542.45 143.65 542.57 143.7 542.74C143.82 543.14 143.67 543.26 143.63 543.3C143.12 543.73 141.25 543.34 139.93 542.81C140.83 542.5 142.27 542.09 143.11 542.27M141.58 543.77C142.52 543.97 143.46 544.03 143.91 543.64C144.1 543.48 144.3 543.17 144.13 542.61C144.04 542.32 143.85 542.1 143.56 541.96C142.29 541.36 139.39 542.54 139.26 542.59C139.18 542.63 139.13 542.7 139.12 542.79C139.12 542.88 139.17 542.96 139.25 543C139.69 543.21 140.64 543.57 141.58 543.77" id="cr3VyVL6g"></path><path d="M141.95 539.7C141.98 539.71 142.02 539.72 142.05 539.73C142.32 539.82 142.32 539.96 142.32 540.02C142.3 540.64 140.81 541.91 139.71 542.42C139.98 541.67 140.61 540.19 141.41 539.78C141.6 539.69 141.77 539.66 141.95 539.7M139.3 543.01C139.34 543.02 139.37 543.02 139.41 543.01C140.47 542.7 142.73 541.09 142.76 540.03C142.77 539.84 142.7 539.49 142.19 539.31C141.87 539.2 141.54 539.22 141.21 539.39C139.96 540.03 139.17 542.62 139.13 542.73C139.11 542.81 139.13 542.89 139.19 542.95C139.22 542.98 139.26 543 139.3 543.01" id="a56GFTiqFN"></path><path d="M212.24 543.53C212.4 543.53 212.54 543.54 212.67 543.58C212.87 543.63 213.02 543.73 213.1 543.89C213.26 544.16 213.2 544.3 213.15 544.38C212.71 544.98 210.34 545 208.6 544.75C209.47 544.31 211.14 543.53 212.24 543.53M210.75 545.34C211.96 545.34 213.12 545.18 213.51 544.64C213.64 544.45 213.75 544.13 213.49 543.67C213.34 543.41 213.1 543.24 212.79 543.15C211.23 542.72 207.95 544.59 207.81 544.67C207.73 544.72 207.69 544.81 207.7 544.9C207.72 544.99 207.79 545.06 207.88 545.08C208.48 545.2 209.63 545.34 210.75 545.34" id="a2g0FsnDU1"></path><path d="M210.21 541.29C210.25 541.29 210.3 541.29 210.34 541.29C210.74 541.33 210.77 541.49 210.78 541.54C210.88 542.18 209.36 543.77 208.2 544.46C208.32 543.73 208.66 542.22 209.44 541.58C209.68 541.38 209.93 541.29 210.21 541.29M207.92 545.09C207.95 545.09 207.98 545.08 208.01 545.07C209.15 544.56 211.39 542.53 211.21 541.47C211.17 541.22 211 540.91 210.39 540.85C209.93 540.81 209.52 540.93 209.16 541.23C207.97 542.21 207.71 544.73 207.7 544.84C207.69 544.92 207.73 545 207.79 545.04C207.83 545.07 207.88 545.09 207.92 545.09" id="c1fUUWJSXI"></path><path d="M197.62 544.86L206.99 544.86L207.92 523.17L198.55 523.17L197.62 544.86Z" id="gN6pO1xDZ"></path><path d="M128.86 540.53L138.01 542.51L147.21 522.3L138.05 520.32L128.86 540.53Z" id="a2w5S3CXA"></path><path d="M138.89 541.59C132.72 540.25 129.29 539.51 128.61 539.36C128.23 539.28 127.85 539.47 127.69 539.82C127.33 540.59 124.48 546.79 124.12 547.56C123.75 548.37 124.24 549.31 125.11 549.48C128.71 550.2 130.5 550.37 135.03 551.35C137.81 551.95 144.09 553.48 147.94 554.31C151.7 555.13 153.1 551.45 151.61 550.77C144.88 547.7 142.08 544.99 140.26 542.47C139.93 542.02 139.44 541.71 138.89 541.59" id="bFZaq99aR"></path><path d="M206.93 543.78C200.79 543.78 197.38 543.78 196.7 543.78C196.31 543.78 195.98 544.04 195.9 544.42C195.71 545.25 194.23 551.91 194.05 552.75C193.86 553.61 194.51 554.43 195.4 554.41C199.09 554.35 204.42 554.13 209.06 554.13C214.48 554.13 219.17 554.43 225.53 554.43C229.38 554.43 230.44 550.54 228.83 550.19C221.5 548.58 215.52 548.41 209.18 544.51C208.5 544.08 207.74 543.78 206.93 543.78" id="dat5fMLwo"></path><path d="M169.06 225.08C160.28 227.1 153.04 249.51 153.04 249.51C154.8 250.86 168.91 261.61 170.67 262.95C170.67 262.95 177.14 256.85 180.02 245.64C183.04 233.89 178.04 223.03 169.06 225.08" id="bHRJJe4bZ"></path><path d="M169.06 225.08C160.28 227.1 153.04 249.51 153.04 249.51C154.8 250.86 168.91 261.61 170.67 262.95C170.67 262.95 177.14 256.85 180.02 245.64C183.04 233.89 178.04 223.03 169.06 225.08" id="d72Q17uvoE"></path><path d="M221.71 235.78C230.59 243.95 235.52 248.48 236.51 249.39C238.97 251.66 241.44 253.9 243.92 256.11C246.37 258.32 248.88 260.54 251.25 262.46C251.05 262.35 249.4 261.47 249.19 261.36C250.34 261.77 251.54 262.19 252.8 262.52C254.06 262.85 255.38 263.14 256.72 263.41C259.41 263.89 262.22 264.25 265.08 264.48C267.95 264.72 270.87 264.88 273.82 264.96C276.76 265.06 279.82 265.11 282.7 265.13C282.84 265.82 283.96 271.33 284.1 272.02C280.96 273.19 277.94 274.03 274.77 274.74C271.63 275.42 268.43 275.91 265.17 276.21C261.9 276.48 258.58 276.57 255.18 276.35C251.78 276.14 248.31 275.6 244.76 274.56C244.69 274.54 244.36 274.44 243.75 274.26C243.12 273.78 242.77 273.51 242.7 273.45C239.78 271.2 237.18 269 234.57 266.76C231.98 264.51 229.42 262.25 226.89 259.98C221.86 255.39 216.87 250.84 211.97 246.11C213.27 244.73 216.52 241.29 221.71 235.78Z" id="e1HfN8YR8O"></path><path d="M176.58 241.57C171.82 246.29 170.26 254.88 169.89 262.36C169.97 262.42 170.59 262.9 170.67 262.96C170.67 262.96 177.15 256.85 180.03 245.64C180.21 244.94 180.36 244.23 180.49 243.55C179.71 243.15 177.37 241.96 176.58 241.57Z" id="e6VMEEt7F"></path><path d="M224.55 234.48C226.46 244.6 227.66 265.39 222.1 306.55C217.09 306.55 177 306.55 171.99 306.55C171.65 298.86 176.48 261.33 169.06 225.08C169.06 225.08 177.65 223.36 185.83 222.97C192.24 222.66 201.51 222.45 207.14 222.97C209.49 223.18 211.79 223.52 213.85 223.88C219.27 224.84 223.53 229.07 224.55 234.48" id="e5Kr7txipd"></path><path d="M224.55 234.48C226.46 244.6 227.66 265.39 222.1 306.55C217.09 306.55 177 306.55 171.99 306.55C171.65 298.86 176.48 261.33 169.06 225.08C169.06 225.08 177.65 223.36 185.83 222.97C192.24 222.66 201.51 222.45 207.14 222.97C209.49 223.18 211.79 223.52 213.85 223.88C219.27 224.84 223.53 229.07 224.55 234.48" id="a3cfGx5hKH"></path><path d="M216.88 249.44C222.31 248.14 225.33 247.41 225.93 247.27C226.22 252.75 226.24 259.55 225.83 267.96C221.66 263.21 216.34 255.81 216.88 249.44" id="cmBZNqh3N"></path><path d="M207.92 523.17L207.44 534.36L198.07 534.36L198.55 523.17L207.92 523.17Z" id="d45SK11mIn"></path><path d="M138.05 520.32L147.21 522.3L142.46 532.72L133.3 530.74L138.05 520.32Z" id="o2UBm6L0vn"></path><path d="M184.02 192.01C186.43 201 187.38 206.38 192.92 210.11C201.26 215.73 211.64 209.28 211.96 199.76C212.26 191.19 208.27 177.94 198.63 176.13C189.14 174.35 181.61 183.03 184.02 192.01" id="eQCVKyl7k"></path><path d="M204.4 192.7C208.6 192.1 207.4 187.24 205.82 184.86C205.82 184.86 215.21 173.6 204.4 169.05C193.58 164.5 196.25 171.61 196.25 171.61C196.25 171.61 187.81 165.28 180.49 170.38C173.16 175.49 179.49 177.71 179.49 177.71C179.49 177.71 166.14 181.63 171.48 188.39C176.82 195.14 182.31 194.45 182.31 194.45C182.31 194.45 171.27 198.8 179.71 203.68C188.15 208.57 191.24 208.79 191.24 208.79C195.86 209.37 200.23 206.53 201.57 202.06C202.14 200.19 203.83 194.57 204.4 192.7Z" id="d1a0nuUJy"></path><path d="M200.78 192.73C200.92 195.16 202.05 197.45 203.41 198.94C205.45 201.19 207.58 199.79 207.95 197.05C208.27 194.59 207.6 190.44 205.1 189.2C202.64 187.98 200.61 189.95 200.78 192.73" id="a3ekfU7PD"></path><path d="M204.33 306.55C204.33 306.55 193.69 378.15 187.86 404.97C181.46 434.34 147.19 531.53 147.19 531.53C145.51 531.16 132.1 528.26 130.42 527.9C130.42 527.9 154.38 448.7 159.75 407.63C163.87 376.09 171.99 306.55 171.99 306.55C178.46 306.55 197.86 306.55 204.33 306.55Z" id="dTWEjvQDL"></path><path d="M151.2 525.93C151.28 525.95 148.08 532 148.08 532C146.82 531.72 140.53 530.36 129.21 527.91L130.8 522.24C141.68 524.21 148.48 525.44 151.2 525.93Z" id="b1wtWd30vy"></path><path d="M197.61 332.06C185.31 334.47 186.61 380.32 188.09 403.9C191.64 387.23 196.83 355.15 200.37 332.39C199.56 331.98 198.64 331.85 197.61 332.06" id="b1ZZwYMclP"></path><path d="M222.1 306.55C222.1 306.55 223.39 376.6 222.37 405.17C221.31 434.88 210.93 532.19 210.93 532.19C209.35 532.19 196.65 532.19 195.06 532.19C195.06 532.19 194.48 436.62 193.77 407.44C193 375.62 189.16 306.55 189.16 306.55C195.75 306.55 215.51 306.55 222.1 306.55Z" id="f1QgVntuA6"></path><path d="M213.64 526.13C213.72 526.13 212.75 532.72 212.75 532.72C211.46 532.72 205.03 532.72 193.44 532.72L192.92 526.84C203.97 526.46 210.88 526.23 213.64 526.13Z" id="b5ZUZ6gHvS"></path><path d="M204.91 237.55C200.42 249.66 226.81 263.92 226.81 263.92C227.95 262.45 237.09 250.7 238.24 249.23C238.24 249.23 230.61 234.06 221.26 227.22C209.7 218.77 208.33 228.34 204.91 237.55" id="dLReXxuyt"></path><path d="M204.91 237.55C200.42 249.66 226.81 263.92 226.81 263.92C227.95 262.45 237.09 250.7 238.24 249.23C238.24 249.23 230.61 234.06 221.26 227.22C209.7 218.77 208.33 228.34 204.91 237.55" id="c1N4sLNkQG"></path><path d="M284.01 266.53C284.01 267.89 282.55 268.99 280.74 268.99C278.93 268.99 277.46 267.89 277.46 266.53C277.46 265.17 278.93 264.07 280.74 264.07C282.55 264.07 284.01 265.17 284.01 266.53" id="d1U7EzJYBx"></path><path d="M279.46 274.35C279.27 274.35 279.08 274.27 278.95 274.12C278.72 273.84 278.75 273.42 279.03 273.18C279.11 273.11 280.82 271.55 280.08 267.94C280.01 267.58 280.24 267.23 280.6 267.15C280.97 267.09 281.32 267.31 281.39 267.67C282.29 272.12 279.99 274.12 279.89 274.2C279.77 274.3 279.61 274.35 279.46 274.35" id="bDXdWrSvQ"></path><path d="M283.4 266.35C283.4 267.36 282.21 268.18 280.74 268.18C279.27 268.18 278.08 267.36 278.08 266.35C278.08 265.35 279.27 264.53 280.74 264.53C282.21 264.53 283.4 265.35 283.4 266.35" id="atRwsVdio"></path><path d="M209.05 223.07C202.91 227.45 192.3 244.39 190.34 254.39C190.28 254.68 189.89 254.75 189.73 254.5C180.85 240.35 179.83 225.86 179.72 223.51C179.71 223.32 179.56 223.19 179.37 223.2C178.47 223.27 175.99 223.5 174.91 223.75C174.76 223.78 174.66 223.93 174.67 224.09C175.46 242.98 184.97 257.43 188.68 261.87C188.73 261.93 188.75 262 188.75 262.08C187.93 277.07 189.01 303.86 189.15 307.05C189.16 307.22 189.3 307.36 189.48 307.36C189.88 307.36 193.06 307.36 193.46 307.36C193.64 307.36 193.8 307.21 193.79 307.02C193.61 303.95 192.36 280.68 193.8 261.59C193.81 261.58 193.81 261.57 193.81 261.56C196.05 247.35 209.52 228.16 214.25 224.36C214.46 224.19 214.38 223.85 214.11 223.79C212.11 223.35 209.81 223.07 209.27 223.02C209.19 223 209.11 223.02 209.05 223.07" id="bgHua773A"></path></defs><g><g><g><use xlink:href="#k1aR5xE5lH" opacity="1" fill="#ececec" fill-opacity="1"></use><g><use xlink:href="#k1aR5xE5lH" opacity="1" fill-opacity="0" stroke="#000000" stroke-width="1" stroke-opacity="0"></use></g></g><g><use xlink:href="#f603QYlXS4" opacity="1" fill="#ececec" fill-opacity="1"></use><g><use xlink:href="#f603QYlXS4" opacity="1" fill-opacity="0" stroke="#000000" stroke-width="1" stroke-opacity="0"></use></g></g><g><use xlink:href="#g53ksnUh7m" opacity="1" fill="#ececec" fill-opacity="1"></use><g><use xlink:href="#g53ksnUh7m" opacity="1" fill-opacity="0" stroke="#000000" stroke-width="1" stroke-opacity="0"></use></g></g><g><use xlink:href="#f7khHTI6NF" opacity="1" fill="#ececec" fill-opacity="1"></use><g><use xlink:href="#f7khHTI6NF" opacity="1" fill-opacity="0" stroke="#000000" stroke-width="1" stroke-opacity="0"></use></g></g><g><use xlink:href="#boEmqiMWd" opacity="1" fill="#ececec" fill-opacity="1"></use><g><use xlink:href="#boEmqiMWd" opacity="1" fill-opacity="0" stroke="#000000" stroke-width="1" stroke-opacity="0"></use></g></g><g><use xlink:href="#c1l2e6Hukk" opacity="1" fill="#ececec" fill-opacity="1"></use><g><use xlink:href="#c1l2e6Hukk" opacity="1" fill-opacity="0" stroke="#000000" stroke-width="1" stroke-opacity="0"></use></g></g><g><use xlink:href="#a19SkvVGFo" opacity="1" fill="#ececec" fill-opacity="1"></use><g><use xlink:href="#a19SkvVGFo" opacity="1" fill-opacity="0" stroke="#000000" stroke-width="1" stroke-opacity="0"></use></g></g><g><use xlink:href="#a8NLFBbbA" opacity="1" fill="#ececec" fill-opacity="1"></use><g><use xlink:href="#a8NLFBbbA" opacity="1" fill-opacity="0" stroke="#000000" stroke-width="1" stroke-opacity="0"></use></g></g><g><use xlink:href="#a7x7D7NHb3" opacity="1" fill="#ececec" fill-opacity="1"></use><g><use xlink:href="#a7x7D7NHb3" opacity="1" fill-opacity="0" stroke="#000000" stroke-width="1" stroke-opacity="0"></use></g></g><g><use xlink:href="#cRqeC8EfU" opacity="1" fill="#f0f0f0" fill-opacity="1"></use><g><use xlink:href="#cRqeC8EfU" opacity="1" fill-opacity="0" stroke="#000000" stroke-width="1" stroke-opacity="0"></use></g></g><g><use xlink:href="#cajTgynKI" opacity="1" fill="#f0f0f0" fill-opacity="1"></use><g><use xlink:href="#cajTgynKI" opacity="1" fill-opacity="0" stroke="#000000" stroke-width="1" stroke-opacity="0"></use></g></g><g><use xlink:href="#bh1oVrkWt" opacity="1" fill="#f5f5f5" fill-opacity="1"></use><g><use xlink:href="#bh1oVrkWt" opacity="1" fill-opacity="0" stroke="#000000" stroke-width="1" stroke-opacity="0"></use></g></g><g><use xlink:href="#a1uqQjqsFE" opacity="1" fill="#e7e7e7" fill-opacity="1"></use><g><use xlink:href="#a1uqQjqsFE" opacity="1" fill-opacity="0" stroke="#000000" stroke-width="1" stroke-opacity="0"></use></g></g><g><use xlink:href="#a4u3hskOn" opacity="1" fill="#f0f0f0" fill-opacity="1"></use><g><use xlink:href="#a4u3hskOn" opacity="1" fill-opacity="0" stroke="#000000" stroke-width="1" stroke-opacity="0"></use></g></g><g><use xlink:href="#c1y29qQNd4" opacity="1" fill="#e1e1e1" fill-opacity="1"></use><g><use xlink:href="#c1y29qQNd4" opacity="1" fill-opacity="0" stroke="#000000" stroke-width="1" stroke-opacity="0"></use></g></g><g><use xlink:href="#aGdyVW5i" opacity="1" fill="#e1e1e1" fill-opacity="1"></use><g><use xlink:href="#aGdyVW5i" opacity="1" fill-opacity="0" stroke="#000000" stroke-width="1" stroke-opacity="0"></use></g></g><g><use xlink:href="#b10rrQtx8l" opacity="1" fill="#e1e1e1" fill-opacity="1"></use><g><use xlink:href="#b10rrQtx8l" opacity="1" fill-opacity="0" stroke="#000000" stroke-width="1" stroke-opacity="0"></use></g></g><g><use xlink:href="#e1025yTsLl" opacity="1" fill="#e1e1e1" fill-opacity="1"></use><g><use xlink:href="#e1025yTsLl" opacity="1" fill-opacity="0" stroke="#000000" stroke-width="1" stroke-opacity="0"></use></g></g><g><use xlink:href="#b8QD4knnb" opacity="1" fill="#f5f5f5" fill-opacity="1"></use><g><use xlink:href="#b8QD4knnb" opacity="1" fill-opacity="0" stroke="#000000" stroke-width="1" stroke-opacity="0"></use></g></g><g><use xlink:href="#f3E4k8p8MG" opacity="1" fill="#f0f0f0" fill-opacity="1"></use><g><use xlink:href="#f3E4k8p8MG" opacity="1" fill-opacity="0" stroke="#000000" stroke-width="1" stroke-opacity="0"></use></g></g><g><use xlink:href="#b175MwzXmc" opacity="1" fill="#e1e1e1" fill-opacity="1"></use><g><use xlink:href="#b175MwzXmc" opacity="1" fill-opacity="0" stroke="#000000" stroke-width="1" stroke-opacity="0"></use></g></g><g><use xlink:href="#jsNqW1jPe" opacity="1" fill="#f5f5f5" fill-opacity="1"></use><g><use xlink:href="#jsNqW1jPe" opacity="1" fill-opacity="0" stroke="#000000" stroke-width="1" stroke-opacity="0"></use></g></g><g><use xlink:href="#egG2YF6nh" opacity="1" fill="#f0f0f0" fill-opacity="1"></use><g><use xlink:href="#egG2YF6nh" opacity="1" fill-opacity="0" stroke="#000000" stroke-width="1" stroke-opacity="0"></use></g></g><g><use xlink:href="#a12MO1joCY" opacity="1" fill="#e1e1e1" fill-opacity="1"></use><g><use xlink:href="#a12MO1joCY" opacity="1" fill-opacity="0" stroke="#000000" stroke-width="1" stroke-opacity="0"></use></g></g><g><use xlink:href="#b3yCsPq8rC" opacity="1" fill="#e1e1e1" fill-opacity="1"></use><g><use xlink:href="#b3yCsPq8rC" opacity="1" fill-opacity="0" stroke="#000000" stroke-width="1" stroke-opacity="0"></use></g></g><g><use xlink:href="#d1GLvAcNuv" opacity="1" fill="#e1e1e1" fill-opacity="1"></use><g><use xlink:href="#d1GLvAcNuv" opacity="1" fill-opacity="0" stroke="#000000" stroke-width="1" stroke-opacity="0"></use></g></g><g><use xlink:href="#cujZWaKpr" opacity="1" fill="#ececec" fill-opacity="1"></use><g><use xlink:href="#cujZWaKpr" opacity="1" fill-opacity="0" stroke="#000000" stroke-width="1" stroke-opacity="0"></use></g></g><g><use xlink:href="#g532hyt6z" opacity="1" fill="#fafafa" fill-opacity="1"></use><g><use xlink:href="#g532hyt6z" opacity="1" fill-opacity="0" stroke="#000000" stroke-width="1" stroke-opacity="0"></use></g></g><g><use xlink:href="#e1cVnZBKsx" opacity="1" fill="#f0f0f0" fill-opacity="1"></use><g><use xlink:href="#e1cVnZBKsx" opacity="1" fill-opacity="0" stroke="#000000" stroke-width="1" stroke-opacity="0"></use></g></g><g><use xlink:href="#b7k1AJ9BmI" opacity="1" fill="#ececec" fill-opacity="1"></use><g><use xlink:href="#b7k1AJ9BmI" opacity="1" fill-opacity="0" stroke="#000000" stroke-width="1" stroke-opacity="0"></use></g></g><g><use xlink:href="#ab4g6FdL6" opacity="1" fill="#e1e1e1" fill-opacity="1"></use><g><use xlink:href="#ab4g6FdL6" opacity="1" fill-opacity="0" stroke="#000000" stroke-width="1" stroke-opacity="0"></use></g></g><g><use xlink:href="#dOiev15xQ" opacity="1" fill="#ffffff" fill-opacity="1"></use><g><use xlink:href="#dOiev15xQ" opacity="1" fill-opacity="0" stroke="#000000" stroke-width="1" stroke-opacity="0"></use></g></g><g><use xlink:href="#afVoPVyHo" opacity="1" fill="#f5f5f5" fill-opacity="1"></use><g><use xlink:href="#afVoPVyHo" opacity="1" fill-opacity="0" stroke="#000000" stroke-width="1" stroke-opacity="0"></use></g></g><g><use xlink:href="#c7jdyMu1Yz" opacity="1" fill="#f5f5f5" fill-opacity="1"></use><g><use xlink:href="#c7jdyMu1Yz" opacity="1" fill-opacity="0" stroke="#000000" stroke-width="1" stroke-opacity="0"></use></g></g><g><use xlink:href="#b4m5LFsKUN" opacity="1" fill="#f5f5f5" fill-opacity="1"></use><g><use xlink:href="#b4m5LFsKUN" opacity="1" fill-opacity="0" stroke="#000000" stroke-width="1" stroke-opacity="0"></use></g></g><g><use xlink:href="#adoKjIMjX" opacity="1" fill="#f5f5f5" fill-opacity="1"></use><g><use xlink:href="#adoKjIMjX" opacity="1" fill-opacity="0" stroke="#000000" stroke-width="1" stroke-opacity="0"></use></g></g><g><use xlink:href="#a65wkH6SUS" opacity="1" fill="#f5f5f5" fill-opacity="1"></use><g><use xlink:href="#a65wkH6SUS" opacity="1" fill-opacity="0" stroke="#000000" stroke-width="1" stroke-opacity="0"></use></g></g><g><use xlink:href="#j1WJe7XYjz" opacity="1" fill="#007cff" fill-opacity="1"></use><g><use xlink:href="#j1WJe7XYjz" opacity="1" fill-opacity="0" stroke="#000000" stroke-width="1" stroke-opacity="0"></use></g></g><g><use xlink:href="#bwqTH498" opacity="1" fill="#ffffff" fill-opacity="1"></use><g><use xlink:href="#bwqTH498" opacity="1" fill-opacity="0" stroke="#000000" stroke-width="1" stroke-opacity="0"></use></g></g><g><use xlink:href="#a2BWz9NQx" opacity="1" fill="#f5f5f5" fill-opacity="1"></use><g><use xlink:href="#a2BWz9NQx" opacity="1" fill-opacity="0" stroke="#000000" stroke-width="1" stroke-opacity="0"></use></g></g><g><use xlink:href="#g54iVi9Urp" opacity="1" fill="#007cff" fill-opacity="1"></use><g><use xlink:href="#g54iVi9Urp" opacity="1" fill-opacity="0" stroke="#000000" stroke-width="1" stroke-opacity="0"></use></g></g><g><use xlink:href="#c1M9dlH0JB" opacity="1" fill="#000000" fill-opacity="1"></use><g><use xlink:href="#c1M9dlH0JB" opacity="1" fill-opacity="0" stroke="#000000" stroke-width="1" stroke-opacity="0"></use></g></g><g><use xlink:href="#dff9O92nL" opacity="1" fill="#90ee90" fill-opacity="1"></use><g><use xlink:href="#dff9O92nL" opacity="1" fill-opacity="0" stroke="#000000" stroke-width="1" stroke-opacity="0"></use></g></g><g><use xlink:href="#aRQQoxMlW" opacity="1" fill="#90ee90" fill-opacity="1"></use><g><use xlink:href="#aRQQoxMlW" opacity="1" fill-opacity="0" stroke="#000000" stroke-width="1" stroke-opacity="0"></use></g></g><g><use xlink:href="#a19NJDmdG5" opacity="1" fill="#90ee90" fill-opacity="1"></use><g><use xlink:href="#a19NJDmdG5" opacity="1" fill-opacity="0" stroke="#000000" stroke-width="1" stroke-opacity="0"></use></g></g><g><use xlink:href="#bELYPov0B" opacity="1" fill="#90ee90" fill-opacity="1"></use><g><use xlink:href="#bELYPov0B" opacity="1" fill-opacity="0" stroke="#000000" stroke-width="1" stroke-opacity="0"></use></g></g><g><use xlink:href="#bso8p8SGB" opacity="1" fill="#ffffff" fill-opacity="1"></use><g><use xlink:href="#bso8p8SGB" opacity="1" fill-opacity="0" stroke="#000000" stroke-width="1" stroke-opacity="0"></use></g></g><g><use xlink:href="#fajdMNtbn" opacity="1" fill="#1a2e35" fill-opacity="1"></use><g><use xlink:href="#fajdMNtbn" opacity="1" fill-opacity="0" stroke="#000000" stroke-width="1" stroke-opacity="0"></use></g></g><g><use xlink:href="#adqgeBtJP" opacity="1" fill="#1a2e35" fill-opacity="1"></use><g><use xlink:href="#adqgeBtJP" opacity="1" fill-opacity="0" stroke="#000000" stroke-width="1" stroke-opacity="0"></use></g></g><g><use xlink:href="#bTleft9oe" opacity="1" fill="#1a2e35" fill-opacity="1"></use><g><use xlink:href="#bTleft9oe" opacity="1" fill-opacity="0" stroke="#000000" stroke-width="1" stroke-opacity="0"></use></g></g><g><use xlink:href="#h2OV4E7L5G" opacity="1" fill="#1a2e35" fill-opacity="1"></use><g><use xlink:href="#h2OV4E7L5G" opacity="1" fill-opacity="0" stroke="#000000" stroke-width="1" stroke-opacity="0"></use></g></g><g><use xlink:href="#akpKick9D" opacity="1" fill="#1a2e35" fill-opacity="1"></use><g><use xlink:href="#akpKick9D" opacity="1" fill-opacity="0" stroke="#000000" stroke-width="1" stroke-opacity="0"></use></g></g><g><use xlink:href="#ba6wEfWSs5" opacity="1" fill="#ececec" fill-opacity="1"></use><g><use xlink:href="#ba6wEfWSs5" opacity="1" fill-opacity="0" stroke="#000000" stroke-width="1" stroke-opacity="0"></use></g></g><g><use xlink:href="#b1jcQaZBa0" opacity="1" fill="#ececec" fill-opacity="1"></use><g><use xlink:href="#b1jcQaZBa0" opacity="1" fill-opacity="0" stroke="#000000" stroke-width="1" stroke-opacity="0"></use></g></g><g><use xlink:href="#f2nDH0cgzE" opacity="1" fill="#ececec" fill-opacity="1"></use><g><use xlink:href="#f2nDH0cgzE" opacity="1" fill-opacity="0" stroke="#000000" stroke-width="1" stroke-opacity="0"></use></g></g><g><use xlink:href="#apKsA97dp" opacity="1" fill="#ececec" fill-opacity="1"></use><g><use xlink:href="#apKsA97dp" opacity="1" fill-opacity="0" stroke="#000000" stroke-width="1" stroke-opacity="0"></use></g></g><g><use xlink:href="#a67liALNZP" opacity="1" fill="#1a2e35" fill-opacity="1"></use><g><use xlink:href="#a67liALNZP" opacity="1" fill-opacity="0" stroke="#000000" stroke-width="1" stroke-opacity="0"></use></g></g><g><use xlink:href="#e27cZXkgOg" opacity="1" fill="#1a2e35" fill-opacity="1"></use><g><use xlink:href="#e27cZXkgOg" opacity="1" fill-opacity="0" stroke="#000000" stroke-width="1" stroke-opacity="0"></use></g></g><g><use xlink:href="#a1vEVEvyj7" opacity="1" fill="#1a2e35" fill-opacity="1"></use><g><use xlink:href="#a1vEVEvyj7" opacity="1" fill-opacity="0" stroke="#000000" stroke-width="1" stroke-opacity="0"></use></g></g><g><use xlink:href="#aT6o3YrAP" opacity="1" fill="#1a2e35" fill-opacity="1"></use><g><use xlink:href="#aT6o3YrAP" opacity="1" fill-opacity="0" stroke="#000000" stroke-width="1" stroke-opacity="0"></use></g></g><g><use xlink:href="#g5vL5QKJvm" opacity="1" fill="#007cff" fill-opacity="1"></use><g><use xlink:href="#g5vL5QKJvm" opacity="1" fill-opacity="0" stroke="#000000" stroke-width="1" stroke-opacity="0"></use></g></g><g><use xlink:href="#dvE62sQbL" opacity="1" fill="#ffffff" fill-opacity="1"></use><g><use xlink:href="#dvE62sQbL" opacity="1" fill-opacity="0" stroke="#000000" stroke-width="1" stroke-opacity="0"></use></g></g><g><use xlink:href="#b1AePmdhR6" opacity="1" fill="#007cff" fill-opacity="1"></use><g><use xlink:href="#b1AePmdhR6" opacity="1" fill-opacity="0" stroke="#000000" stroke-width="1" stroke-opacity="0"></use></g></g><g><use xlink:href="#a9KuviFMMo" opacity="1" fill="#ffffff" fill-opacity="1"></use><g><use xlink:href="#a9KuviFMMo" opacity="1" fill-opacity="0" stroke="#000000" stroke-width="1" stroke-opacity="0"></use></g></g><g><use xlink:href="#b7nj2FYVax" opacity="1" fill="#007cff" fill-opacity="1"></use><g><use xlink:href="#b7nj2FYVax" opacity="1" fill-opacity="0" stroke="#000000" stroke-width="1" stroke-opacity="0"></use></g></g><g><use xlink:href="#b16BiE7mmj" opacity="1" fill="#ffffff" fill-opacity="1"></use><g><use xlink:href="#b16BiE7mmj" opacity="1" fill-opacity="0" stroke="#000000" stroke-width="1" stroke-opacity="0"></use></g></g><g><use xlink:href="#d16uwKJFok" opacity="1" fill="#007cff" fill-opacity="1"></use><g><use xlink:href="#d16uwKJFok" opacity="1" fill-opacity="0" stroke="#000000" stroke-width="1" stroke-opacity="0"></use></g></g><g><use xlink:href="#b2pqzE5fUN" opacity="1" fill="#ffffff" fill-opacity="1"></use><g><use xlink:href="#b2pqzE5fUN" opacity="1" fill-opacity="0" stroke="#000000" stroke-width="1" stroke-opacity="0"></use></g></g><g><use xlink:href="#iF3BJbOJH" opacity="1" fill="#ffffff" fill-opacity="1"></use><g><use xlink:href="#iF3BJbOJH" opacity="1" fill-opacity="0" stroke="#000000" stroke-width="1" stroke-opacity="0"></use></g></g><g><use xlink:href="#a5wsRftLko" opacity="1" fill="#ffffff" fill-opacity="1"></use><g><use xlink:href="#a5wsRftLko" opacity="1" fill-opacity="0" stroke="#000000" stroke-width="1" stroke-opacity="0"></use></g></g><g><use xlink:href="#e3DpSazOvQ" opacity="1" fill="#ffffff" fill-opacity="1"></use><g><use xlink:href="#e3DpSazOvQ" opacity="1" fill-opacity="0" stroke="#000000" stroke-width="1" stroke-opacity="0"></use></g></g><g><use xlink:href="#aWB2csSHB" opacity="1" fill="#ffffff" fill-opacity="1"></use><g><use xlink:href="#aWB2csSHB" opacity="1" fill-opacity="0" stroke="#000000" stroke-width="1" stroke-opacity="0"></use></g></g><g><use xlink:href="#a9RaHh0ym" opacity="1" fill="#ffffff" fill-opacity="1"></use><g><use xlink:href="#a9RaHh0ym" opacity="1" fill-opacity="0" stroke="#000000" stroke-width="1" stroke-opacity="0"></use></g></g><g><use xlink:href="#g1QwEmccn1" opacity="1" fill="#ffffff" fill-opacity="1"></use><g><use xlink:href="#g1QwEmccn1" opacity="1" fill-opacity="0" stroke="#000000" stroke-width="1" stroke-opacity="0"></use></g></g><g><use xlink:href="#e10qXWgLnU" opacity="1" fill="#ffffff" fill-opacity="1"></use><g><use xlink:href="#e10qXWgLnU" opacity="1" fill-opacity="0" stroke="#000000" stroke-width="1" stroke-opacity="0"></use></g></g><g><use xlink:href="#be9dSUtu4" opacity="1" fill="#ff8c7b" fill-opacity="1"></use><g><use xlink:href="#be9dSUtu4" opacity="1" fill-opacity="0" stroke="#000000" stroke-width="1" stroke-opacity="0"></use></g></g><g><use xlink:href="#beI2V6nDM" opacity="1" fill="#ff8c7b" fill-opacity="1"></use><g><use xlink:href="#beI2V6nDM" opacity="1" fill-opacity="0" stroke="#000000" stroke-width="1" stroke-opacity="0"></use></g></g><g><use xlink:href="#cAihSsDBF" opacity="1" fill="#ff8c7b" fill-opacity="1"></use><g><use xlink:href="#cAihSsDBF" opacity="1" fill-opacity="0" stroke="#000000" stroke-width="1" stroke-opacity="0"></use></g></g><g><use xlink:href="#e1c059fDcM" opacity="1" fill="#1a2e35" fill-opacity="1"></use><g><use xlink:href="#e1c059fDcM" opacity="1" fill-opacity="0" stroke="#000000" stroke-width="1" stroke-opacity="0"></use></g></g><g><use xlink:href="#a5CW5hGpX" opacity="1" fill="#ff5551" fill-opacity="1"></use><g><use xlink:href="#a5CW5hGpX" opacity="1" fill-opacity="0" stroke="#000000" stroke-width="1" stroke-opacity="0"></use></g></g><g><use xlink:href="#a1Q57y3SIW" opacity="1" fill="#1a2e35" fill-opacity="1"></use><g><use xlink:href="#a1Q57y3SIW" opacity="1" fill-opacity="0" stroke="#000000" stroke-width="1" stroke-opacity="0"></use></g></g><g><use xlink:href="#a6cOGZXSB" opacity="1" fill="#ff8c7b" fill-opacity="1"></use><g><use xlink:href="#a6cOGZXSB" opacity="1" fill-opacity="0" stroke="#000000" stroke-width="1" stroke-opacity="0"></use></g></g><g><use xlink:href="#cOeMkeugz" opacity="1" fill="#ff8c7b" fill-opacity="1"></use><g><use xlink:href="#cOeMkeugz" opacity="1" fill-opacity="0" stroke="#000000" stroke-width="1" stroke-opacity="0"></use></g></g><g><use xlink:href="#ad6izLsVY" opacity="1" fill="#1a2e35" fill-opacity="1"></use><g><use xlink:href="#ad6izLsVY" opacity="1" fill-opacity="0" stroke="#000000" stroke-width="1" stroke-opacity="0"></use></g></g><g><use xlink:href="#b10OoqljbH" opacity="1" fill="#ff8c7b" fill-opacity="1"></use><g><use xlink:href="#b10OoqljbH" opacity="1" fill-opacity="0" stroke="#000000" stroke-width="1" stroke-opacity="0"></use></g></g><g><use xlink:href="#autObErhL" opacity="1" fill="#1a2e35" fill-opacity="1"></use><g><use xlink:href="#autObErhL" opacity="1" fill-opacity="0" stroke="#000000" stroke-width="1" stroke-opacity="0"></use></g></g><g><use xlink:href="#a16gKsgzoW" opacity="1" fill="#90ee90" fill-opacity="1"></use><g><use xlink:href="#a16gKsgzoW" opacity="1" fill-opacity="0" stroke="#000000" stroke-width="1" stroke-opacity="0"></use></g></g><g><use xlink:href="#cr3VyVL6g" opacity="1" fill="#007cff" fill-opacity="1"></use><g><use xlink:href="#cr3VyVL6g" opacity="1" fill-opacity="0" stroke="#000000" stroke-width="1" stroke-opacity="0"></use></g></g><g><use xlink:href="#a56GFTiqFN" opacity="1" fill="#007cff" fill-opacity="1"></use><g><use xlink:href="#a56GFTiqFN" opacity="1" fill-opacity="0" stroke="#000000" stroke-width="1" stroke-opacity="0"></use></g></g><g><use xlink:href="#a2g0FsnDU1" opacity="1" fill="#007cff" fill-opacity="1"></use><g><use xlink:href="#a2g0FsnDU1" opacity="1" fill-opacity="0" stroke="#000000" stroke-width="1" stroke-opacity="0"></use></g></g><g><use xlink:href="#c1fUUWJSXI" opacity="1" fill="#007cff" fill-opacity="1"></use><g><use xlink:href="#c1fUUWJSXI" opacity="1" fill-opacity="0" stroke="#000000" stroke-width="1" stroke-opacity="0"></use></g></g><g><use xlink:href="#gN6pO1xDZ" opacity="1" fill="#ff8c7b" fill-opacity="1"></use><g><use xlink:href="#gN6pO1xDZ" opacity="1" fill-opacity="0" stroke="#000000" stroke-width="1" stroke-opacity="0"></use></g></g><g><use xlink:href="#a2w5S3CXA" opacity="1" fill="#ff8c7b" fill-opacity="1"></use><g><use xlink:href="#a2w5S3CXA" opacity="1" fill-opacity="0" stroke="#000000" stroke-width="1" stroke-opacity="0"></use></g></g><g><use xlink:href="#bFZaq99aR" opacity="1" fill="#1a2e35" fill-opacity="1"></use><g><use xlink:href="#bFZaq99aR" opacity="1" fill-opacity="0" stroke="#000000" stroke-width="1" stroke-opacity="0"></use></g></g><g><use xlink:href="#dat5fMLwo" opacity="1" fill="#1a2e35" fill-opacity="1"></use><g><use xlink:href="#dat5fMLwo" opacity="1" fill-opacity="0" stroke="#000000" stroke-width="1" stroke-opacity="0"></use></g></g><g><use xlink:href="#bHRJJe4bZ" opacity="1" fill="#007cff" fill-opacity="1"></use><g><use xlink:href="#bHRJJe4bZ" opacity="1" fill-opacity="0" stroke="#000000" stroke-width="1" stroke-opacity="0"></use></g></g><g><use xlink:href="#d72Q17uvoE" opacity="1" fill="#ffffff" fill-opacity="1"></use><g><use xlink:href="#d72Q17uvoE" opacity="1" fill-opacity="0" stroke="#000000" stroke-width="1" stroke-opacity="0"></use></g></g><g><use xlink:href="#e1HfN8YR8O" opacity="1" fill="#ff8c7b" fill-opacity="1"></use><g><use xlink:href="#e1HfN8YR8O" opacity="1" fill-opacity="0" stroke="#000000" stroke-width="1" stroke-opacity="0"></use></g></g><g><use xlink:href="#e6VMEEt7F" opacity="1" fill="#000000" fill-opacity="1"></use><g><use xlink:href="#e6VMEEt7F" opacity="1" fill-opacity="0" stroke="#000000" stroke-width="1" stroke-opacity="0"></use></g></g><g><use xlink:href="#e5Kr7txipd" opacity="1" fill="#007cff" fill-opacity="1"></use><g><use xlink:href="#e5Kr7txipd" opacity="1" fill-opacity="0" stroke="#000000" stroke-width="1" stroke-opacity="0"></use></g></g><g><use xlink:href="#a3cfGx5hKH" opacity="1" fill="#ffffff" fill-opacity="1"></use><g><use xlink:href="#a3cfGx5hKH" opacity="1" fill-opacity="0" stroke="#000000" stroke-width="1" stroke-opacity="0"></use></g></g><g><use xlink:href="#cmBZNqh3N" opacity="1" fill="#000000" fill-opacity="1"></use><g><use xlink:href="#cmBZNqh3N" opacity="1" fill-opacity="0" stroke="#000000" stroke-width="1" stroke-opacity="0"></use></g></g><g><use xlink:href="#d45SK11mIn" opacity="1" fill="#000000" fill-opacity="1"></use><g><use xlink:href="#d45SK11mIn" opacity="1" fill-opacity="0" stroke="#000000" stroke-width="1" stroke-opacity="0"></use></g></g><g><use xlink:href="#o2UBm6L0vn" opacity="1" fill="#000000" fill-opacity="1"></use><g><use xlink:href="#o2UBm6L0vn" opacity="1" fill-opacity="0" stroke="#000000" stroke-width="1" stroke-opacity="0"></use></g></g><g><use xlink:href="#eQCVKyl7k" opacity="1" fill="#ff8c7b" fill-opacity="1"></use><g><use xlink:href="#eQCVKyl7k" opacity="1" fill-opacity="0" stroke="#000000" stroke-width="1" stroke-opacity="0"></use></g></g><g><use xlink:href="#d1a0nuUJy" opacity="1" fill="#1a2e35" fill-opacity="1"></use><g><use xlink:href="#d1a0nuUJy" opacity="1" fill-opacity="0" stroke="#000000" stroke-width="1" stroke-opacity="0"></use></g></g><g><use xlink:href="#a3ekfU7PD" opacity="1" fill="#ff8c7b" fill-opacity="1"></use><g><use xlink:href="#a3ekfU7PD" opacity="1" fill-opacity="0" stroke="#000000" stroke-width="1" stroke-opacity="0"></use></g></g><g><use xlink:href="#dTWEjvQDL" opacity="1" fill="#1a2e35" fill-opacity="1"></use><g><use xlink:href="#dTWEjvQDL" opacity="1" fill-opacity="0" stroke="#000000" stroke-width="1" stroke-opacity="0"></use></g></g><g><use xlink:href="#b1wtWd30vy" opacity="1" fill="#90ee90" fill-opacity="1"></use><g><use xlink:href="#b1wtWd30vy" opacity="1" fill-opacity="0" stroke="#000000" stroke-width="1" stroke-opacity="0"></use></g></g><g><use xlink:href="#b1ZZwYMclP" opacity="1" fill="#000000" fill-opacity="1"></use><g><use xlink:href="#b1ZZwYMclP" opacity="1" fill-opacity="0" stroke="#000000" stroke-width="1" stroke-opacity="0"></use></g></g><g><use xlink:href="#f1QgVntuA6" opacity="1" fill="#1a2e35" fill-opacity="1"></use><g><use xlink:href="#f1QgVntuA6" opacity="1" fill-opacity="0" stroke="#000000" stroke-width="1" stroke-opacity="0"></use></g></g><g><use xlink:href="#b5ZUZ6gHvS" opacity="1" fill="#90ee90" fill-opacity="1"></use><g><use xlink:href="#b5ZUZ6gHvS" opacity="1" fill-opacity="0" stroke="#000000" stroke-width="1" stroke-opacity="0"></use></g></g><g><use xlink:href="#dLReXxuyt" opacity="1" fill="#007cff" fill-opacity="1"></use><g><use xlink:href="#dLReXxuyt" opacity="1" fill-opacity="0" stroke="#000000" stroke-width="1" stroke-opacity="0"></use></g></g><g><use xlink:href="#c1N4sLNkQG" opacity="1" fill="#ffffff" fill-opacity="1"></use><g><use xlink:href="#c1N4sLNkQG" opacity="1" fill-opacity="0" stroke="#000000" stroke-width="1" stroke-opacity="0"></use></g></g><g><use xlink:href="#d1U7EzJYBx" opacity="1" fill="#1a2e35" fill-opacity="1"></use><g><use xlink:href="#d1U7EzJYBx" opacity="1" fill-opacity="0" stroke="#000000" stroke-width="1" stroke-opacity="0"></use></g></g><g><use xlink:href="#bDXdWrSvQ" opacity="1" fill="#1a2e35" fill-opacity="1"></use><g><use xlink:href="#bDXdWrSvQ" opacity="1" fill-opacity="0" stroke="#000000" stroke-width="1" stroke-opacity="0"></use></g></g><g><use xlink:href="#atRwsVdio" opacity="1" fill="#ffffff" fill-opacity="1"></use><g><use xlink:href="#atRwsVdio" opacity="1" fill-opacity="0" stroke="#000000" stroke-width="1" stroke-opacity="0"></use></g></g><g><use xlink:href="#bgHua773A" opacity="1" fill="#90ee90" fill-opacity="1"></use><g><use xlink:href="#bgHua773A" opacity="1" fill-opacity="0" stroke="#000000" stroke-width="1" stroke-opacity="0"></use></g></g></g></g></svg>