<?xml version="1.0" ?>
<svg viewBox="0 0 64 64"
  xmlns="http://www.w3.org/2000/svg">
  <title/>
  <g id="hand-drying-paper-towel">
    <polyline points="44 36.304 44 56 27 56" style="fill:none;stroke:#000;stroke-linecap:round;stroke-linejoin:round;stroke-width:2px"/>
    <polyline points="27 12 44 12 44 30" style="fill:none;stroke:#000;stroke-linecap:round;stroke-linejoin:round;stroke-width:2px"/>
    <line style="fill:none;stroke:#000;stroke-linecap:round;stroke-linejoin:round;stroke-width:2px" x1="56" x2="56" y1="5" y2="7"/>
    <line style="fill:none;stroke:#000;stroke-linecap:round;stroke-linejoin:round;stroke-width:2px" x1="56" x2="56" y1="11" y2="13"/>
    <line style="fill:none;stroke:#000;stroke-linecap:round;stroke-linejoin:round;stroke-width:2px" x1="52" x2="54" y1="9" y2="9"/>
    <line style="fill:none;stroke:#000;stroke-linecap:round;stroke-linejoin:round;stroke-width:2px" x1="58" x2="60" y1="9" y2="9"/>
    <path d="M61.582,23.167A1.069,1.069,0,1,1,60.513,22.1,1.07,1.07,0,0,1,61.582,23.167Z"/>
    <path d="M9,49.4v6.615c5.525,2.134,11.59,1.839,18,0V12c0-1.105-4.029-2-9-2S9,10.9,9,12V35.713" style="fill:none;stroke:#000;stroke-linecap:round;stroke-linejoin:round;stroke-width:2px"/>
    <path d="M27,12c0,1.105-4.029,2-9,2s-9-.895-9-2" style="fill:none;stroke:#000;stroke-linecap:round;stroke-linejoin:round;stroke-width:2px"/>
    <path d="M44,29.758V22h.69a8.841,8.841,0,0,1,6.8,3.184L61,36.609v10L53.076,40.9A4.749,4.749,0,0,0,50.3,40h0a3.969,3.969,0,0,1-2.582-.955L44.958,36.7l-7.369-5.527a1.889,1.889,0,0,1-.756-1.511h0a1.888,1.888,0,0,1,2.733-1.689l7.267,3.633" style="fill:none;stroke:#000;stroke-linecap:round;stroke-linejoin:round;stroke-width:2px"/>
    <line style="fill:none;stroke:#000;stroke-linecap:round;stroke-linejoin:round;stroke-width:2px" x1="9" x2="15" y1="22" y2="22"/>
    <line style="fill:none;stroke:#000;stroke-linecap:round;stroke-linejoin:round;stroke-width:2px" x1="21" x2="27" y1="30" y2="30"/>
    <polygon points="17 40 13 40 13 36 8 36 8 40 4 40 4 45 8 45 8 49 13 49 13 45 17 45 17 40" style="fill:none;stroke:#000;stroke-linecap:round;stroke-linejoin:round;stroke-width:2px"/>
  </g>
</svg>