<?xml version="1.0" encoding="UTF-8" standalone="no"?>
<svg xmlns:dc="http://purl.org/dc/elements/1.1/"
  xmlns:cc="http://creativecommons.org/ns#"
  xmlns:rdf="http://www.w3.org/1999/02/22-rdf-syntax-ns#"
  xmlns:svg="http://www.w3.org/2000/svg"
  xmlns="http://www.w3.org/2000/svg"
  xmlns:sodipodi="http://sodipodi.sourceforge.net/DTD/sodipodi-0.dtd"
  xmlns:inkscape="http://www.inkscape.org/namespaces/inkscape" version="1.1" id="svg2" xml:space="preserve" width="4000" height="2666.6667" viewBox="0 0 4000 2666.6667" sodipodi:docname="8268.eps">
  <metadata id="metadata8">
    <rdf:RDF>
      <cc:Work rdf:about="">
        <dc:format>image/svg+xml</dc:format>
        <dc:type rdf:resource="http://purl.org/dc/dcmitype/StillImage" />
      </cc:Work>
    </rdf:RDF>
  </metadata>
  <defs id="defs6" />
  <sodipodi:namedview pagecolor="#ffffff" bordercolor="#666666" borderopacity="1" objecttolerance="10" gridtolerance="10" guidetolerance="10" inkscape:pageopacity="0" inkscape:pageshadow="2" inkscape:window-width="640" inkscape:window-height="480" id="namedview4" />
  <g id="g10" inkscape:groupmode="layer" inkscape:label="ink_ext_XXXXXX" transform="matrix(1.3333333,0,0,-1.3333333,0,2666.6667)">
    <g id="g12" transform="scale(0.1)">
      <path d="m 23927.1,3701.1 c 0,0 4232.9,6496 -261,8272.7 -1132,447.5 -1526.9,6712.8 -6554.9,3580.1 -1082.8,-674.5 -2423.4,-541.8 -3862.9,-409.1 -1219,112.4 -2508.9,224.7 -3773.21,-153.1 C 6942.87,14234.9 6884.66,12052 7204.82,11266.1 7554.66,10407.4 6159.58,9380.8 4730.81,8675.7 2489.64,7569.7 4137.68,3682.6 6254.93,3664.1 c 2117.24,-18.6 17672.17,37 17672.17,37" style="fill:#ebf3fa;fill-opacity:1;fill-rule:nonzero;stroke:none" id="path16" />
      <path d="m 4002.7,3604.6 h 20860 c 0,0 -2302.3,696 -3361.3,419.5 -1059,-276.6 -2879.1,65.4 -3418.9,424.4 -286.2,190.4 -637.7,33.3 -1009.8,-123.7 -329.7,-139.2 -675.5,-278.4 -1006.2,-175.7 -703.8,218.4 -992.7,1138.4 -1928.3,938.4 -935.5,-200 -536,-1317.7 -1165.8,-708.8 -629.7,608.8 -1899.5,951.8 -2194.6,210.3 -295.1,-741.5 -3555.1,152.7 -6775.1,-984.4" style="fill:#a8d29f;fill-opacity:1;fill-rule:nonzero;stroke:none" id="path18" />
      <path d="m 16887.3,11430.4 620.5,-7377.2 c 0,0 65,-447.2 -267.7,-448 -546.9,-1.3 -2722.1,0 -2722.1,0 0,0 411.6,93.1 406.6,302.5 -5.9,246.9 -725.2,7592.5 -725.2,7592.5 l 2687.9,-69.8" style="fill:#d86713;fill-opacity:1;fill-rule:nonzero;stroke:none" id="path20" />
      <path d="m 17059.3,3739 c -532.7,-6.8 -2610.2,-0.3 -2717.9,0 40.5,0 353,7.7 397.2,242.9 3.4,18.4 5.3,38.3 5.2,59.7 -0.3,46 -25.5,337.8 -66.6,782.6 -36.6,398.9 -86,920.6 -141.3,1498 -214.3,2237.8 -517.3,5311.8 -517.3,5311.8 l 2687.9,-69.8 440.9,-5242 86,-1023.1 77.4,-920.4 16.2,-191.8 c 0,0 75.8,-443.5 -267.7,-447.9" style="fill:#ee9849;fill-opacity:1;fill-rule:nonzero;stroke:none" id="path22" />
      <path d="M 23415.1,15444.7 21903.8,9374.2 21696.9,8542.8 20993,5715.4 H 7915.97 l 2594.43,9729.3 h 12904.7" style="fill:#f1a34f;fill-opacity:1;fill-rule:nonzero;stroke:none" id="path24" />
      <path d="m 23415.1,15444.8 209.5,-69.9 -2353.2,-9870.7 -278.4,211.1 2422.1,9729.5" style="fill:#ee9849;fill-opacity:1;fill-rule:nonzero;stroke:none" id="path26" />
      <path d="M 21271.4,5504.2 H 8274.9 l -358.89,211.1 H 20993 l 278.4,-211.1" style="fill:#d86713;fill-opacity:1;fill-rule:nonzero;stroke:none" id="path28" />
      <path d="m 13893.5,3602.4 h 2813.9 v 133.699 h -2813.9 z" style="fill:#f1a34f;fill-opacity:1;fill-rule:nonzero;stroke:none" id="path30" />
      <path d="m 17251,5508.4 -17.6,-209.3 -0.6,-7.7 c 0,0 -1827.9,-175.2 -2555.6,-467.2 -18.3,200 -39.9,430.9 -63.9,684.2 H 17251" style="fill:#d86713;fill-opacity:1;fill-rule:nonzero;stroke:none" id="path32" />
      <path d="m 16396.9,3736.1 h -607.1 c -689,0.6 -1387.2,2.7 -1448.4,2.9 40.5,0 353,7.7 397.2,242.9 44.7,-2.3 132.1,-5.8 252.9,-5.8 457.5,0 1395,49.9 2319.3,402.6 l 16.2,-191.8 c 0,0 7.1,-41.7 7.1,-99.6 0,-131.1 -36.6,-345.3 -274.8,-348.3 -137.7,-1.7 -378.9,-2.6 -662.4,-2.9" style="fill:#e58433;fill-opacity:1;fill-rule:nonzero;stroke:none" id="path34" />
      <path d="m 16113.7,3735.9 c -106,0 -214.9,0.1 -323.9,0.2 v 0 h 607.1 c -90.7,-0.1 -185.8,-0.2 -283.2,-0.2" style="fill:#e78b37;fill-opacity:1;fill-rule:nonzero;stroke:none" id="path36" />
      <path d="m 20976,5715.4 h -3608 v 0 h 3608 v 0" style="fill:#e3bb9e;fill-opacity:1;fill-rule:nonzero;stroke:none" id="path38" />
      <path d="m 17368,5715.4 h -169.6 v 0 h 169.6 v 0" style="fill:#d86713;fill-opacity:1;fill-rule:nonzero;stroke:none" id="path40" />
      <path d="m 17198.4,5715.4 h -625.1 v 0 h 625.1 v 0" style="fill:#e58433;fill-opacity:1;fill-rule:nonzero;stroke:none" id="path42" />
      <path d="m 20976,5715.4 h -4402.7 c 1861.6,591.4 2742.8,1456.5 3097.9,1910 h 1780.3 v 0 l -475.5,-1910" style="fill:#e78b37;fill-opacity:1;fill-rule:nonzero;stroke:none" id="path44" />
      <path d="m 23316.5,15316.1 -1865,-7690.7 H 8581.41 l 2089.99,7690.7 h 12645.1" style="fill:#d2e4ff;fill-opacity:1;fill-rule:nonzero;stroke:none" id="path46" />
      <path d="m 8422.28,7625.4 h 159.13 l -31.86,-117.3 -153.96,17.5 26.69,99.8" style="fill:#f1a34f;fill-opacity:1;fill-rule:nonzero;stroke:none" id="path48" />
      <path d="m 23436,15444.8 v -128.7 h -119.5 l 31.1,128.7 h 88.4" style="fill:#f1a34f;fill-opacity:1;fill-rule:nonzero;stroke:none" id="path50" />
      <path d="m 10777.8,8194.3 h 4796.4 l 1607.5,6447.6 H 12385.4 L 10777.8,8194.3" style="fill:#ffffff;fill-opacity:1;fill-rule:nonzero;stroke:none" id="path52" />
      <path d="m 15647.8,11670.2 h -3177.3 c -39.4,0 -63.6,32.2 -53.8,71.6 l 6.7,26.8 c 9.8,39.4 50.1,71.6 89.4,71.6 h 3177.4 c 39.4,0 63.6,-32.2 53.7,-71.6 l -6.7,-26.8 c -9.8,-39.4 -50,-71.6 -89.4,-71.6" style="fill:#b4cef6;fill-opacity:1;fill-rule:nonzero;stroke:none" id="path54" />
      <path d="m 15930.5,12803.9 h -3177.4 c -39.4,0 -63.6,32.3 -53.7,71.6 l 6.7,26.9 c 9.8,39.4 50,71.6 89.4,71.6 h 3177.4 c 39.3,0 63.5,-32.2 53.7,-71.6 l -6.7,-26.9 c -9.8,-39.3 -50,-71.6 -89.4,-71.6" style="fill:#b4cef6;fill-opacity:1;fill-rule:nonzero;stroke:none" id="path56" />
      <path d="m 15832.3,12410.1 h -3177.4 c -39.3,0 -63.5,32.2 -53.7,71.6 l 6.7,26.8 c 9.8,39.4 50.1,71.6 89.4,71.6 h 3177.4 c 39.3,0 63.5,-32.2 53.7,-71.6 l -6.7,-26.8 c -9.8,-39.4 -50,-71.6 -89.4,-71.6" style="fill:#b4cef6;fill-opacity:1;fill-rule:nonzero;stroke:none" id="path58" />
      <path d="m 15740,12040.1 h -3177.3 c -39.4,0 -63.6,32.2 -53.8,71.6 l 6.7,26.9 c 9.9,39.4 50.1,71.6 89.5,71.6 h 3177.3 c 39.4,0 63.6,-32.2 53.8,-71.6 l -6.7,-26.9 c -9.8,-39.4 -50.1,-71.6 -89.5,-71.6" style="fill:#b4cef6;fill-opacity:1;fill-rule:nonzero;stroke:none" id="path60" />
      <path d="m 15459.8,10916.2 h -3177.3 c -39.4,0 -63.6,32.2 -53.8,71.6 l 6.7,26.8 c 9.8,39.4 50.1,71.6 89.5,71.6 h 3177.3 c 39.4,0 63.6,-32.2 53.8,-71.6 l -6.7,-26.8 c -9.9,-39.4 -50.1,-71.6 -89.5,-71.6" style="fill:#b4cef6;fill-opacity:1;fill-rule:nonzero;stroke:none" id="path62" />
      <path d="m 15552,11286.1 h -3177.3 c -39.4,0 -63.6,32.3 -53.8,71.6 l 6.7,26.9 c 9.9,39.4 50.1,71.6 89.5,71.6 h 3177.3 c 39.4,0 63.6,-32.2 53.8,-71.6 l -6.7,-26.9 c -9.8,-39.3 -50.1,-71.6 -89.5,-71.6" style="fill:#b4cef6;fill-opacity:1;fill-rule:nonzero;stroke:none" id="path64" />
      <path d="M 12777.7,9753.6 H 12006 c -46.8,0 -75.5,38.2 -63.8,85 11.6,46.7 59.4,85 106.2,85 h 771.7 c 46.8,0 75.5,-38.3 63.9,-85 -11.7,-46.8 -59.5,-85 -106.3,-85" style="fill:#b4cef6;fill-opacity:1;fill-rule:nonzero;stroke:none" id="path66" />
      <path d="m 15141.9,9753.6 h -771.8 c -46.7,0 -75.4,38.2 -63.8,85 11.7,46.7 59.5,85 106.2,85 h 771.8 c 46.7,0 75.4,-38.3 63.8,-85 -11.7,-46.8 -59.5,-85 -106.2,-85" style="fill:#b4cef6;fill-opacity:1;fill-rule:nonzero;stroke:none" id="path68" />
      <path d="m 11679.7,9380.7 c -57.9,0 -116.7,-47.1 -131.2,-105 l -81.1,-325.4 c -7,-28.1 -2.4,-54.4 12.8,-73.9 14.6,-18.7 37.4,-29 64.3,-29 h 1125.4 c 57.8,0 116.7,47.1 131.1,105.1 l 81.1,325.4 c 7,28.1 2.5,54.3 -12.8,73.9 -14.6,18.7 -37.4,28.9 -64.2,28.9 z m 990.2,-542.3 h -1125.4 c -29.7,0 -55,11.5 -71.4,32.4 -17,21.8 -22.2,50.8 -14.5,81.7 l 81.2,325.4 c 15.4,61.7 78.1,111.9 139.9,111.9 h 1125.4 c 29.7,0 55,-11.5 71.3,-32.5 17.1,-21.8 22.2,-50.8 14.5,-81.6 l -81.1,-325.4 c -15.4,-61.7 -78.2,-111.9 -139.9,-111.9" style="fill:#476ba7;fill-opacity:1;fill-rule:nonzero;stroke:none" id="path70" />
      <path d="m 14047.8,9380.7 c -57.9,0 -116.7,-47.1 -131.1,-105 l -81.2,-325.4 c -7,-28.1 -2.4,-54.4 12.9,-73.9 14.6,-18.7 37.4,-29 64.2,-29 H 15038 c 57.9,0 116.7,47.1 131.1,105.1 l 81.2,325.4 c 7,28.1 2.4,54.3 -12.8,73.9 -14.6,18.7 -37.4,28.9 -64.3,28.9 z m 990.2,-542.3 h -1125.4 c -29.7,0 -55,11.5 -71.3,32.4 -17.1,21.8 -22.2,50.8 -14.5,81.7 l 81.1,325.4 c 15.4,61.7 78.2,111.9 139.9,111.9 h 1125.4 c 29.7,0 55,-11.5 71.4,-32.5 17,-21.8 22.1,-50.8 14.5,-81.6 l -81.2,-325.4 c -15.4,-61.7 -78.1,-111.9 -139.9,-111.9" style="fill:#476ba7;fill-opacity:1;fill-rule:nonzero;stroke:none" id="path72" />
      <path d="m 12984.4,13983.2 c 38.2,116.5 157.4,212 283.3,212 77.4,0 111.1,-29.3 136.9,-66.8 l -74.3,-62.1 c -22.2,28.7 -43.6,45.7 -90.4,45.7 -69.1,0 -137.8,-57.4 -161.2,-128.8 -23.1,-70.3 6.3,-128.9 76.6,-128.9 46.9,0 81.7,18.7 123.6,48 l 37.2,-61.5 c -57,-45.1 -111.9,-69.7 -191,-69.7 -120.7,0 -179.7,93.1 -140.7,212.1" style="fill:#f1a34f;fill-opacity:1;fill-rule:nonzero;stroke:none" id="path74" />
      <path d="m 13746.5,13983.2 c 23.1,70.2 -9.3,128.8 -81.9,128.8 -72.6,0 -141.9,-57.4 -165.3,-128.8 -23.1,-70.3 9.3,-128.9 81.9,-128.9 72.7,0 141.9,57.4 165.3,128.9 z m -341.5,0 c 38.2,116.5 161.5,212 288,212 126.6,0 186.4,-94.3 147.8,-212 -38.2,-116.6 -161.5,-212.1 -288,-212.1 -126.6,0 -186.4,94.3 -147.8,212.1" style="fill:#f1a34f;fill-opacity:1;fill-rule:nonzero;stroke:none" id="path76" />
      <path d="m 13988.3,14188.2 h 83.2 l 109.3,-252.5 82.9,252.5 h 89 l -134.5,-410.1 h -76.7 l -113.1,260.7 -85.5,-260.7 h -89.1 l 134.5,410.1" style="fill:#f1a34f;fill-opacity:1;fill-rule:nonzero;stroke:none" id="path78" />
      <path d="m 14519.3,14105 h -124.7 l 27.3,83.2 h 339.7 l -27.3,-83.2 h -124.8 l -107.2,-326.9 h -90.2 l 107.2,326.9" style="fill:#f1a34f;fill-opacity:1;fill-rule:nonzero;stroke:none" id="path80" />
      <path d="m 14947,13989 c 43.9,0 76.8,23.4 88.5,59.2 12.7,38.7 -7.7,58.6 -51.6,58.6 h -89.6 l -38.7,-117.8 z m -116.3,199.2 h 187.5 c 52.1,0 87.7,-14.7 105.9,-41.6 15.3,-22.8 17,-55.1 4,-94.9 -21.7,-66.2 -71.1,-107.8 -129.6,-127.1 l 52.1,-146.5 h -105.4 l -46,131.3 h -69.7 l -43,-131.3 h -90.2 l 134.4,410.1" style="fill:#f1a34f;fill-opacity:1;fill-rule:nonzero;stroke:none" id="path82" />
      <path d="m 15411.6,13949.8 -10.9,132.9 -98.1,-132.9 z m -15.8,241.3 h 83.2 l 40.3,-413 h -94.3 l -7.3,92 h -173.4 l -67.7,-92 h -92 l 311.2,413" style="fill:#f1a34f;fill-opacity:1;fill-rule:nonzero;stroke:none" id="path84" />
      <path d="m 15605.3,13983.2 c 38.3,116.5 157.4,212 283.4,212 77.3,0 111,-29.3 136.8,-66.8 l -74.2,-62.1 c -22.3,28.7 -43.6,45.7 -90.5,45.7 -69.1,0 -137.7,-57.4 -161.2,-128.8 -23,-70.3 6.4,-128.9 76.7,-128.9 46.8,0 81.7,18.7 123.5,48 l 37.2,-61.5 c -56.9,-45.1 -111.9,-69.7 -190.9,-69.7 -120.7,0 -179.8,93.1 -140.8,212.1" style="fill:#f1a34f;fill-opacity:1;fill-rule:nonzero;stroke:none" id="path86" />
      <path d="m 16191.3,14105 h -124.8 l 27.3,83.2 h 339.7 l -27.3,-83.2 h -124.7 l -107.2,-326.9 h -90.3 l 107.3,326.9" style="fill:#f1a34f;fill-opacity:1;fill-rule:nonzero;stroke:none" id="path88" />
      <path d="m 14449,9132.2 c -1.9,-9.4 -4.1,-18.8 -0.6,-25.6 -5.3,-4.1 -11,-7.8 -16.8,-11.2 -1.1,10.1 -0.5,20.7 1.9,31.5 7.8,9.2 15.1,18.7 21.9,28.4 -2.8,-8 -5,-15.9 -6.4,-23.1 z m 49.5,42.1 c -1.5,-4.7 -3.4,-9.4 -5.6,-14 -1.5,-3.2 -3.2,-6.3 -5,-9.4 2.6,7.9 6.1,15.8 10.6,23.4 z m 783.2,258.7 c -170.9,-70.7 -340.8,-147.9 -509,-231.6 6.7,18.9 12.7,37.8 18,56.7 4.2,15.1 -16.2,25.2 -28.9,8.5 -5.6,-7.4 -11.5,-14.4 -17.8,-21.2 4.2,13.6 -11.8,21.2 -25.6,11.3 -0.9,-0.7 -1.7,-1.4 -2.6,-2.1 6.7,18.2 -21.7,21 -32.3,3.3 l -15.8,-26.4 c -13.3,-15.9 -31.8,-28.1 -50.9,-34 -4,8.7 -6.6,18.1 -7.5,28.3 -0.7,7.8 -6.3,12 -13.2,12.1 -0.3,9.3 -8.6,14.7 -21,9.2 -15,-6.6 -28.2,-16.7 -38.8,-28.5 -8.4,15.7 -35.4,4.4 -50,-10.7 l 1.3,2.6 c 6.8,14.6 -5.9,31.3 -23,16.5 -30.5,-26.2 -52.6,-59.2 -63,-92.2 -10,-11.2 -20.7,-21.9 -32.2,-31.7 -5.6,-4.8 -31.6,-29 -37.6,-26.9 -5.7,2 -2.7,17 -0.2,27.5 1,1.3 1.9,2.6 2.8,3.9 21.7,30.2 126.3,172.3 52.6,171.1 -7.8,-0.2 -15.8,-5.3 -20.5,-12.5 -26.9,-41.5 -47.7,-85.1 -60.3,-128.7 -2.5,-8.3 -5.8,-19.1 -8.6,-30.4 -2.1,-2.9 -4.2,-5.8 -6.4,-8.6 -29.3,-38.4 -69.7,-93.7 -117.2,-112.6 -4.3,60.1 26,131.2 48.9,194.2 9.9,27.2 20.2,54.4 30.9,81.5 3.1,0.6 6.6,2.3 10.2,5.3 51.2,43.1 72.1,107 48.9,150 -6.7,12.4 -27.1,1.1 -32.9,-12 -35.3,-79.1 -67.4,-158.6 -96,-238.3 -25.3,-70.6 -54.1,-145.2 -43.5,-210.4 1.1,-6.9 9.1,-9.4 16.6,-7.8 54.1,11.8 101.2,59.9 139.1,107.9 2.8,-6.2 7.5,-10.9 14.9,-13.1 25.1,-7.5 59.5,20.5 84.2,43.9 0.5,-8.2 2,-16.1 4.4,-23.7 2.7,-8.3 11.3,-10.1 21.3,-6.1 23.4,9.3 45.2,24.4 63.7,42.5 24.4,7.6 45.8,27.7 63.6,51.1 11.3,9.9 21.8,20.3 31.4,31.4 2.1,-6.1 4.9,-11.6 8.8,-16 9.2,-10.6 32.4,-1 47.2,5.7 14.2,6.5 27.3,15.3 38.9,25.6 9.1,0.7 18.2,3.2 26.8,7.3 1.6,-2.6 3.7,-4.9 6.3,-6.7 9.3,-6.2 20.1,-3.7 30.9,3 -2.4,-6.9 -4.9,-13.8 -7.5,-20.6 -24.5,-12.4 -49,-24.9 -73.5,-37.5 -16.1,-8.4 -19.9,-33.1 -1.8,-31.7 22.5,1.7 44.9,3.4 67.4,5.1 10.2,0.8 18.2,7.2 22.6,17 3.9,9 7.7,18 11.4,27 175.7,88.1 353.3,169.2 532,243.1 22.9,9.4 15.3,38.8 -7.5,29.4" style="fill:#365da2;fill-opacity:1;fill-rule:nonzero;stroke:none" id="path90" />
      <path d="m 11808.6,9027 c 2.1,-7.9 -5.6,-18.4 -11.9,-25.7 -2.3,-2.7 -4.3,-5 -7.2,-7.1 -1.6,-1.2 -3.3,-2.2 -5.1,-3 l -1.6,-0.4 c -1.3,2.5 -3.6,3.6 -6.4,3.6 2.7,5.9 5.5,11.8 8.1,17.4 4,8.4 19.8,31.9 24.1,15.2 z m 327.6,510.7 c -60.5,-112.5 -94.4,-227.9 -143.6,-341.7 -24,-55.5 -52.1,-110.9 -88.8,-163.3 -25.6,-36.4 -81.2,-115.7 -128.3,-98.5 -11.8,4.3 -15.1,14.3 -11.2,28.1 0.8,3 1.8,6.1 2.9,9.2 6,-3.6 15.2,-2.1 24.5,2.9 15.2,8.1 28.1,24.3 34.8,38.7 7,15.3 5.9,31.2 -6.4,38 -10.9,6 -27,0.7 -38.4,-10.7 -12.6,-12.7 -18.4,-28.9 -24.6,-43.6 -7.6,-17.9 -17.8,-37.4 -16.6,-54.7 1.7,-25.9 29.7,-35.2 57.1,-29.1 33.3,7.3 62.8,36.3 85.2,62.8 26.4,31.2 49.6,64.5 69.8,98.4 41,69.1 70.1,140.8 97.4,211.9 31.6,82.3 61.2,165.1 104.7,246 7.1,13.2 -11.3,18.9 -18.5,5.6" style="fill:#365da2;fill-opacity:1;fill-rule:nonzero;stroke:none" id="path92" />
      <path d="m 12482.4,9188.7 c 1.3,2.1 7.3,8.9 6.3,4.3 -0.5,-2.4 -5.1,-7.1 -8.5,-10.6 0.2,2.1 1,4.3 2.2,6.3 z m -50.5,-0.5 c -7.8,-9.6 -16.9,-18.1 -26.9,-25.2 5.5,12 18.3,25.8 26.9,25.2 z m -183.9,-41.8 c -2.4,-10.8 -15.5,-25.3 -22.7,-32.3 -1.4,-1.4 -2.8,-2.7 -4.2,-4.1 7.8,12.4 17.5,24.5 26.9,36.4 z m -118.3,-55.4 c 10.5,20.2 25.5,38.8 43.9,54.4 7.7,-8.7 14.8,-20.5 4.2,-34.3 -5.9,-7.6 -15.2,-14 -22.7,-20 -8.7,-6.9 -17.4,-13.8 -26.1,-20.6 -2.3,-1.8 -4.6,-3.5 -6.9,-5.3 -3,6 4.3,19.3 7.6,25.8 z m 411.8,95.3 c -12.4,-6.5 -25.6,-13.9 -38.4,-15.9 -3.1,-0.6 -6.6,-0.7 -9.8,-0.3 9.1,9.1 17.5,19.7 18.9,29.8 2.3,16.3 -15.7,20 -30.9,11.7 -13.6,-7.5 -22.3,-22.7 -23.3,-35.2 -0.3,-4.4 0.4,-8.2 1.9,-11.6 -13.1,-9.4 -35.7,-22.4 -49.6,-19.9 17.7,12.2 33.5,27.6 45.6,45.1 2.4,3.3 2.5,7.9 0.7,10.2 -7.7,10.1 -23.2,10.8 -38.4,3 -16.4,-8.4 -26.7,-24.7 -33,-39.7 -2.2,-5 -3.6,-10 -4.2,-14.5 -16.2,-7.4 -33.1,-11.3 -48.8,-11 v 0.2 c 5.1,4.8 10.1,9.6 15,14.5 7.4,7.4 3,14.9 -3.8,15.8 -15.5,2.1 -27,-11.1 -31.4,-24.5 -23.9,-21.2 -49.9,-40.2 -77.3,-56 -6.8,-3.9 -16.1,-11.9 -20.7,-6.8 11.2,8.3 21.8,17.6 31.4,27.7 18.6,19.6 37,54.6 15,66.7 -3.9,2.2 -11.4,1.8 -15.6,-3.8 -9.7,-12.8 -19.4,-25.6 -29,-38.5 -8.5,-11.2 -17.2,-22.3 -22.3,-34.6 -1.7,-3.9 -2.7,-8 -3.2,-12 -9.9,-6.2 -20.2,-11.5 -30.6,-15.9 -0.9,-0.3 -1.8,-0.7 -2.7,-1.1 5.7,4.6 11.4,9.1 17.1,13.7 15.9,13 30.5,28.3 31.3,46.4 0.8,16.9 -10,28.8 -20.2,38.9 -2.7,2.7 -9.3,1.4 -13.3,-1.7 -30.9,-23.5 -56.1,-55.1 -68.7,-88.2 -4,-10.6 -5.5,-21.6 -1,-28.9 -27.5,-21 -55.4,-41.5 -83.5,-61.5 -3,-2.2 -10.3,-8.8 -13.2,-7.8 -2.7,0.9 -1.6,7.3 -1.6,10.2 0,7.8 0.4,15.7 1.3,23.7 2,17.3 6.5,35.1 12.9,52.8 5.6,15.5 12.8,30.8 21.4,45.7 3.3,-1.5 7.7,-1.2 11.8,2.2 21.2,17.2 31.7,39.8 29.7,61 -0.7,7.4 -12.6,6.3 -18.2,0 -52.4,-59.6 -83.7,-133.4 -80.9,-197.6 0.6,-14.1 7.1,-26 26,-18.1 8.7,3.6 16.8,10.2 24.6,15.7 10.3,7.4 20.6,14.8 30.8,22.2 19.1,14.1 38.3,28.3 57.2,42.8 10.6,-0.3 22.9,3.6 33.9,7.6 13.3,4.8 26.4,11.2 39,18.7 3.7,-6.6 10.4,-10.8 20.5,-9.8 10.3,1.1 24.6,11.5 34.3,17.4 11.4,6.8 22.7,14.1 33.6,22 10.6,7.6 21,15.6 31,24 2.3,-3.2 6.3,-4.1 13.2,-4.3 9.2,-0.3 19.1,0.9 28.9,3.1 10.5,2.4 21,6.2 31.1,11 1.4,-1.4 3.1,-2.6 5.1,-3.5 11.6,-5.6 27.5,-3 42.2,2.6 13.8,5.2 27.4,12.9 39.7,22.3 3.6,-1.6 7.5,-2.7 11.6,-3.1 19.8,-2.2 41.5,8.3 61.6,19 13.7,7.2 9.2,25.4 -4.7,18.1" style="fill:#365da2;fill-opacity:1;fill-rule:nonzero;stroke:none" id="path94" />
      <path d="m 17506,11554.7 h 2296.6 l 769.7,3087.2 H 18275.7 L 17506,11554.7" style="fill:#ffffff;fill-opacity:1;fill-rule:nonzero;stroke:none" id="path96" />
      <path d="m 19936.7,13768.2 h -1521.3 c -18.9,0 -30.4,15.4 -25.7,34.3 l 3.2,12.8 c 4.7,18.9 23.9,34.3 42.8,34.3 H 19957 c 18.9,0 30.5,-15.4 25.8,-34.3 l -3.3,-12.8 c -4.7,-18.9 -23.9,-34.3 -42.8,-34.3" style="fill:#b4cef6;fill-opacity:1;fill-rule:nonzero;stroke:none" id="path98" />
      <path d="m 20072.1,14311 h -1521.4 c -18.8,0 -30.4,15.5 -25.7,34.3 l 3.2,12.9 c 4.7,18.8 24,34.3 42.8,34.3 h 1521.4 c 18.8,0 30.4,-15.5 25.7,-34.3 l -3.2,-12.9 c -4.7,-18.8 -24,-34.3 -42.8,-34.3" style="fill:#b4cef6;fill-opacity:1;fill-rule:nonzero;stroke:none" id="path100" />
      <path d="m 20025,14122.5 h -1521.3 c -18.8,0 -30.4,15.4 -25.7,34.3 l 3.2,12.8 c 4.7,18.9 24,34.3 42.8,34.3 h 1521.3 c 18.9,0 30.5,-15.4 25.8,-34.3 l -3.2,-12.8 c -4.7,-18.9 -24,-34.3 -42.9,-34.3" style="fill:#b4cef6;fill-opacity:1;fill-rule:nonzero;stroke:none" id="path102" />
      <path d="m 19980.9,13945.3 h -1521.3 c -18.9,0 -30.5,15.5 -25.8,34.3 l 3.2,12.9 c 4.7,18.8 24,34.3 42.9,34.3 h 1521.3 c 18.8,0 30.4,-15.5 25.7,-34.3 l -3.2,-12.9 c -4.7,-18.8 -24,-34.3 -42.8,-34.3" style="fill:#b4cef6;fill-opacity:1;fill-rule:nonzero;stroke:none" id="path104" />
      <path d="m 19846.7,13407.2 h -1521.3 c -18.9,0 -30.5,15.4 -25.7,34.3 l 3.2,12.8 c 4.6,18.9 23.9,34.3 42.8,34.3 H 19867 c 18.9,0 30.4,-15.4 25.7,-34.3 l -3.2,-12.8 c -4.7,-18.9 -23.9,-34.3 -42.8,-34.3" style="fill:#b4cef6;fill-opacity:1;fill-rule:nonzero;stroke:none" id="path106" />
      <path d="m 19890.9,13584.3 h -1521.3 c -18.9,0 -30.5,15.5 -25.8,34.3 l 3.2,12.9 c 4.7,18.8 24,34.3 42.8,34.3 h 1521.4 c 18.8,0 30.4,-15.5 25.7,-34.3 l -3.2,-12.9 c -4.7,-18.8 -24,-34.3 -42.8,-34.3" style="fill:#b4cef6;fill-opacity:1;fill-rule:nonzero;stroke:none" id="path108" />
      <path d="m 18463.6,12301.3 h -369.5 c -22.4,0 -36.1,18.4 -30.5,40.7 5.5,22.4 28.4,40.8 50.8,40.8 h 369.5 c 22.4,0 36.2,-18.4 30.6,-40.8 -5.6,-22.3 -28.5,-40.7 -50.9,-40.7" style="fill:#b4cef6;fill-opacity:1;fill-rule:nonzero;stroke:none" id="path110" />
      <path d="m 19595.6,12301.3 h -369.5 c -22.4,0 -36.2,18.4 -30.6,40.7 5.6,22.4 28.5,40.8 50.9,40.8 h 369.5 c 22.4,0 36.1,-18.4 30.5,-40.8 -5.6,-22.3 -28.4,-40.7 -50.8,-40.7" style="fill:#b4cef6;fill-opacity:1;fill-rule:nonzero;stroke:none" id="path112" />
      <path d="m 17937.9,12122.8 c -27.7,0 -55.9,-22.5 -62.8,-50.3 l -38.9,-155.8 c -3.3,-13.4 -1.1,-26 6.2,-35.4 7,-8.9 17.9,-13.8 30.7,-13.8 h 538.9 c 27.7,0 55.8,22.5 62.8,50.3 l 38.8,155.8 c 3.4,13.4 1.2,26 -6.1,35.3 -7,9 -17.9,13.9 -30.8,13.9 z m 474.1,-259.7 h -538.9 c -14.2,0 -26.3,5.5 -34.1,15.6 -8.2,10.4 -10.7,24.3 -7,39.1 l 38.9,155.8 c 7.3,29.5 37.4,53.6 67,53.6 h 538.8 c 14.2,0 26.3,-5.6 34.2,-15.6 8.1,-10.4 10.6,-24.3 6.9,-39.1 l -38.8,-155.8 c -7.4,-29.5 -37.5,-53.6 -67,-53.6" style="fill:#476ba7;fill-opacity:1;fill-rule:nonzero;stroke:none" id="path114" />
      <path d="m 19071.7,12122.8 c -27.7,0 -55.8,-22.5 -62.8,-50.3 l -38.8,-155.8 c -3.3,-13.4 -1.2,-26 6.1,-35.4 7,-8.9 17.9,-13.8 30.8,-13.8 h 538.8 c 27.7,0 55.9,22.5 62.8,50.3 l 38.9,155.8 c 3.3,13.4 1.1,26 -6.2,35.3 -7,9 -17.9,13.9 -30.7,13.9 z m 474.1,-259.7 H 19007 c -14.2,0 -26.3,5.5 -34.2,15.6 -8.1,10.4 -10.6,24.3 -6.9,39.1 l 38.8,155.8 c 7.4,29.5 37.5,53.6 67,53.6 h 538.9 c 14.2,0 26.3,-5.6 34.1,-15.6 8.2,-10.4 10.7,-24.3 7,-39.1 l -38.9,-155.8 c -7.3,-29.5 -37.4,-53.6 -67,-53.6" style="fill:#476ba7;fill-opacity:1;fill-rule:nonzero;stroke:none" id="path116" />
      <path d="m 19263.8,12003.8 c -0.9,-4.5 -1.9,-9 -0.2,-12.2 -2.6,-2 -5.3,-3.8 -8.1,-5.4 -0.6,4.8 -0.2,9.9 0.9,15.1 3.7,4.4 7.2,8.9 10.5,13.6 -1.4,-3.9 -2.4,-7.6 -3.1,-11.1 z m 23.7,20.2 c -0.7,-2.3 -1.6,-4.5 -2.6,-6.7 -0.8,-1.6 -1.6,-3.1 -2.4,-4.5 1.2,3.8 2.9,7.5 5,11.2 z m 375,123.8 c -81.8,-33.8 -163.1,-70.8 -243.7,-110.8 3.2,9 6.1,18 8.6,27.1 2.1,7.2 -7.8,12.1 -13.8,4.1 -2.7,-3.6 -5.5,-6.9 -8.5,-10.2 2,6.6 -5.7,10.2 -12.3,5.4 l -1.2,-1 c 3.2,8.8 -10.4,10.1 -15.5,1.6 l -7.5,-12.6 c -6.4,-7.7 -15.3,-13.5 -24.4,-16.3 -1.9,4.1 -3.2,8.6 -3.6,13.6 -0.4,3.7 -3.1,5.7 -6.3,5.7 -0.2,4.5 -4.2,7.1 -10.1,4.5 -7.2,-3.2 -13.5,-8.1 -18.6,-13.7 -4,7.5 -17,2.1 -23.9,-5.1 l 0.6,1.2 c 3.3,7 -2.8,15 -11,7.9 -14.6,-12.5 -25.2,-28.4 -30.2,-44.1 -4.8,-5.4 -9.9,-10.5 -15.4,-15.2 -2.7,-2.3 -15.1,-13.9 -18,-12.9 -2.7,0.9 -1.3,8.1 -0.1,13.2 l 1.4,1.9 c 10.4,14.4 60.4,82.5 25.1,81.8 -3.7,0 -7.5,-2.5 -9.8,-5.9 -12.9,-19.9 -22.8,-40.8 -28.9,-61.6 -1.1,-4 -2.7,-9.2 -4,-14.6 -1.1,-1.4 -2.1,-2.8 -3.1,-4.1 -14,-18.4 -33.4,-44.9 -56.1,-53.9 -2.1,28.7 12.4,62.8 23.4,93 4.7,13 9.6,26 14.8,39 1.5,0.3 3.1,1.1 4.8,2.5 24.6,20.6 34.6,51.3 23.5,71.8 -3.2,6 -13,0.6 -15.8,-5.7 -16.9,-37.9 -32.3,-76 -45.9,-114.1 -12.2,-33.8 -26,-69.5 -20.9,-100.7 0.5,-3.3 4.4,-4.6 8,-3.8 25.9,5.6 48.4,28.7 66.6,51.7 1.3,-3 3.5,-5.2 7.1,-6.3 12,-3.6 28.5,9.8 40.3,21 0.3,-3.9 1,-7.7 2.1,-11.3 1.3,-4 5.4,-4.9 10.2,-3 11.2,4.5 21.7,11.7 30.5,20.4 11.7,3.6 21.9,13.3 30.5,24.5 5.4,4.7 10.4,9.7 15,15 1,-2.9 2.4,-5.6 4.2,-7.7 4.4,-5 15.5,-0.4 22.6,2.8 6.8,3.1 13.1,7.3 18.6,12.2 4.4,0.4 8.7,1.6 12.9,3.5 0.7,-1.2 1.7,-2.3 3,-3.2 4.4,-2.9 9.6,-1.7 14.8,1.4 -1.2,-3.2 -2.4,-6.5 -3.6,-9.8 -11.8,-5.9 -23.5,-11.9 -35.2,-18 -7.7,-4 -9.5,-15.8 -0.9,-15.1 10.8,0.8 21.5,1.6 32.3,2.4 4.9,0.4 8.7,3.5 10.8,8.1 1.9,4.4 3.7,8.7 5.5,13 84.1,42.2 169.1,81 254.7,116.4 11,4.5 7.3,18.5 -3.6,14" style="fill:#365da2;fill-opacity:1;fill-rule:nonzero;stroke:none" id="path118" />
      <path d="m 17999.6,11953.5 c 1,-3.8 -2.7,-8.8 -5.7,-12.3 -1.1,-1.3 -2.1,-2.4 -3.4,-3.4 l -2.5,-1.5 -0.8,-0.2 c -0.6,1.2 -1.7,1.7 -3,1.7 1.3,2.9 2.6,5.7 3.9,8.4 1.9,4 9.4,15.2 11.5,7.3 z m 156.9,244.5 c -29,-53.9 -45.3,-109.1 -68.8,-163.6 -11.5,-26.6 -25,-53.1 -42.5,-78.2 -12.3,-17.5 -38.9,-55.4 -61.5,-47.2 -5.6,2.1 -7.2,6.9 -5.3,13.4 0.4,1.5 0.9,3 1.4,4.5 2.8,-1.7 7.3,-1 11.7,1.4 7.3,3.9 13.4,11.6 16.6,18.5 3.4,7.3 2.9,15 -3,18.2 -5.2,2.9 -12.9,0.3 -18.4,-5.1 -6,-6.1 -8.8,-13.9 -11.8,-20.9 -3.6,-8.6 -8.5,-17.9 -7.9,-26.2 0.8,-12.4 14.2,-16.8 27.3,-14 16,3.6 30.1,17.5 40.8,30.1 12.7,15 23.8,30.9 33.4,47.2 19.7,33 33.6,67.4 46.7,101.4 15.1,39.4 29.3,79.1 50.1,117.8 3.4,6.3 -5.4,9 -8.8,2.7" style="fill:#365da2;fill-opacity:1;fill-rule:nonzero;stroke:none" id="path120" />
      <path d="m 18322.2,12030.9 c 0.6,1 3.5,4.2 3,2 -0.2,-1.1 -2.4,-3.4 -4.1,-5 0.2,1 0.5,2 1.1,3 z m -24.2,-0.3 c -3.7,-4.6 -8.1,-8.6 -12.8,-12.1 2.6,5.8 8.7,12.4 12.8,12.1 z m -88,-20 c -1.2,-5.1 -7.4,-12.1 -10.9,-15.5 l -2,-1.9 c 3.7,5.9 8.4,11.7 12.9,17.4 z m -56.6,-26.5 c 5,9.7 12.2,18.6 20.9,26 3.8,-4.1 7.1,-9.8 2.1,-16.4 -2.9,-3.6 -7.3,-6.7 -10.9,-9.5 -4.2,-3.4 -8.3,-6.6 -12.5,-9.9 -1.1,-0.9 -2.2,-1.7 -3.3,-2.6 -1.4,2.9 2.1,9.3 3.7,12.4 z m 197.1,45.6 c -5.9,-3.1 -12.2,-6.6 -18.4,-7.6 -1.5,-0.2 -3.1,-0.3 -4.7,-0.2 4.4,4.4 8.4,9.5 9.1,14.3 1.1,7.8 -7.5,9.6 -14.8,5.6 -6.5,-3.6 -10.7,-10.8 -11.2,-16.8 -0.1,-2.1 0.2,-4 0.9,-5.6 -6.2,-4.5 -17,-10.7 -23.7,-9.5 8.5,5.8 16,13.2 21.8,21.6 1.2,1.6 1.2,3.8 0.4,4.9 -3.7,4.8 -11.2,5.2 -18.4,1.4 -7.9,-4 -12.8,-11.8 -15.8,-19 -1.1,-2.4 -1.8,-4.8 -2.1,-7 -7.7,-3.5 -15.8,-5.4 -23.3,-5.2 v 0.1 c 2.4,2.3 4.8,4.6 7.2,6.9 3.5,3.6 1.4,7.2 -1.9,7.6 -7.4,1 -12.8,-5.3 -15,-11.7 -11.4,-10.2 -23.9,-19.3 -37,-26.8 -3.3,-1.9 -7.7,-5.7 -9.9,-3.3 5.4,4 10.4,8.4 15,13.3 8.9,9.3 17.7,26.1 7.2,31.9 -1.9,1 -5.5,0.9 -7.5,-1.8 -4.6,-6.1 -9.2,-12.3 -13.9,-18.4 -4,-5.4 -8.2,-10.7 -10.6,-16.6 -0.8,-1.9 -1.3,-3.8 -1.5,-5.8 -4.8,-2.9 -9.7,-5.5 -14.7,-7.6 l -1.3,-0.5 c 2.8,2.2 5.5,4.4 8.2,6.6 7.6,6.2 14.6,13.5 15,22.2 0.4,8.1 -4.8,13.8 -9.7,18.6 -1.3,1.3 -4.4,0.6 -6.3,-0.8 -14.8,-11.3 -26.9,-26.4 -33,-42.3 -1.9,-5 -2.6,-10.3 -0.4,-13.8 -13.2,-10.1 -26.5,-19.9 -40,-29.5 -1.5,-1 -4.9,-4.1 -6.3,-3.7 -1.3,0.5 -0.8,3.5 -0.8,4.9 0,3.7 0.2,7.5 0.6,11.3 1,8.4 3.1,16.9 6.2,25.3 2.7,7.5 6.1,14.8 10.3,21.9 1.5,-0.7 3.6,-0.5 5.6,1.1 10.1,8.2 15.2,19.1 14.2,29.2 -0.3,3.5 -6,3 -8.7,0 -25.1,-28.5 -40.1,-63.9 -38.7,-94.6 0.3,-6.8 3.3,-12.5 12.4,-8.7 4.2,1.7 8.1,4.9 11.8,7.5 4.9,3.6 9.8,7.1 14.7,10.7 9.2,6.7 18.4,13.5 27.4,20.4 5.1,-0.1 11,1.8 16.2,3.7 6.4,2.3 12.7,5.3 18.7,8.9 1.8,-3.1 5,-5.1 9.9,-4.6 4.9,0.5 11.7,5.5 16.4,8.3 5.4,3.3 10.8,6.8 16.1,10.5 5.1,3.6 10,7.5 14.8,11.5 1.1,-1.5 3,-2 6.3,-2.1 4.4,-0.1 9.2,0.5 13.8,1.5 5.1,1.2 10.1,3 15,5.3 0.6,-0.6 1.4,-1.2 2.4,-1.7 5.5,-2.7 13.2,-1.4 20.2,1.2 6.6,2.6 13.1,6.2 19,10.7 1.7,-0.7 3.6,-1.2 5.6,-1.5 9.4,-1 19.8,4 29.4,9.1 6.6,3.5 4.4,12.2 -2.2,8.7" style="fill:#365da2;fill-opacity:1;fill-rule:nonzero;stroke:none" id="path122" />
      <path d="m 16641.4,8156 h 2296.5 l 769.7,3087.2 H 17411.1 L 16641.4,8156" style="fill:#ffffff;fill-opacity:1;fill-rule:nonzero;stroke:none" id="path124" />
      <path d="m 19117.9,10341.1 h -1521.4 c -18.8,0 -30.4,15.4 -25.7,34.3 l 3.2,12.9 c 4.7,18.8 24,34.2 42.8,34.2 h 1521.4 c 18.8,0 30.4,-15.4 25.7,-34.2 l -3.2,-12.9 c -4.7,-18.9 -24,-34.3 -42.8,-34.3" style="fill:#b4cef6;fill-opacity:1;fill-rule:nonzero;stroke:none" id="path126" />
      <path d="m 19253.2,10884 h -1521.3 c -18.9,0 -30.4,15.4 -25.7,34.3 l 3.2,12.8 c 4.7,18.9 23.9,34.3 42.8,34.3 h 1521.3 c 18.9,0 30.5,-15.4 25.7,-34.3 l -3.2,-12.8 c -4.7,-18.9 -23.9,-34.3 -42.8,-34.3" style="fill:#b4cef6;fill-opacity:1;fill-rule:nonzero;stroke:none" id="path128" />
      <path d="m 19206.2,10695.4 h -1521.3 c -18.9,0 -30.5,15.4 -25.8,34.3 l 3.2,12.8 c 4.7,18.9 24,34.3 42.9,34.3 h 1521.3 c 18.8,0 30.4,-15.4 25.7,-34.3 l -3.2,-12.8 c -4.7,-18.9 -24,-34.3 -42.8,-34.3" style="fill:#b4cef6;fill-opacity:1;fill-rule:nonzero;stroke:none" id="path130" />
      <path d="m 19162,10518.3 h -1521.3 c -18.9,0 -30.4,15.4 -25.7,34.3 l 3.2,12.8 c 4.7,18.9 23.9,34.3 42.8,34.3 h 1521.3 c 18.9,0 30.5,-15.4 25.8,-34.3 l -3.2,-12.8 c -4.7,-18.9 -24,-34.3 -42.9,-34.3" style="fill:#b4cef6;fill-opacity:1;fill-rule:nonzero;stroke:none" id="path132" />
      <path d="m 19027.9,9980.1 h -1521.4 c -18.8,0 -30.4,15.4 -25.7,34.3 l 3.2,12.9 c 4.7,18.8 24,34.2 42.8,34.2 h 1521.3 c 18.9,0 30.5,-15.4 25.8,-34.2 l -3.2,-12.9 c -4.7,-18.9 -24,-34.3 -42.8,-34.3" style="fill:#b4cef6;fill-opacity:1;fill-rule:nonzero;stroke:none" id="path134" />
      <path d="m 19072,10157.3 h -1521.3 c -18.9,0 -30.4,15.4 -25.7,34.2 l 3.2,12.9 c 4.7,18.8 23.9,34.3 42.8,34.3 h 1521.3 c 18.9,0 30.5,-15.5 25.8,-34.3 l -3.2,-12.9 c -4.8,-18.8 -24,-34.2 -42.9,-34.2" style="fill:#b4cef6;fill-opacity:1;fill-rule:nonzero;stroke:none" id="path136" />
      <path d="m 17599,8902.6 h -369.5 c -22.4,0 -36.2,18.3 -30.6,40.7 5.6,22.4 28.5,40.7 50.9,40.7 h 369.5 c 22.4,0 36.1,-18.3 30.6,-40.7 -5.6,-22.4 -28.5,-40.7 -50.9,-40.7" style="fill:#b4cef6;fill-opacity:1;fill-rule:nonzero;stroke:none" id="path138" />
      <path d="m 18730.9,8902.6 h -369.5 c -22.3,0 -36.1,18.3 -30.5,40.7 5.6,22.4 28.5,40.7 50.9,40.7 h 369.4 c 22.4,0 36.2,-18.3 30.6,-40.7 -5.6,-22.4 -28.5,-40.7 -50.9,-40.7" style="fill:#b4cef6;fill-opacity:1;fill-rule:nonzero;stroke:none" id="path140" />
      <path d="m 17073.2,8724.1 c -27.7,0 -55.8,-22.6 -62.7,-50.3 l -38.9,-155.8 c -3.4,-13.5 -1.2,-26 6.1,-35.4 7,-8.9 18,-13.9 30.8,-13.9 h 538.8 c 27.8,0 55.9,22.6 62.8,50.3 l 38.9,155.9 c 3.3,13.4 1.2,26 -6.2,35.3 -6.9,9 -17.9,13.9 -30.7,13.9 z m 474.1,-259.7 h -538.8 c -14.2,0 -26.3,5.5 -34.2,15.5 -8.1,10.5 -10.6,24.4 -6.9,39.1 l 38.9,155.9 c 7.3,29.5 37.4,53.5 66.9,53.5 h 538.9 c 14.2,0 26.3,-5.5 34.2,-15.5 8.1,-10.4 10.6,-24.3 6.9,-39.1 l -38.9,-155.8 c -7.3,-29.6 -37.4,-53.6 -67,-53.6" style="fill:#476ba7;fill-opacity:1;fill-rule:nonzero;stroke:none" id="path142" />
      <path d="m 18207.1,8724.1 c -27.7,0 -55.9,-22.6 -62.8,-50.3 l -38.8,-155.8 c -3.4,-13.5 -1.2,-26 6.1,-35.4 7,-8.9 17.9,-13.9 30.8,-13.9 h 538.8 c 27.7,0 55.9,22.6 62.8,50.3 l 38.9,155.9 c 3.3,13.4 1.1,26 -6.2,35.3 -7,9 -17.9,13.9 -30.7,13.9 z m 474.1,-259.7 h -538.8 c -14.2,0 -26.4,5.5 -34.2,15.5 -8.1,10.5 -10.6,24.4 -6.9,39.1 l 38.8,155.9 c 7.4,29.5 37.4,53.5 67,53.5 h 538.9 c 14.2,0 26.3,-5.5 34.1,-15.5 8.2,-10.4 10.6,-24.3 7,-39.1 l -38.9,-155.8 c -7.4,-29.6 -37.4,-53.6 -67,-53.6" style="fill:#476ba7;fill-opacity:1;fill-rule:nonzero;stroke:none" id="path144" />
      <path d="m 18399.2,8605.1 c -0.9,-4.5 -1.9,-9 -0.3,-12.3 -2.5,-1.9 -5.2,-3.7 -8,-5.3 -0.6,4.8 -0.3,9.9 0.9,15 3.7,4.5 7.2,9 10.5,13.6 -1.4,-3.8 -2.4,-7.5 -3.1,-11 z m 23.7,20.2 c -0.7,-2.3 -1.6,-4.6 -2.7,-6.8 -0.7,-1.5 -1.5,-3 -2.4,-4.5 1.3,3.8 2.9,7.6 5.1,11.3 z m 375,123.8 c -81.8,-33.8 -163.2,-70.8 -243.7,-110.9 3.2,9.1 6.1,18.1 8.6,27.2 2,7.2 -7.8,12.1 -13.8,4.1 -2.7,-3.6 -5.6,-7 -8.6,-10.2 2.1,6.5 -5.6,10.1 -12.2,5.4 l -1.2,-1 c 3.2,8.7 -10.4,10.1 -15.5,1.6 l -7.6,-12.6 c -6.4,-7.7 -15.2,-13.5 -24.4,-16.3 -1.9,4.1 -3.1,8.6 -3.6,13.5 -0.3,3.8 -3,5.8 -6.2,5.8 -0.2,4.4 -4.2,7.1 -10.1,4.4 -7.2,-3.2 -13.5,-8 -18.6,-13.6 -4,7.5 -17,2.1 -23.9,-5.1 l 0.6,1.2 c 3.2,7 -2.8,15 -11,7.9 -14.6,-12.6 -25.2,-28.4 -30.2,-44.1 -4.8,-5.4 -9.9,-10.5 -15.4,-15.3 -2.7,-2.3 -15.2,-13.8 -18,-12.8 -2.8,0.9 -1.3,8.1 -0.1,13.2 l 1.3,1.8 c 10.4,14.5 60.5,82.5 25.2,81.9 -3.7,0 -7.5,-2.5 -9.8,-5.9 -12.9,-19.9 -22.8,-40.8 -28.9,-61.6 -1.1,-4.1 -2.8,-9.2 -4.1,-14.6 -1,-1.4 -2,-2.8 -3.1,-4.1 -14,-18.4 -33.3,-44.9 -56,-54 -2.1,28.8 12.4,62.9 23.3,93 4.8,13 9.7,26.1 14.8,39.1 1.5,0.3 3.2,1 4.9,2.5 24.5,20.6 34.6,51.2 23.5,71.8 -3.2,6 -13,0.6 -15.8,-5.7 -16.9,-37.9 -32.3,-76 -46,-114.1 -12.1,-33.8 -25.9,-69.6 -20.8,-100.8 0.5,-3.3 4.4,-4.5 8,-3.7 25.8,5.6 48.4,28.7 66.6,51.7 1.3,-3 3.5,-5.3 7.1,-6.3 12,-3.6 28.5,9.8 40.3,21 0.2,-3.9 0.9,-7.7 2.1,-11.4 1.3,-3.9 5.4,-4.8 10.2,-2.9 11.2,4.5 21.7,11.7 30.5,20.4 11.7,3.6 21.9,13.2 30.5,24.5 5.4,4.7 10.4,9.7 15,15 1,-2.9 2.3,-5.6 4.2,-7.7 4.4,-5 15.5,-0.5 22.6,2.8 6.8,3.1 13.1,7.3 18.6,12.2 4.4,0.3 8.7,1.6 12.8,3.5 0.8,-1.2 1.8,-2.3 3.1,-3.2 4.4,-2.9 9.6,-1.8 14.8,1.4 -1.2,-3.3 -2.4,-6.6 -3.6,-9.8 -11.8,-6 -23.5,-11.9 -35.2,-18 -7.7,-4 -9.6,-15.8 -0.9,-15.2 10.8,0.9 21.5,1.7 32.3,2.5 4.9,0.4 8.7,3.4 10.8,8.1 1.9,4.3 3.7,8.7 5.5,13 84.1,42.1 169.1,81 254.7,116.3 10.9,4.6 7.3,18.6 -3.6,14.1" style="fill:#365da2;fill-opacity:1;fill-rule:nonzero;stroke:none" id="path146" />
      <path d="m 17135,8554.7 c 1,-3.8 -2.7,-8.8 -5.7,-12.3 -1.1,-1.2 -2.1,-2.3 -3.5,-3.4 l -2.4,-1.4 -0.8,-0.2 c -0.6,1.2 -1.7,1.7 -3,1.7 1.2,2.9 2.6,5.7 3.8,8.4 1.9,4 9.5,15.2 11.6,7.2 z m 156.8,244.6 c -28.9,-53.9 -45.2,-109.2 -68.7,-163.7 -11.5,-26.5 -25,-53 -42.6,-78.1 -12.2,-17.5 -38.8,-55.4 -61.4,-47.2 -5.6,2 -7.2,6.9 -5.4,13.4 0.5,1.5 0.9,3 1.5,4.5 2.8,-1.7 7.2,-1 11.7,1.3 7.2,4 13.4,11.7 16.6,18.6 3.4,7.3 2.9,14.9 -3,18.2 -5.2,2.9 -13,0.3 -18.4,-5.2 -6.1,-6 -8.8,-13.8 -11.8,-20.8 -3.6,-8.6 -8.5,-17.9 -7.9,-26.2 0.8,-12.4 14.2,-16.9 27.3,-14 15.9,3.5 30.1,17.5 40.8,30.1 12.6,15 23.7,30.9 33.4,47.1 19.7,33.1 33.6,67.5 46.6,101.5 15.2,39.4 29.3,79 50.2,117.8 3.4,6.3 -5.4,9 -8.9,2.7" style="fill:#365da2;fill-opacity:1;fill-rule:nonzero;stroke:none" id="path148" />
      <path d="m 17457.6,8632.2 c 0.6,1 3.5,4.2 3,2 -0.2,-1.2 -2.4,-3.4 -4.1,-5.1 0.1,1 0.5,2.1 1.1,3.1 z m -24.2,-0.3 c -3.7,-4.6 -8.1,-8.7 -12.9,-12.1 2.7,5.8 8.8,12.4 12.9,12.1 z m -88,-20 c -1.2,-5.2 -7.5,-12.1 -10.9,-15.5 l -2,-1.9 c 3.7,5.9 8.3,11.7 12.9,17.4 z m -56.7,-26.5 c 5,9.7 12.2,18.5 21,26 3.7,-4.1 7.1,-9.8 2,-16.4 -2.8,-3.6 -7.2,-6.7 -10.8,-9.6 -4.2,-3.3 -8.3,-6.6 -12.5,-9.8 -1.1,-0.9 -2.2,-1.7 -3.3,-2.6 -1.5,2.9 2.1,9.3 3.6,12.4 z m 197.2,45.6 c -5.9,-3.1 -12.2,-6.6 -18.4,-7.6 -1.5,-0.3 -3.2,-0.3 -4.7,-0.2 4.3,4.4 8.4,9.5 9.1,14.3 1.1,7.8 -7.5,9.6 -14.8,5.6 -6.5,-3.6 -10.7,-10.8 -11.2,-16.8 -0.1,-2.1 0.2,-4 0.9,-5.6 -6.3,-4.5 -17.1,-10.7 -23.7,-9.5 8.4,5.8 16,13.2 21.8,21.6 1.1,1.6 1.2,3.8 0.3,4.9 -3.7,4.8 -11.1,5.1 -18.4,1.4 -7.8,-4 -12.7,-11.8 -15.8,-19 -1,-2.4 -1.7,-4.8 -2,-7 -7.7,-3.5 -15.8,-5.4 -23.3,-5.2 v 0.1 c 2.4,2.3 4.8,4.6 7.2,6.9 3.5,3.5 1.4,7.2 -1.9,7.6 -7.4,1 -12.9,-5.3 -15,-11.7 -11.4,-10.2 -23.9,-19.3 -37,-26.8 -3.3,-1.9 -7.7,-5.8 -9.9,-3.3 5.4,3.9 10.4,8.4 15,13.2 8.9,9.4 17.7,26.2 7.2,32 -1.9,1 -5.5,0.9 -7.5,-1.8 -4.6,-6.2 -9.2,-12.3 -13.9,-18.5 -4,-5.3 -8.2,-10.6 -10.7,-16.5 -0.7,-1.9 -1.2,-3.9 -1.5,-5.8 -4.7,-3 -9.6,-5.5 -14.6,-7.6 l -1.3,-0.5 c 2.7,2.2 5.5,4.3 8.2,6.6 7.6,6.2 14.6,13.5 15,22.2 0.3,8.1 -4.8,13.7 -9.7,18.6 -1.3,1.3 -4.5,0.6 -6.4,-0.8 -14.8,-11.3 -26.9,-26.4 -32.9,-42.3 -1.9,-5 -2.6,-10.3 -0.4,-13.8 -13.2,-10.1 -26.6,-19.9 -40.1,-29.5 -1.4,-1 -4.8,-4.2 -6.3,-3.7 -1.3,0.5 -0.7,3.5 -0.7,4.9 0,3.7 0.2,7.5 0.6,11.3 1,8.3 3.1,16.8 6.2,25.3 2.7,7.4 6.1,14.8 10.2,21.9 1.6,-0.7 3.7,-0.6 5.7,1 10.1,8.3 15.2,19.1 14.2,29.3 -0.4,3.5 -6,3 -8.7,0 -25.1,-28.6 -40.1,-63.9 -38.7,-94.6 0.3,-6.8 3.3,-12.5 12.4,-8.7 4.1,1.7 8,4.9 11.8,7.5 4.9,3.5 9.8,7.1 14.7,10.6 9.2,6.8 18.3,13.6 27.4,20.5 5.1,-0.1 11,1.8 16.2,3.7 6.4,2.3 12.7,5.3 18.7,8.9 1.8,-3.1 5,-5.1 9.9,-4.6 4.9,0.4 11.7,5.4 16.3,8.2 5.5,3.3 10.9,6.8 16.1,10.6 5.1,3.6 10.1,7.5 14.9,11.5 1.1,-1.5 3,-2 6.3,-2.1 4.4,-0.1 9.1,0.4 13.8,1.5 5.1,1.2 10.1,3 15,5.3 0.6,-0.7 1.4,-1.2 2.4,-1.7 5.5,-2.7 13.2,-1.5 20.2,1.2 6.6,2.5 13.1,6.2 19,10.7 1.7,-0.7 3.6,-1.3 5.6,-1.5 9.4,-1 19.8,4 29.4,9.1 6.6,3.5 4.4,12.2 -2.2,8.7" style="fill:#365da2;fill-opacity:1;fill-rule:nonzero;stroke:none" id="path150" />
      <path d="m 10377.4,4079 c 0,0 -28.3,-468.9 57.1,-475.7 11.4,-0.9 433.3,-0.9 433.3,-0.9 l 538.6,3.3 c 0,0 -3.6,139.4 -161,168.8 -157.4,29.5 -434,137.5 -480.8,378.2 -46.8,240.6 -387.2,-73.7 -387.2,-73.7" style="fill:#163560;fill-opacity:1;fill-rule:nonzero;stroke:none" id="path152" />
      <path d="m 11402.9,4079 c 0,0 -28.3,-468.9 57.1,-475.7 11.4,-0.9 433.3,-0.9 433.3,-0.9 l 538.6,3.3 c 0,0 -3.6,139.4 -161,168.8 -157.4,29.5 -434,137.5 -480.8,378.2 -46.8,240.6 -387.2,-73.7 -387.2,-73.7" style="fill:#163560;fill-opacity:1;fill-rule:nonzero;stroke:none" id="path154" />
      <path d="m 9153.04,7477.6 -472,-162.7 c 0,0 -300.35,611.4 -373.47,694.4 -83.46,94.7 -143.45,823.6 -181.21,1482.9 -32.97,576.6 -49.03,1099.9 -49.03,1099.9 0,0 160.64,-36.5 265.53,-307.7 179.79,-465 178.48,-1372.9 278.5,-1841 57.58,-269.6 434.46,-927.5 531.68,-965.8" style="fill:#699dee;fill-opacity:1;fill-rule:nonzero;stroke:none" id="path156" />
      <path d="m 8681.04,7314.9 c -179.94,209.3 -300.35,611.4 -373.47,694.4 -83.46,94.7 -478.31,633 -109.39,1479.3 180.84,-535.3 29.95,-826.9 86.8,-1142.9 56.44,-313.4 379.62,-821.5 396.06,-1030.8" style="fill:#3b76ca;fill-opacity:1;fill-rule:nonzero;stroke:none" id="path158" />
      <path d="m 7318.32,3810.2 c 0,0 -44.15,-39.1 -148.7,-39.1 -118.5,0 -148.7,39.1 -148.7,39.1 v 1664.1 h 297.4 V 3810.2" style="fill:#d86713;fill-opacity:1;fill-rule:nonzero;stroke:none" id="path160" />
      <path d="m 8954.65,6150.5 c -0.2,-1.2 -0.31,-2.5 -0.52,-3.8 -10.23,-74.1 -25.04,-143.1 -42.67,-206.1 -34.01,-122.5 -78.56,-222.3 -120.18,-292.3 -161.06,-271.7 -466.5,-574 -1198.92,-672.7 -35.48,-4.7 -72.09,-9.1 -109.65,-12.9 -68.33,-7 -140.2,-12.2 -215.62,-15.7 -4.8,-0.2 -9.6,-0.4 -14.4,-0.5 -4.8,-0.3 -9.6,-0.4 -14.5,-0.5 -213.01,5.3 -451.38,44.3 -717.3,107.5 -545.68,129.4 -901.2,395.9 -1126,720.2 l -0.11,0.1 c -19.09,27.5 -37.24,55.5 -54.56,83.7 -44.86,73.7 -83.66,149.8 -116.94,227.7 -124.88,291.6 -172.65,606.1 -177.14,897.6 4.17,276.8 47.05,526.5 94.83,704.2 37.14,138.5 94.93,270.3 173.48,386.2 20.55,30.4 42.66,59.9 66.35,88.1 74.8,89.9 164.4,167 269.14,226.7 260.7,148.5 1118.09,296.6 1844.35,-86.7 C 8831.13,7596 9032.37,6724.6 8954.65,6150.5" style="fill:#a8d29f;fill-opacity:1;fill-rule:nonzero;stroke:none" id="path162" />
      <path d="m 8729.96,5554.3 c -213.22,-248.2 -405.18,-502.4 -1137.6,-583.9 -35.48,-3.8 -72.09,-7.5 -109.65,-10.5 -68.33,-5.9 -140.2,-10.1 -215.62,-13 -4.8,-0.2 -9.6,-0.4 -14.4,-0.4 -4.8,-0.3 -9.6,-0.4 -14.5,-0.5 -213.01,5.3 -451.38,44.3 -717.3,107.5 -545.68,129.4 -901.2,395.9 -1126,720.2 l -0.11,0.1 c -19.09,27.5 -37.24,55.5 -54.56,83.7 414.04,98.8 1298.35,272 2176.93,201.3 476.62,-38.4 970.99,-80.9 1394.31,-118.2 14.3,-1.3 -111.21,-304.6 -181.5,-386.3" style="fill:#82b378;fill-opacity:1;fill-rule:nonzero;stroke:none" id="path164" />
      <path d="m 6222.27,9905.5 c 6.84,28.1 14.11,55.7 21.81,82.9 104.71,370.2 275.28,638.7 543.29,682.6 33.64,-91.6 361.77,-243.7 648.88,-228.8 31.68,1.6 78.45,44.7 78.99,44.8 226.77,32 334.63,153.5 323.99,169.9 9.55,-0.8 238.07,-64.8 238.07,-64.8 198.36,-867.4 222.12,-1349.4 -16.59,-2586.4 -87.14,-451.8 46.1,-697.2 16.59,-726.8 -51.65,-51.8 -623.04,-66.7 -1082.46,-84.5 -55.12,-2 -109.59,-4 -162.54,-5.7 -335.83,-11 -612.41,-14.9 -612.41,-14.9 -22.79,28.5 -64.79,290.6 -93.43,659.7 -45.9,589.4 -57.94,1451.6 95.81,2072" style="fill:#699dee;fill-opacity:1;fill-rule:nonzero;stroke:none" id="path166" />
      <path d="m 6945.15,10629.3 273.1,-226.2 415.92,64.2 c -3.91,40.1 -24.64,213.7 -42.43,361.8 -14.65,121 -27.35,224.8 -27.35,224.8 l -496.84,198.8 -14.99,6 c 0.22,-2.5 0.33,-5 0.44,-7.5 1.42,-19.9 2.27,-39.3 2.71,-58.4 8.46,-339.5 -110.56,-563.5 -110.56,-563.5" style="fill:#e49963;fill-opacity:1;fill-rule:nonzero;stroke:none" id="path168" />
      <path d="m 8091.74,5957.1 c 1390.36,-99.8 1823.19,-81.8 1871.99,-148.6 306.97,-420.6 337.97,-493.2 960.57,-1336 118.8,-160.8 259,-349.6 427,-574.2 h 650 c 0,0 -701.3,1338.2 -1262,2244.8 -221.3,357.9 -420.7,648.5 -546.5,763 -434.57,396.1 -2165.72,386.9 -2165.72,386.9 0,0 -1503.11,36.3 -1621.42,-186.3 -25.66,-48.4 639.25,-1074.3 1686.08,-1149.6" style="fill:#1c468a;fill-opacity:1;fill-rule:nonzero;stroke:none" id="path170" />
      <path d="m 8091.74,5957.1 c 1390.36,-99.8 1823.19,-81.8 1871.99,-148.6 306.97,-420.6 337.97,-493.2 960.57,-1336 l -185,1670.6 c -221.3,357.9 -420.7,648.5 -546.5,763 -434.57,396.1 -2165.72,386.9 -2165.72,386.9 0,0 -1503.11,36.3 -1621.42,-186.3 -25.66,-48.4 639.25,-1074.3 1686.08,-1149.6" style="fill:#163560;fill-opacity:1;fill-rule:nonzero;stroke:none" id="path172" />
      <path d="m 7293.12,10436.8 273.58,29.1 c 0,0 34.27,-7.6 27.69,-50.6 -6.58,-43.1 -96.78,-159.8 -130.77,-165.6 -33.99,-5.9 -244.63,107.9 -170.5,187.1" style="fill:#a8d29f;fill-opacity:1;fill-rule:nonzero;stroke:none" id="path174" />
      <path d="m 6277.2,6875.7 c 0,0 46.38,-841.9 1093.29,-917.2 1390.34,-99.9 1677.19,-66.9 1768.12,-151.9 446.93,-417.7 151.55,-506.3 1199.29,-1908.3 h 658.1 c 0,0 -803.3,2660.7 -1166.99,2978.9 -441.81,386.7 -2246.53,415.8 -2246.53,415.8 0,0 -1202.88,92.6 -1321.15,-130 -25.71,-48.4 15.87,-287.3 15.87,-287.3" style="fill:#1c468a;fill-opacity:1;fill-rule:nonzero;stroke:none" id="path176" />
      <path d="m 7592.4,4975.6 c 0,-4.2 -144.16,-24.9 -222.93,-28.4 -31.81,-1.5 -64.15,-2 -97.23,-1.7 -2.81,-0.1 -5.63,-0.1 -8.45,0 -8.45,0.2 -17,0.3 -25.55,0.5 -213.02,5.4 -451.38,44.4 -717.29,107.5 -712.81,169.1 -1101.09,572.2 -1297.62,1031.7 -124.88,291.7 -172.65,606.1 -177.14,897.7 4.18,276.7 47.05,526.5 94.83,704.1 37.14,138.6 94.93,270.2 173.48,386.2 15.44,23 31.82,45.4 49.24,67.1 5.53,7.1 11.27,14.1 17.1,21.1 491.14,-513.7 1975.28,-2146.7 2211.56,-3185.8" style="fill:#82b378;fill-opacity:1;fill-rule:nonzero;stroke:none" id="path178" />
      <path d="m 7555.16,4975.6 c 0,-4.2 -144.17,-24.9 -222.93,-28.4 -19.82,-0.9 -39.75,-1.5 -59.99,-1.7 -2.81,-0.1 -5.63,-0.1 -8.45,0 -8.45,0.2 -17,0.3 -25.55,0.5 -213.02,5.4 -451.38,44.4 -717.29,107.5 -712.81,169.1 -1101.09,572.2 -1297.62,1031.7 -124.88,291.7 -172.65,606.1 -177.14,897.7 4.18,276.7 47.05,526.5 94.83,704.1 37.14,138.6 94.93,270.2 173.48,386.2 15.44,23 31.82,45.4 49.24,67.1 510.22,-535.9 1958.27,-2139.4 2191.42,-3164.7" style="fill:#a8d29f;fill-opacity:1;fill-rule:nonzero;stroke:none" id="path180" />
      <path d="m 7601.94,10743.8 c 0,0 -45.54,-203.3 -165.61,-301.6 l 185.18,-240.9 c 0,0 224.34,265.5 217.76,455.6 0,0 -177.92,79.9 -237.33,86.9" style="fill:#3b76ca;fill-opacity:1;fill-rule:nonzero;stroke:none" id="path182" />
      <path d="m 7601.94,10743.8 c 0,0 -34.68,-191.4 -154.75,-289.7 l 177.93,-219.1 c 0,0 195.28,227 214.17,421.9 0,0 -177.94,79.9 -237.35,86.9" style="fill:#699dee;fill-opacity:1;fill-rule:nonzero;stroke:none" id="path184" />
      <path d="m 6978.71,10743.8 c 0,0 283.24,-268.4 468.48,-289.7 l -126.78,-316.5 c 0,0 -551.71,326.9 -553.33,522.7 0,0 151.84,81.8 211.63,83.5" style="fill:#3b76ca;fill-opacity:1;fill-rule:nonzero;stroke:none" id="path186" />
      <path d="m 6998.94,10754.6 c 0,0 263.01,-279.2 448.25,-300.5 l -102.66,-291.7 c 0,0 -555.6,312.8 -557.23,508.6 0,0 151.84,81.8 211.64,83.6" style="fill:#699dee;fill-opacity:1;fill-rule:nonzero;stroke:none" id="path188" />
      <path d="m 6126.46,7833.5 c 28.64,-369.1 20.94,-562 134.87,-670.5 0,0 230.58,-86.8 570.97,25.7 116.2,59.3 206.92,141 251.84,252.8 224.28,557 -202.5,1019.9 -224.21,1388.9 -21.71,368.9 -359.88,638.3 -359.88,638.3 0,0 -419.49,-1045.8 -373.59,-1635.2" style="fill:#3b76ca;fill-opacity:1;fill-rule:nonzero;stroke:none" id="path190" />
      <path d="m 7421.27,10281.6 c 0,0 -51.86,-489.4 -61.08,-653.2 -25.93,-460.6 -35.43,-1845.2 -35.43,-1845.2 0,0 -13.64,-120.9 67.04,-217.3 80.69,-96.3 164.94,-162.4 164.94,-162.4 0,0 118.38,103.6 165.32,298.2 31.25,129.5 -43.73,1216.6 -119.39,1940.8 -38.04,364 -100.83,649 -100.83,649 0,0 -61.85,10.8 -80.57,-9.9" style="fill:#a8d29f;fill-opacity:1;fill-rule:nonzero;stroke:none" id="path192" />
      <path d="m 5486.7,3603.9 h 3252.83 c -154.84,338.6 -824.12,593.3 -1626.41,593.3 -802.31,0 -1471.58,-254.7 -1626.42,-593.3" style="fill:#f1a34f;fill-opacity:1;fill-rule:nonzero;stroke:none" id="path194" />
      <path d="m 7160.14,7759.8 c 0,0 220.63,-57.9 292.96,-97.7 72.34,-39.8 217.47,-230.6 184.92,-260.4 -163.35,-149.7 -188.54,16.3 -389.27,70.5 -36.46,9.9 -204.36,197.1 -204.36,197.1 l 115.75,90.5" style="fill:#e49963;fill-opacity:1;fill-rule:nonzero;stroke:none" id="path196" />
      <path d="m 7339.48,7298 331.25,1145.4 H 9563.55 L 9221.8,7251.6 h -6.49 -1889.26 -589.09 v 46.4 h 602.52" style="fill:#c65447;fill-opacity:1;fill-rule:nonzero;stroke:none" id="path198" />
      <path d="m 8619.82,7866.8 c 12.01,41.9 -12.2,75.9 -54.1,75.9 -41.89,0 -85.6,-34 -97.61,-75.9 -12.01,-41.9 12.22,-75.8 54.1,-75.8 41.9,0 85.6,33.9 97.61,75.8" style="fill:#f1a34f;fill-opacity:1;fill-rule:nonzero;stroke:none" id="path200" />
      <path d="m 6787.3,10671 c 0,0 -375.86,-61.1 -563.94,-256.4 -188.08,-195.3 -506.37,-1794 -426.8,-2018.3 79.57,-224.2 716.14,-679.9 1171.88,-868 0,0 224.25,101.3 238.72,274.9 0,0 -774.03,651 -810.19,824.6 -36.17,173.6 390.33,2043.2 390.33,2043.2" style="fill:#699dee;fill-opacity:1;fill-rule:nonzero;stroke:none" id="path202" />
      <path d="m 7053,11251.2 c 1.42,-19.9 2.27,-39.3 2.71,-58.4 96.14,-103.6 322.16,-324.5 536.03,-363.7 -14.65,121 -27.35,224.8 -27.35,224.8 l -496.84,198.8 -14.55,-1.5" style="fill:#d68d5d;fill-opacity:1;fill-rule:nonzero;stroke:none" id="path204" />
      <path d="m 7616.21,11013.9 c 0,0 -595.83,-27.2 -607.07,344.1 -11.24,371.3 -95.72,617.9 284.23,650.9 379.95,33.1 458.19,-106.3 492.08,-229.3 33.9,-123.1 -14.53,-749 -169.24,-765.7" style="fill:#e49963;fill-opacity:1;fill-rule:nonzero;stroke:none" id="path206" />
      <path d="m 7009.14,11358 c 0,0 44.53,495.5 575.32,477.7 530.79,-17.8 301.17,484.3 -154.93,558.2 0,0 47.62,-176.8 -239.3,-204.8 -602.22,-58.7 -234.61,-752.5 -181.09,-831.1" style="fill:#1c468a;fill-opacity:1;fill-rule:nonzero;stroke:none" id="path208" />
      <path d="m 22994.6,4785.6 -160.1,-674.2 -239.8,1.4 -8.8,672.8 h 408.7" style="fill:#ffb27d;fill-opacity:1;fill-rule:nonzero;stroke:none" id="path210" />
      <path d="m 20977.6,4756.9 -455.5,-645.5 -177.6,227.9 274.2,506.4 358.9,-88.8" style="fill:#ffb27d;fill-opacity:1;fill-rule:nonzero;stroke:none" id="path212" />
      <path d="m 22161.8,13645.8 c 82.8,47.1 182,52.2 251.4,48.1 -17.9,18.4 -53.1,25.2 -53.1,25.2 43.1,6.3 139.1,-36.3 139.1,-36.3 598.5,230.6 692.6,-650.7 680,-855.4 -12.5,-204.7 201.1,-271.6 512.5,-432.9 594.2,-307.8 646.4,-720 646.4,-720 -4.7,-2.7 -9.5,-5.8 -14.6,-9.3 -29.5,49.9 -90.2,143.7 -141.4,157.8 2,-4.5 60.5,-129.1 82.3,-200.5 -175.2,-133.3 -503.1,-428.7 -731.7,-638.2 1.1,40.9 -0.6,99.1 -15.5,129.8 l -28.3,-170 c -122.2,-112.5 -206.6,-191.5 -206.6,-191.5 15.1,165.4 -748.3,1038.5 -1146.5,1300 -97,142.7 -131.4,394.9 -134,414.7 16.7,-199.9 50.9,-312 81.5,-375.2 -337.3,310.4 -140.9,1429 78.5,1553.7" style="fill:#163560;fill-opacity:1;fill-rule:nonzero;stroke:none" id="path214" />
      <path d="m 22159.3,12039.6 c -1.9,-0.9 192.4,-101.8 338.5,-61.8 137.5,37.5 227.3,215.7 225.4,216.1 -58.2,11.6 -75,91.6 -73.8,435.4 l -26.3,-5.2 -442.5,-87.7 c 0,0 10,-139.2 10.3,-270.4 0.3,-110.2 -6.3,-214.6 -31.6,-226.4" style="fill:#ffb27d;fill-opacity:1;fill-rule:nonzero;stroke:none" id="path216" />
      <path d="m 22659.8,13501.5 c 0,0 -218.3,232.4 -492.4,11.9 0,0 159.5,27.6 492.4,-11.9" style="fill:#e37970;fill-opacity:1;fill-rule:nonzero;stroke:none" id="path218" />
      <path d="m 22180.6,12536.4 c 0,0 10,-139.2 10.3,-270.4 247.7,7 378.6,232.9 432.2,358.1 l -442.5,-87.7" style="fill:#d68d5d;fill-opacity:1;fill-rule:nonzero;stroke:none" id="path220" />
      <path d="m 22668.8,12672.2 c 0,0 129.8,205.1 160.9,380.4 22.3,125.2 -41.5,589.2 -507.7,522.4 0,0 -135.5,-13.4 -262.8,-99.4 -101.2,-68.3 -247.3,-215.9 -83.9,-620.8 l 42.4,-136.8 651.1,-45.8" style="fill:#163560;fill-opacity:1;fill-rule:nonzero;stroke:none" id="path222" />
      <path d="m 20416.8,4516.3 234.6,-7.2 253.9,-7.8 c 0,0 586.5,653 915.4,1699.7 7.7,24.4 15.8,49 24.4,73.9 180,525 553.2,1183.9 749.9,1780.4 31.3,95 59.4,184.4 84.7,269.1 8,27.1 15.9,53.7 23.4,79.9 144.9,503.6 186.9,834.3 225.6,1187.6 l -1420.3,-11.4 c 0,0 -229.3,-2412.5 -1091.6,-5064.2" style="fill:#a8d29f;fill-opacity:1;fill-rule:nonzero;stroke:none" id="path224" />
      <path d="m 21707.2,10396.7 c 3.6,-675.9 -99.1,-965.9 -99.1,-965.9 0,0 608.1,-308.9 1330.9,-81.5 8.5,2.7 598.4,137.3 598.4,137.3 -12.1,27.4 -119.7,482.8 -131.5,507.9 -152.5,327.7 -268.4,471.4 -286.5,572.2 -33.6,188 -34.3,382.7 -17.6,566.2 44.1,485.9 175.3,889.2 175.3,889.2 -197,44.8 -386.5,121.5 -591.4,198.3 -47.2,-58.7 -186.2,-118 -311.2,-115.2 -144,3.2 -189,64 -183.7,132.6 -153.4,-85.3 -275.4,-166.5 -275.4,-166.5 -130.4,-226.5 -394.8,-446.5 -414,-793.9 -4.7,-85.4 205.7,-861.8 205.8,-880.7" style="fill:#e7f1fd;fill-opacity:1;fill-rule:nonzero;stroke:none" id="path226" />
      <path d="m 22928.7,10321.3 c 62.1,-87.9 181.1,-621.9 477.2,-689.1 -152.5,380.7 -268.4,547.6 -286.5,664.6 -33.6,218.5 -34.3,444.5 -17.6,657.7 -99.1,173.8 -173.1,292.9 -173.1,292.9 -7.8,28.1 -157.5,491.2 -205.5,77.3 -47.9,-414 136.1,-905.1 205.5,-1003.4" style="fill:#5f9aa8;fill-opacity:1;fill-rule:nonzero;stroke:none" id="path228" />
      <path d="m 22097.9,12412.2 c 0,0 585.9,-9.6 586.3,355.3 0.4,365 76.3,609.5 -297.8,631.1 -374,21.6 -446.9,-117.6 -476.6,-239.4 -29.8,-121.7 35.7,-735.1 188.1,-747" style="fill:#ffb27d;fill-opacity:1;fill-rule:nonzero;stroke:none" id="path230" />
      <path d="m 21927.2,13362.2 c 90.4,109.6 158.8,85.7 197.1,52.8 126.6,189.2 526.8,-84.4 526.8,-84.4 39.2,-261.9 228,-411.9 228,-411.9 0,0 -106.7,-65.9 -352.9,-2.6 -193.8,49.8 -334.4,325.6 -385.5,440.8 -34.8,-31 -108.4,-102.6 -130.4,-172.6 -29.2,-93 -42.3,-284.3 -98.1,-277.8 0,0 -120.8,291 15,455.7" style="fill:#163560;fill-opacity:1;fill-rule:nonzero;stroke:none" id="path232" />
      <path d="m 22842.6,4149.1 c 0,0 -19.4,-133.6 30.5,-276.4 0,0 39.2,-178.9 -136.9,-182.2 -176.1,-3.3 -219.3,13.3 -199.4,123 20,109.6 57.9,299.3 57.9,299.3 l 247.9,36.3" style="fill:#ffb27d;fill-opacity:1;fill-rule:nonzero;stroke:none" id="path234" />
      <path d="m 22520.2,3602.8 0.6,-0.4 h 364.4 l 0.6,0.4 c 19.9,93.5 -12.7,269.7 -12.7,269.7 -199.4,-190.7 -324.2,4.8 -324.2,4.8 -32.4,-81.6 -28.7,-274.5 -28.7,-274.5" style="fill:#c45446;fill-opacity:1;fill-rule:nonzero;stroke:none" id="path236" />
      <path d="m 19920.1,3787.2 c 0,0 324.7,368.8 424.4,552.1 l 241.5,-123.7 -539.7,-506.8 -126.3,16.6 0.1,61.8" style="fill:#ffb27d;fill-opacity:1;fill-rule:nonzero;stroke:none" id="path238" />
      <path d="m 19721,3603.4 h 450.5 c 39.6,35.7 77.5,107.7 123.8,202.2 26.6,54.1 86.1,83.9 147.1,100.3 v -302.5 h 93.2 l 86.3,321.7 c 57.5,107.7 14.3,206.6 -26.1,291.7 -47.1,0.1 -183.5,-33.9 -423.4,-309.5 -78.8,-90.5 -165.8,-122.8 -252.3,-120.1 -1.1,-0.8 -2.4,-1.4 -3.5,-1.9 -136.6,-62.7 -181.2,-139.7 -195.6,-181.9" style="fill:#c45446;fill-opacity:1;fill-rule:nonzero;stroke:none" id="path240" />
      <path d="m 19742.8,11806.5 c 0,0 384.6,-215 522,-277 48.8,-22 137.3,-63.2 227.8,-105.5 54.6,-25.5 109.8,-51.4 157.6,-73.9 80.8,-38 176.9,-17.2 234.9,50.7 208.3,243.1 747.2,770.1 1303.8,836.2 l 1.9,0.8 -0.2,-0.6 0.7,0.1 -3.1,-6 c -31.3,-77.8 -336.4,-840.1 -345.9,-1000.9 -9.9,-169.5 -39.8,-2771.4 -39.8,-2771.4 0,0 19.9,-119.6 -209.4,-69.8 -229.3,49.9 -289.1,99.7 -289.1,99.7 0,0 219.3,1605 159.5,2163.3 -11.7,109.5 -1.1,232.7 23.4,359.8 -339,-205.3 -738.7,-296.7 -738.7,-296.7 0,0 -149,65.1 -380.6,208.6 -97.3,60.3 -210,156.5 -321,258.3 -134.2,122.9 -364.9,419.9 -364.9,419.9 l 61.1,204.4" style="fill:#e37970;fill-opacity:1;fill-rule:nonzero;stroke:none" id="path242" />
      <path d="m 20651.4,4509.1 253.9,-7.8 c 0,0 586.5,653 915.4,1699.7 7.7,24.4 15.8,49 24.4,73.9 180,525 553.2,1183.9 749.9,1780.4 31.3,95 59.4,184.4 84.7,269.1 8,27.1 15.9,53.7 23.4,79.9 l -209.2,158.7 c 0,0 -627.9,-1016.8 -822.3,-1973.8 -168.9,-831.2 -845.2,-1831.4 -1020.2,-2080.1" style="fill:#82b378;fill-opacity:1;fill-rule:nonzero;stroke:none" id="path244" />
      <path d="m 22472.1,6500.1 c -3.6,-465.3 19.9,-1535.2 80.6,-1978.1 h 224.9 c 124.3,0 186.3,1.8 186.3,1.8 152,770.1 260.2,1407.3 338.9,1956.4 64.6,450.6 122,836.9 166.2,1169.4 44.5,334.7 75.4,614.9 86.4,851.7 1.7,37.3 3,73.6 3.7,108.8 0.7,35.4 0.9,69.7 0.6,103.1 l -1227.2,119.7 c 15.5,-815.4 141.6,-2062.3 139.6,-2332.8" style="fill:#a8d29f;fill-opacity:1;fill-rule:nonzero;stroke:none" id="path246" />
      <path d="m 22777.6,4522 c 124.3,0 186.3,1.8 186.3,1.8 152,770.1 260.2,1407.3 338.9,1956.4 64.6,450.6 122,836.9 166.2,1169.4 44.5,334.7 75.4,614.9 86.4,851.7 l -450.3,-264.9 c 0,0 287.4,-101.4 177.8,-869 -109.7,-767.6 -352.7,-2736.8 -505.3,-2845.4" style="fill:#82b378;fill-opacity:1;fill-rule:nonzero;stroke:none" id="path248" />
      <path d="m 22719.6,8508.9 c 0,0 86.4,-312.4 385.5,-272.5 299.1,39.9 724.4,219.3 724.4,219.3 0,0 -127.8,403.9 -286.8,934.4 -192.4,642.3 -430.5,1470.3 -542.8,1992.6 -31.5,146.4 -53,268.6 -61,356.1 l -253.2,481.6 c 0,0 -364.9,-830.5 -384.8,-1039.8 -19.9,-209.4 418.7,-2671.7 418.7,-2671.7" style="fill:#e37970;fill-opacity:1;fill-rule:nonzero;stroke:none" id="path250" />
      <path d="m 21651.5,10946.9 c 143.9,-18.9 199.1,-95.5 216.9,-198.6 9.6,-55.7 38.3,-110.7 62.7,-149.6 143.4,-7.7 484.8,-26.3 771.7,-44.5 l 23.7,-376.3 c -235.7,29.4 -525.3,89.2 -858.6,203.3 -25.6,4.4 -57.6,20.2 -97.7,53.1 -206.5,169.1 -323.8,452.4 -324.1,493 -0.4,40.5 61.5,38.5 205.4,19.6" style="fill:#ffb27d;fill-opacity:1;fill-rule:nonzero;stroke:none" id="path252" />
      <path d="m 22732.9,10741.9 c 13.3,-338.9 93.1,-996.9 804.2,-1349.1 1.9,-0.9 3.8,-1.9 5.6,-2.7 -192.4,642.3 -430.5,1470.3 -542.8,1992.6 -130.6,-195.2 -274.3,-454.2 -267,-640.8" style="fill:#c45446;fill-opacity:1;fill-rule:nonzero;stroke:none" id="path254" />
      <path d="m 22685.7,12220.4 c 0,0 608.2,-43.1 754.4,-368.7 146.2,-325.7 192.8,-1409 6.7,-1728 0,0 -256.2,-73 -709.4,11.8 -5.5,1 -11.1,2.1 -16.7,3.1 0,0 -144.6,354 -15,423.7 0,0 382.2,-19.9 342.3,106.4 -39.9,126.2 -362.3,1551.7 -362.3,1551.7" style="fill:#e37970;fill-opacity:1;fill-rule:nonzero;stroke:none" id="path256" />
      <path d="m 19330.4,12062.1 c 327.3,42.1 409.9,-255.6 409.9,-255.6 l -61.1,-204.4 c -100.9,-14 -189.2,12.3 -270.5,128.7 -81.3,116.4 -103.7,71.7 -155.4,158.3 -70.2,117.5 39.6,161.3 77.1,173" style="fill:#ffb27d;fill-opacity:1;fill-rule:nonzero;stroke:none" id="path258" />
      <path d="m 20264.8,11529.5 c 48.8,-22 137.3,-63.2 227.8,-105.5 -48.4,-85.9 -109,-242 -125,-500.1 -97.3,60.3 -223.2,160.8 -330.6,266.3 -172.5,169.2 -355.3,411.9 -355.3,411.9 l 61.1,204.4 c 0,0 384.6,-215 522,-277" style="fill:#ffb27d;fill-opacity:1;fill-rule:nonzero;stroke:none" id="path260" />
      <path d="m 19878.6,11878.5 -827.5,-36.3 c -6.2,-0.3 -11.5,4.4 -11.9,10.6 -0.4,6.1 4.1,11.5 10.1,12.1 l 823.7,88.7 c 21.2,2.3 40.1,-13.5 41.6,-34.9 1.4,-21.1 -14.8,-39.3 -36,-40.2" style="fill:#163560;fill-opacity:1;fill-rule:nonzero;stroke:none" id="path262" />
      <path d="M 27603.4,3572.5 H 2396.56 c -16.43,0 -29.88,13.4 -29.88,29.9 0,16.4 13.45,29.8 29.88,29.8 H 27603.4 c 16.5,0 29.9,-13.4 29.9,-29.8 0,-16.5 -13.4,-29.9 -29.9,-29.9" style="fill:#ebf3fa;fill-opacity:1;fill-rule:nonzero;stroke:none" id="path264" />
    </g>
  </g>
</svg>
