<?xml version="1.0" encoding="UTF-8"?>
<svg viewBox="0 0 2520.69 1349.05" xmlns="http://www.w3.org/2000/svg">
<defs>
<style>.cls-1{fill:#ebf2f9;}.cls-2{fill:#a8d29f;}.cls-3{fill:#adcbf9;}.cls-4{fill:#456aa3;}.cls-5{fill:#3b76ca;}.cls-6{fill:#fff;}.cls-7{fill:#a0c0ef;}.cls-8{fill:#476ba7;}.cls-9{fill:#365da2;}.cls-10{fill:#e37970;}.cls-11{fill:#ad7041;}.cls-12{fill:#415da5;}.cls-13{fill:#355493;}.cls-14{fill:#b84c42;}.cls-15{fill:#aa443e;}.cls-16{fill:#d9935c;}.cls-17{fill:#ebba56;}.cls-18{fill:#e7a329;}.cls-19{fill:#cb8757;}.cls-20{fill:#233862;}.cls-21{fill:#b64c41;}.cls-22{fill:#aa413e;}.cls-23{fill:#739af0;}.cls-24{fill:#4a75cb;}.cls-25{fill:#da935b;}.cls-26{fill:#e49963;}.cls-27{fill:#163560;}.cls-28{fill:#d68d5d;}.cls-29{fill:#80bdcc;}.cls-30{fill:#e7f1fd;}.cls-31{fill:#c45446;}.cls-32{fill:#5f9aa8;}.cls-33{fill:#1c468a;}.cls-34{opacity:0.5;}.cls-35{fill:#699dee;}</style>
</defs>
<g data-name="Layer 2">
<g data-name="Layer 1">
<path class="cls-1" d="M2231.14,426.26C2128.21,338.46,2004.12-191,1579,84.74c-219.62,142.48-590-122.33-896.49-30.86C401,137.88,373.88,414.63,401.12,504.81c55,182.16-116.21,209.27-275,287.53-249.16,122.77-65.94,554.23,169.43,556.29s1661.35-4.11,1661.35-4.11,341.94.87,484.13-187.85C2594,953.58,2497,653.05,2231.14,426.26Z"/>
<path class="cls-2" d="m710.51 1341.5s-122.73-74.67-108.92-142.71 144.21 41.48 144.21-33.4-96.65-167.88-32.22-196.72 202.51 71.3 194.84 177.07 144.58-25.86 207.29 53-38.54 142.71-38.54 142.71z"/>
<path class="cls-2" d="m1573.4 1344.5s-122.73-161.92-108.92-309.46 144.21 89.94 144.21-72.43-96.67-364-32.22-426.57 202.55 154.64 194.84 384 144.58-56.07 207.29 115-38.58 309.46-38.58 309.46z"/>
<path class="cls-3" d="M1604.69,662.13l-36.83-.85c11.83,15.34,14.49,29.47,7.12,41.42-7.36,12.2-25,22.22-51.32,29.83A476,476,0,0,0,892.72,127.91c-7,3-14,6.16-20.76,9.42l-.07,0c-20.45-6.24-40.38-11.36-59.61-15.25-97-19.7-165.92-6.08-193.89,38.33-26.62,42.23-12.13,105.81,40.7,180l0,0c-7.13,13.16-13.53,26.69-19.44,40.69-4.47,10.51-8.46,21-12.08,31.76-99.26,5.92-152.39,23.39-171.71,55-22.46,36.82,8.21,86.25,106.38,134.31,13.53,6.64,28,13.17,43.23,19.69a465.11,465.11,0,0,0,34.18,129.44,475.78,475.78,0,0,0,874.61,4.47c48.42-10,80.3-25.72,93-46.49C1616,695,1615,679,1604.69,662.13ZM1491.06,740c-32.24,5.8-72.46,9.18-119.43,9.66-72.89.89-156.6-4.86-244.82-16.49q11.14-24.24,21.8-49.75A675,675,0,0,0,1227.89,705c29,5.89,55.52,8.8,79.16,8.8,55.42,0,95.13-16,114.74-47.13a82.1,82.1,0,0,0,7.89-16.31h-28.26c-.46.86-1,1.71-1.48,2.54-14.57,23.12-47.12,35.06-92.83,35.05-21.86,0-46.74-2.72-74.09-8.28a643.81,643.81,0,0,1-74.62-20.18q10.21-25.53,19.81-52c17.22-47.49,32-94.56,43.89-139.76,54.35,8,112.68,12,174.67,12q57.9,0,120-4.68a451.11,451.11,0,0,1,9.23,91.14A445.33,445.33,0,0,1,1491.06,740ZM902.46,975.82c-13.74-5-20.71-24.71-24.14-40.37-5.43-24.76-6.41-59.54-2.84-100.57,1.81-20.75,4.71-42.82,8.61-65.9a1223.62,1223.62,0,0,1,166.4,57.58c-12.23,21.1-24.6,40.65-37,58.38-23.56,33.78-46.61,59.85-66.64,75.37C934.2,970.13,916.21,980.8,902.46,975.82Zm160.47-171.34a1248.35,1248.35,0,0,0-174.31-60.36q3.12-16.08,6.84-32.68,24.62,5.59,49.91,10.82c49.33,10.09,98.53,18.65,146.7,25.58Q1077.76,777.45,1062.93,804.48ZM956.24,704.39q-28.59-5.88-56.3-12.27c8.69-36.16,19.37-73.85,31.83-112.26,64.78,39.82,130.66,72.21,193,95.2q-11.73,28-24.07,54.53C1053.35,722.79,1004.88,714.36,956.24,704.39ZM798,216.33a294.37,294.37,0,0,0,17.51,30.81c32.75,50.61,76,87.3,106.52,109.16a521.83,521.83,0,0,0,56,34.89c-18.09,39.42-35.32,81.5-51.16,125.18q-4.44,12.23-8.64,24.39C823.67,479.16,743.55,408.48,691,340.07l0,0a450.06,450.06,0,0,1,45.15-63.6c7-8.21,14.25-16.18,21.85-23.91l3.14-3.14A453.25,453.25,0,0,1,798,216.33Zm404.65-68.27c13.74,5,20.71,24.71,24.15,40.37,5.42,24.76,6.4,59.54,2.83,100.57-3.9,44.91-12.9,95.93-26.28,150.25q-24.26-4.19-47.33-9.47c-53.13-12.21-101.56-28.93-144.81-49.92,25.81-53.82,53.1-101.81,80.38-140.92,23.57-33.78,46.61-59.85,66.65-75.37,10.45-8.1,24.52-16.77,36.83-16.77A22.17,22.17,0,0,1,1202.68,148.06Zm-54,305.88q23.61,5.49,48.44,9.78c-11.61,43.71-25.92,89.23-42.59,135.19q-9.64,26.58-19.92,52.26c-62.63-23-129.09-55.88-194.44-96.5q5.07-14.8,10.46-29.7c15.49-42.71,32.3-83.81,49.93-122.3C1045,424.2,1094.49,441.36,1148.67,453.94Zm246-204.55a446.28,446.28,0,0,1,116.15,200.88c-103.28,7.55-197.91,5.18-282.51-7.06,13.42-54.85,22.46-106.45,26.43-152,4.37-50.32,3.84-109.94-16.57-143.48q7.1,2.73,14.13,5.69A444.84,444.84,0,0,1,1394.7,249.39ZM1078,118.13a449.21,449.21,0,0,1,91.4,9.32c-35.19,15.32-71.13,58-98.41,97.07-27.91,40-55.79,89-82.12,143.82a497.45,497.45,0,0,1-50.35-31.28c-52.36-37.14-83.73-76-100.82-102.13a263.06,263.06,0,0,1-19.09-34.12,445.83,445.83,0,0,1,57.91-34.94h0q12.35-6.23,25.14-11.68l1.84-.8.43-.18c1.82-.77,3.64-1.51,5.47-2.25l1.47-.59A445.06,445.06,0,0,1,1078,118.13ZM640.24,174.21c14.56-23.13,47.12-35.06,92.82-35.06,21.86,0,46.75,2.73,74.1,8.28q15.57,3.15,31.77,7.42h0A467.46,467.46,0,0,0,741.54,230c-6.16,6-12.07,12.32-17.87,18.84-7.24,8-14.13,16.3-20.77,24.75a476.65,476.65,0,0,0-29.46,42.15l0,0C633,255.75,620.88,204.91,640.24,174.21ZM665,391.88c4-9.18,8.09-18.23,12.56-27.05v0C732.9,434,814.47,504.7,909.78,566c-13.51,41.13-25,81.56-34.35,120.3-69.34-16.78-133.6-35.76-189.92-56.08-11.83-4.23-23.3-8.58-34.29-12.92-6.52-2.54-12.92-5.2-19.2-7.85-1-9.66-1.69-19.44-1.93-29.22-.12-4.71-.25-9.3-.25-14,0-5.44.13-11,.25-16.42A453.41,453.41,0,0,1,650.61,431c2.06-6.52,4.23-12.92,6.65-19.32C659.67,405,662.21,398.4,665,391.88ZM584.2,588C498.59,546.2,459.46,505.87,477,477.25c14.13-23.18,65.57-38.88,144.3-44.68A462.43,462.43,0,0,0,603.4,533c-.72,10.14-1.09,20.29-1.21,30.55v2.66c0,10.26.37,20.53,1,30.67C596.64,594,590.36,591,584.2,588Zm65,51.32c11.59,4.35,23.42,8.7,35.62,12.93,56.06,19.42,118.91,37.48,186.13,53.5q-3.66,16.34-6.76,32.19c-5.49-1.33-11-2.64-16.49-3.89-92.94-21.15-162.68-25.45-195-26.18a437.33,437.33,0,0,1-17.62-74ZM665,740.62q-1.53-3.66-3-7.32c39.32,1.6,104.66,8.06,181,25.52,5.53,1.26,11.05,2.58,16.58,3.92-4.21,24.52-7.31,47.94-9.22,70-3.63,41.71-3.89,89.8,7.75,124.14A450.58,450.58,0,0,1,665,740.62ZM1252.33,979.1a449.68,449.68,0,0,1-310.24,14.3c33.15-17.37,66.45-57.28,92.1-94,13.23-19,26.45-39.94,39.5-62.6a1267,1267,0,0,1,215.56,124.71Q1271.26,971.09,1252.33,979.1Zm142.37-96a445.19,445.19,0,0,1-81.5,64.59,1293,1293,0,0,0-227.14-133c10.92-20,21.69-41.16,32.2-63.23,72.74,9.64,142.68,15.42,206.52,16.92,16.66.48,32.84.48,48.54.36,40.7-.48,76.92-2.9,108-7.24A445.45,445.45,0,0,1,1394.7,883.11Z"/>
<polygon class="cls-4" points="974.88 62.29 862.35 81.4 935.96 28.31 940.2 44.59 967.81 48.84"/>
<polygon class="cls-3" points="862.35 81.4 955.07 30.43 1047.1 23.36"/>
<polygon class="cls-3" points="935.96 28.31 862.35 81.4 918.26 0"/>
<polygon class="cls-4" points="480.7 336.83 587.23 377.86 525.59 311.24 518.21 326.36 490.31 325.05"/>
<polygon class="cls-3" points="587.23 377.86 506.44 309.54 417.66 284.36"/>
<polygon class="cls-3" points="525.59 311.24 587.23 377.86 548.55 287"/>
<polygon class="cls-5" points="838.92 1342.7 1642.3 1342.7 1911.6 262.71 1108.2 262.71"/>
<polygon class="cls-6" points="873.21 1308.2 1625.3 1308.2 1877.3 297.24 1125.3 297.24"/>
<path class="cls-7" d="m1138.6 763.19h498.19c6.18 0 12.49-5.06 14-11.23l1.05-4.21c1.54-6.17-2.26-11.23-8.43-11.23h-498.2c-6.17 0-12.48 5.06-14 11.23l-1 4.21c-1.58 6.17 2.21 11.23 8.39 11.23z"/>
<path class="cls-7" d="m1182.9 585.42h498.19c6.18 0 12.49-5.06 14-11.23l1-4.21c1.54-6.17-2.25-11.23-8.43-11.23h-498.11c-6.18 0-12.49 5.06-14 11.23l-1 4.21c-1.58 6.17 2.17 11.23 8.35 11.23z"/>
<path class="cls-7" d="m1167.5 647.17h498.2c6.17 0 12.48-5 14-11.23l1-4.21c1.54-6.17-2.25-11.22-8.42-11.22h-498.2c-6.18 0-12.49 5-14 11.22l-1.05 4.21c-1.5 6.18 2.3 11.23 8.47 11.23z"/>
<path class="cls-7" d="m1153.1 705.18h498.19c6.18 0 12.49-5.06 14-11.23l1-4.21c1.54-6.17-2.25-11.23-8.43-11.23h-498.11c-6.18 0-12.49 5.06-14 11.23l-1 4.21c-1.62 6.17 2.17 11.23 8.35 11.23z"/>
<path class="cls-7" d="m1109.1 881.41h498.19c6.18 0 12.49-5 14-11.23l1.05-4.21c1.54-6.17-2.25-11.22-8.43-11.22h-498.16c-6.18 0-12.49 5-14 11.22l-1 4.21c-1.62 6.18 2.22 11.23 8.35 11.23z"/>
<path class="cls-7" d="m1123.6 823.4h498.2c6.17 0 12.48-5 14-11.23l1-4.21c1.54-6.17-2.25-11.22-8.42-11.22h-498.2c-6.18 0-12.49 5-14 11.22l-1 4.21c-1.55 6.18 2.25 11.23 8.42 11.23z"/>
<path class="cls-7" d="m1065.8 1063.7h121c7.34 0 14.83-6 16.66-13.33s-2.67-13.33-10-13.33h-121c-7.33 0-14.83 6-16.66 13.33-1.78 7.33 2.67 13.33 10 13.33z"/>
<path class="cls-7" d="m1436.5 1063.7h121c7.33 0 14.83-6 16.66-13.33s-2.68-13.33-10-13.33h-121c-7.33 0-14.83 6-16.66 13.33-1.84 7.33 2.67 13.33 10 13.33z"/>
<path class="cls-8" d="m1169.9 1207.2h-176.46a13.76 13.76 0 0 1 -11.18 -5.08c-2.67-3.42-3.48-8-2.27-12.81l12.72-51c2.41-9.68 12.25-17.55 21.94-17.55h176.46a13.77 13.77 0 0 1 11.18 5.09c2.67 3.42 3.48 8 2.27 12.8l-12.72 51c-2.41 9.68-12.25 17.55-21.94 17.55zm-155.25-85c-9.08 0-18.3 7.39-20.57 16.47l-12.72 51c-1.1 4.41-0.38 8.53 2 11.59a12.4 12.4 0 0 0 10.07 4.54h176.46c9.08 0 18.3-7.39 20.57-16.47l12.72-51c1.1-4.41 0.38-8.52-2-11.59a12.37 12.37 0 0 0 -10.06 -4.54z"/>
<path class="cls-8" d="m1541.2 1207.2h-176.46a13.78 13.78 0 0 1 -11.19 -5.08c-2.67-3.42-3.47-8-2.27-12.81l12.72-51c2.42-9.68 12.26-17.55 21.94-17.55h176.46a13.79 13.79 0 0 1 11.19 5.09c2.67 3.42 3.47 8 2.27 12.8l-12.72 51c-2.42 9.68-12.26 17.55-21.94 17.55zm-155.26-85c-9.07 0-18.3 7.39-20.56 16.47l-12.72 51c-1.1 4.41-0.39 8.53 2 11.59a12.39 12.39 0 0 0 10.07 4.54h176.46c9.07 0 18.3-7.39 20.56-16.47l12.72-51c1.1-4.41 0.39-8.52-2-11.59a12.39 12.39 0 0 0 -10.07 -4.54z"/>
<path class="cls-7" d="m1219.2 400.52c6-18.28 24.68-33.25 44.43-33.25 12.12 0 17.41 4.59 21.45 10.47l-11.64 9.73c-3.48-4.5-6.83-7.16-14.18-7.16-10.84 0-21.6 9-25.28 20.21-3.61 11 1 20.2 12 20.2 7.35 0 12.81-2.94 19.37-7.53l5.84 9.65c-8.93 7.07-17.55 10.93-30 10.93-18.85 0-28.11-14.61-21.99-33.25z"/>
<path class="cls-7" d="m1285.1 400.52c6-18.28 25.32-33.25 45.16-33.25s29.23 14.79 23.17 33.25c-6 18.28-25.32 33.25-45.16 33.25s-29.23-14.77-23.17-33.25zm53.55 0c3.61-11-1.46-20.21-12.85-20.21s-22.24 9-25.91 20.21c-3.62 11 1.45 20.2 12.84 20.2s22.23-9 25.92-20.2z"/>
<path class="cls-7" d="m1376.6 368.37h13l17.18 39.63 13-39.59h14l-21.09 64.29h-12l-17.73-40.87-13.4 40.87h-14z"/>
<path class="cls-7" d="M1459.86,381.41H1440.3l4.28-13h53.27l-4.28,13H1474l-16.81,51.25h-14.15Z"/>
<path class="cls-7" d="M1508.69,368.37h29.39c8.18,0,13.76,2.3,16.6,6.52,2.41,3.58,2.68,8.64.63,14.88-3.4,10.38-11.14,16.9-20.31,19.93l8.17,23h-16.53l-7.21-20.57H1508.5l-6.75,20.57H1487.6Zm18.23,31.23c6.89,0,12-3.68,13.88-9.28,2-6.06-1.21-9.18-8.1-9.18h-14l-6.06,18.46Z"/>
<path class="cls-7" d="m1597.3 367.91h13l6.31 64.75h-14.79l-1.14-14.42h-27.19l-10.61 14.42h-14.38zm2.46 37.84-1.7-20.85-15.38 20.85z"/>
<path class="cls-7" d="m1630.1 400.52c6-18.28 24.69-33.25 44.43-33.25 12.13 0 17.41 4.59 21.46 10.47l-11.65 9.73c-3.48-4.5-6.83-7.16-14.18-7.16-10.84 0-21.6 9-25.27 20.21-3.62 11 1 20.2 12 20.2 7.35 0 12.82-2.94 19.38-7.53l5.83 9.65c-8.93 7.07-17.54 10.93-29.94 10.93-18.91 0-28.2-14.61-22.06-33.25z"/>
<path class="cls-7" d="M1722,381.41h-19.56l4.28-13H1760l-4.28,13h-19.56l-16.81,51.25H1705.2Z"/>
<path class="cls-9" d="M1579.4,1114q-40.2,16.62-79.81,36.31c1-3,2-5.92,2.82-8.88.66-2.38-2.54-4-4.53-1.35a40.59,40.59,0,0,1-2.8,3.32c.67-2.13-1.84-3.31-4-1.76l-.41.33c1-2.86-3.41-3.29-5.06-.52l-2.48,4.14a17.32,17.32,0,0,1-8,5.33,13.66,13.66,0,0,1-1.18-4.44,2,2,0,0,0-2-1.89c-.05-1.46-1.37-2.32-3.31-1.45a18.11,18.11,0,0,0-6.07,4.48c-1.32-2.47-5.57-.7-7.84,1.67.06-.14.13-.27.19-.4,1.07-2.3-.92-4.91-3.6-2.6a32.46,32.46,0,0,0-9.87,14.46,56.54,56.54,0,0,1-5.05,5c-.88.75-5,4.54-5.91,4.21s-.42-2.66,0-4.32l.44-.61c3.4-4.73,19.8-27,8.25-26.81a4.15,4.15,0,0,0-3.22,1.95,76.82,76.82,0,0,0-9.46,20.17c-.38,1.32-.91,3-1.34,4.78l-1,1.35c-4.59,6-10.93,14.69-18.37,17.65-.68-9.42,4.07-20.57,7.66-30.45q2.32-6.39,4.84-12.78a3.63,3.63,0,0,0,1.6-.83c8-6.76,11.32-16.78,7.68-23.52-1-2-4.25-.18-5.17,1.88q-8.3,18.62-15,37.36c-4,11.07-8.48,22.77-6.83,33,.18,1.07,1.43,1.48,2.61,1.22,8.48-1.85,15.87-9.39,21.81-16.92a3.49,3.49,0,0,0,2.33,2c3.94,1.17,9.33-3.21,13.21-6.88a15.38,15.38,0,0,0,.69,3.72c.42,1.29,1.76,1.59,3.33,1a30.75,30.75,0,0,0,10-6.68c3.83-1.18,7.18-4.33,10-8a51.83,51.83,0,0,0,4.92-4.91,7.44,7.44,0,0,0,1.38,2.51c1.44,1.65,5.08.16,7.4-.91a24.55,24.55,0,0,0,6.1-4,12.29,12.29,0,0,0,4.2-1.14,3.38,3.38,0,0,0,1,1c1.45,1,3.15.58,4.85-.46-.39,1.07-.78,2.15-1.19,3.22q-5.76,2.91-11.52,5.89c-2.53,1.3-3.12,5.18-.28,5l10.57-.8a4.2,4.2,0,0,0,3.54-2.67c.62-1.41,1.21-2.82,1.79-4.23q41.33-20.71,83.42-38.12C1584.16,1117.1,1583,1112.5,1579.4,1114Zm-122.81,40.55a15.82,15.82,0,0,1-.87,2.21c-.23.5-.5,1-.78,1.47A18.74,18.74,0,0,1,1456.59,1154.52Zm-7.75,6.61c-.3,1.48-.64,2.95-.09,4a25.81,25.81,0,0,1-2.65,1.75,15.16,15.16,0,0,1,.31-4.94c1.22-1.44,2.37-2.92,3.43-4.44A26,26,0,0,0,1448.84,1161.13Z"/>
<path class="cls-9" d="M1086.2,1097.55c-9.49,17.63-14.81,35.73-22.52,53.58a143.45,143.45,0,0,1-13.93,25.59c-4,5.72-12.72,18.15-20.12,15.46-1.84-.67-2.35-2.25-1.75-4.4.13-.48.29-1,.46-1.46.93.56,2.38.33,3.84-.45a13.74,13.74,0,0,0,5.45-6.07c1.11-2.4.93-4.9-1-6-1.7-.94-4.23-.1-6,1.69-2,2-2.88,4.53-3.86,6.83-1.19,2.81-2.78,5.86-2.6,8.57.27,4.07,4.66,5.52,9,4.57,5.21-1.14,9.84-5.7,13.35-9.85a114,114,0,0,0,11-15.43c6.43-10.83,11-22.08,15.27-33.22,5-12.9,9.59-25.89,16.41-38.57C1090.21,1096.36,1087.32,1095.47,1086.2,1097.55Zm-51.37,80.07c.32,1.25-.88,2.88-1.87,4a6.54,6.54,0,0,1-1.12,1.11,4.71,4.71,0,0,1-.8.48.6.6,0,0,0-.25.06,1.07,1.07,0,0,0-1-.56c.41-.94.85-1.86,1.27-2.74C1031.68,1178.69,1034.16,1175,1034.83,1177.62Z"/>
<path class="cls-9" d="M1149.75,1152.64a21.12,21.12,0,0,1-6,2.51,5.66,5.66,0,0,1-1.54,0c1.43-1.43,2.76-3.1,3-4.67.35-2.56-2.46-3.15-4.85-1.83a7.31,7.31,0,0,0-3.65,5.51,3.82,3.82,0,0,0,.29,1.82c-2.06,1.48-5.59,3.52-7.78,3.12a28.47,28.47,0,0,0,7.16-7.07,1.49,1.49,0,0,0,.1-1.61c-1.2-1.58-3.64-1.69-6-.46a12,12,0,0,0-5.17,6.22,9,9,0,0,0-.67,2.28,18.06,18.06,0,0,1-7.64,1.73v0c.81-.74,1.59-1.5,2.37-2.27,1.16-1.15.46-2.33-.61-2.48-2.42-.32-4.22,1.75-4.92,3.85a73.23,73.23,0,0,1-12.12,8.77c-1.07.62-2.52,1.87-3.24,1.08a37.62,37.62,0,0,0,4.92-4.35c2.91-3.07,5.8-8.56,2.35-10.46a2,2,0,0,0-2.45.6l-4.55,6a26.33,26.33,0,0,0-3.49,5.43,7,7,0,0,0-.5,1.89,33.11,33.11,0,0,1-4.8,2.48,4.08,4.08,0,0,1-.42.17c.9-.71,1.79-1.42,2.67-2.15,2.51-2,4.79-4.43,4.92-7.27.12-2.65-1.58-4.51-3.17-6.09-.43-.42-1.45-.22-2.08.26a32.72,32.72,0,0,0-10.78,13.84c-.63,1.66-.86,3.37-.15,4.53q-6.48,4.93-13.1,9.64c-.47.34-1.61,1.38-2.07,1.22s-.25-1.15-.25-1.6a33.36,33.36,0,0,1,.21-3.71,36.35,36.35,0,0,1,2-8.28,45.15,45.15,0,0,1,3.36-7.17,1.75,1.75,0,0,0,1.85-.34c3.31-2.71,5-6.25,4.65-9.57-.12-1.16-2-1-2.85,0-8.22,9.35-13.12,20.92-12.69,31,.1,2.22,1.11,4.09,4.08,2.85a21.75,21.75,0,0,0,3.86-2.47q2.41-1.72,4.82-3.49,4.52-3.3,9-6.7a15.31,15.31,0,0,0,5.32-1.2,35.63,35.63,0,0,0,6.12-2.92,3.07,3.07,0,0,0,3.22,1.52c1.61-.16,3.85-1.8,5.37-2.71,1.79-1.08,3.55-2.22,5.27-3.45s3.28-2.45,4.85-3.77c.36.5,1,.65,2.07.68a18.32,18.32,0,0,0,4.53-.49,24,24,0,0,0,4.89-1.73,3,3,0,0,0,.8.56c1.81.87,4.31.47,6.62-.41a25,25,0,0,0,6.22-3.5,6.26,6.26,0,0,0,1.82.49c3.1.34,6.49-1.31,9.65-3C1152.63,1154.35,1151.92,1151.5,1149.75,1152.64Zm-64.57,15a28.54,28.54,0,0,1,6.87-8.54c1.22,1.36,2.33,3.21.67,5.37a20.91,20.91,0,0,1-3.56,3.14q-2,1.62-4.09,3.23l-1.08.83C1083.52,1170.7,1084.67,1168.6,1085.18,1167.6Zm18.54-8.7c-.38,1.69-2.42,4-3.55,5.07-.22.22-.44.43-.67.63C1100.74,1162.67,1102.25,1160.77,1103.72,1158.9Zm28.84-6.54a21.89,21.89,0,0,1-4.21,4C1129.21,1154.42,1131.22,1152.25,1132.56,1152.36Zm7.92-.09c.2-.34,1.14-1.39,1-.67a6,6,0,0,1-1.34,1.66A2.51,2.51,0,0,1,1140.48,1152.27Z"/>
<path class="cls-10" d="M1582.74,340.06a1.91,1.91,0,0,0-1.26-1.78c-13.19-4.93-22.75-19.58-22.75-36.89,0-21.36,14.55-38.68,32.49-38.68H1395.48c-17.94,0-32.49,17.32-32.49,38.68s14.55,38.67,32.49,38.67Z"/>
<path class="cls-10" d="m1495.6 194.06a48 48 0 1 0 48 48 48 48 0 0 0 -48 -48zm0 68a20 20 0 1 1 20 -20 20 20 0 0 1 -20 20z"/>
<path class="cls-11" d="M1621.34,1335.88a8.28,8.28,0,0,1-5.4,7.18l0,0c-5.75,2.51-15.4,1.94-25.82.54-1.33-.18-2.53-.32-3.61-.42l-.84-.07-.65-.05c-10.38-.68-9.56,2.52-29.4,2.42-22.61-.12-30.25-7.73-31.29-11-.87-2.75,9-4.89,20.1-7.35l1.61-.36,4.43-1c13.19-3.09,26.26-7,30.58-19.68,4.58-13.44,3.5-53.33,3.5-53.33h40s-10.5,44.07-9.4,56.77c.59,6.78,3.84,8.71,5.09,14.59q.13.61.24,1.23A39.34,39.34,0,0,1,1621.34,1335.88Z"/>
<path class="cls-12" d="m1667.9 904.71c-3.38 19-8.2 38.57-12.39 59-6.72 32.78-11.8 67.61-6.6 105.11a131.71 131.71 0 0 1 1.1 15.88c1 66.28-28.61 186.4-28.61 186.4s-8 3.47-21.52 2.8c-6.94-0.34-17.59-4.82-17.59-4.82s-2.8-74.47-3-174.63c-0.12-72.59-14.38-168.18-17.26-224.35-1.74-34 2-79.28 2-79.28s59-47.47 80.24-23.18c21.02 23.96 36.28 66.1 23.63 137.07z"/>
<path class="cls-13" d="m1648.9 1068.8a131.71 131.71 0 0 1 1.1 15.88c-44.21-64.05-54-203.74-54-203.74l48.56 23.57s5.33 26.2 10.93 59.18c-6.71 32.78-11.79 67.61-6.59 105.11z"/>
<path class="cls-11" d="M1749.09,1335.59a8.25,8.25,0,0,1-5.4,7.15l0,0c-5.75,2.51-15.39,1.93-25.81.53-1.34-.17-2.54-.32-3.62-.42l-.83-.06c-.22,0-.44,0-.65-.06-10.38-.68-9.57,2.51-29.4,2.4-22.61-.12-30.26-7.71-31.29-11-.88-2.74,9-4.87,20.09-7.32l1.61-.35,4.43-1c13.19-3.08,26.26-7,30.57-19.61,4.58-13.39-2-52.54-2-52.54l37.09-3.08s-2.29,44.61-1.18,57.26c.6,6.76,4,10.48,5.29,16.34.1.41.18.82.25,1.23A39,39,0,0,1,1749.09,1335.59Z"/>
<path class="cls-12" d="m1743.8 1274.4s-9.54 4.51-16.4 5.88-21.13-1.31-21.13-1.31a966.32 966.32 0 0 0 -20.17 -124.83c-13.22-57.94-32.9-126.4-60.34-191.24-5.86-13.85-30-79.39-34.13-95.93-12.4-50 0-44.59 0-44.59l108.39-12.72s13.36 6.86 19.51 77.43c1.84 21.14 2.07 112.39 4.84 129.69 2.63 16.38 5.7 30 9.31 38.86 20.18 49.42 10.12 218.76 10.12 218.76z"/>
<path class="cls-14" d="M1749.07,1335.73a8.38,8.38,0,0,1-5.43,7.29l0,0c-6.1,2.2-15.63,1.73-25.87.49-1.34-.16-2.55-.28-3.65-.36l-.84-.07-.65,0c-8.33-.56-9.47,1.41-19.8,2.17H1676.4c-17.52-1.43-23.74-7.93-24.68-10.88-.87-2.79,9.06-5,20.16-7.46a66.15,66.15,0,0,0,34.25,6.15c15.27-1.48,30.86-7.68,41.81-9.22.09.42.17.84.25,1.26A40.89,40.89,0,0,1,1749.07,1335.73Z"/>
<path class="cls-14" d="M1621.31,1336a8.64,8.64,0,0,1-5.43,7.47h-.05c-6.09,2.27-15.59,1.81-25.82.58q-2-.24-3.63-.36l-.85-.07-.64,0c-6.51-.43-8.62.72-14.19,1.62h-27.64c-13.16-2.22-18.09-7.68-18.9-10.33-.86-2.86,9.06-5.1,20.14-7.69a64.63,64.63,0,0,0,34.17,6.19c15.24-1.55,30.81-7.93,41.75-9.53.08.43.17.86.24,1.28A42.27,42.27,0,0,1,1621.31,1336Z"/>
<path class="cls-11" d="m1797.5 810.14l6.91 11.19c3.59 4.13 4.55 6.43 7.39 7.83 6.86 3.37 19.53 12 20.48 30.23 0 0-0.21 10.3-7.12 7s-3.89-3-13.7-7.52-13.43-18.87-14.31-23.71l-8-10.52z"/>
<path class="cls-15" d="m1578 485.14c-3.66-29.9 5.67-77.75 65.35-70.11s78.49 66.3 66.45 92.38 17.33 32.37 26.55 60.41c7.92 24.09 10.68 54 23.49 67.43 41.31 43.28-39.66 109.84-88.48 95.8-88.92-25.56-100.37-29.38-97.21-99.24 1.61-35.8 29.46-49.67 11.78-60-42.73-25.04 0.33-19.01-7.93-86.67z"/>
<path class="cls-16" d="M1678.74,766a326.75,326.75,0,0,1,16.81,58.41L1563.45,826s1.84-106.25-4.24-143.85,36.71-120.25,36.71-120.25c.78,0,5.84-.93,14.78-1.47a64.45,64.45,0,0,0,3.1-12.71,89,89,0,0,0,.48-21.08c-.22-2.29-.44-3.62-.44-3.62L1657,509.89l1.25-.38c.53,11.74,1.19,20.92,1.9,28.11,2.06,21,4.52,24.91,5.29,25.65a362.17,362.17,0,0,1,37,7.49S1666.56,735,1678.74,766Z"/>
<path class="cls-17" d="m1764.5 733.76c-6.61-45.65-31.14-139.4-47.61-154.73-14.57-13.56-46-14.8-46-14.8-6.52 10.23-28.87 35.63-56.59 31-15-2.47-18-29.37-18.34-33l0.1-0.4h-0.13l-0.32 0.06c-4.37 0.65-39.13 6.31-49.44 24.06-15.24 26.21-31.82 104.86-48.12 103.7-7.47-0.54-82.75-28.83-82.75-28.83s-12.54 11.75-10.14 26.16c0 0 37.17 24.89 68.6 40.77 4.36 2.2 8.6 4.23 12.62 6 11.33 5 20.88 7.86 26.09 6.62a17.41 17.41 0 0 0 4.73 -2c6.82-3.94 14.78-12.59 22.41-22.45 5.07-6.56 10-13.64 14.34-20.24l0.27-0.42c1.86 25 3.74 52.22 1.8 73.54-1.47 16.22-2.55 51.35 0.24 60.43 5.8 18.92 48.45 23.92 88.24 21.95 18.77-0.94 32-2 41.67-4.23 14-3.21 20.39-8.84 25-20 4.39-10.58-15.92-60.25-17.85-82-1.76-19.71 1.26-35.75 6.23-51.51 14 32.45 28.35 55.66 30.22 60.69 3.94 10.59 63.93 77.54 63.93 77.54a28.57 28.57 0 0 0 8.69 -3.51 20.06 20.06 0 0 0 5.95 -6c-10.58-25.02-43.84-88.4-43.84-88.4z"/>
<path class="cls-18" d="m1711.2 827.08c-4.61 11.12-11 16.75-25 20-18.71-3.6-31.05-38-37.4-55-7.32-19.52 30.82-119.9 41.34-119 7.83 0.68 9.18 14 9.44 20.5-5.06 15.92-8 31.6-6.23 51.51 1.93 21.74 22.24 71.41 17.85 81.99z"/>
<path class="cls-16" d="m1415.8 668.79s-6.43-15.73-13.49-16.37-29.55-4.18-31.16-1 0 14.78 4.82 18.95 34.69 10.92 34.69 10.92z"/>
<path class="cls-18" d="m1553.9 695.77c-4.35 6.6-9.27 13.68-14.34 20.24-7.27 9-15.31 17.61-22.41 22.45a17.41 17.41 0 0 1 -4.73 2c-5.21 1.24-14.76-1.65-26.09-6.62a124.13 124.13 0 0 0 19.88 -0.3c11.4-1 14.71-13.31 32.74-31.83 10.78-11.08 14.01-9.38 14.95-5.94z"/>
<path class="cls-19" d="M1658.22,511.83s-16.75,30.2-44.42,35.9a89,89,0,0,0,.48-21.08c-.22-2.29-.44-3.62-.44-3.62L1657,509.89Z"/>
<path class="cls-16" d="m1602.2 526.05s53.16 10.67 59.3-22.53 17.13-54.19-16.55-62.41-42.63 3.22-47.38 13.81-9.04 67.49 4.63 71.13z"/>
<path class="cls-15" d="m1671.8 443.31c-9-10.12-22.24-25.15-22.24-25.15s-26.42-8.84-52.65 17c-11.29 11.13-9.59 33-3.54 45.71 0 0 9.3-27.21 26.21-33.14a36.85 36.85 0 0 0 10.62 -6.14c2.06 5.17 6.21 12.49 14.54 21.6 17.48 19.11 14.08 57.76 14.08 57.76s28.7-59.95 12.98-77.64z"/>
<path class="cls-6" d="m1618.8 509.71s-1.42 3.94-11.42 2.15c0 0-8.41-1.5-7.63-5.92 0 0 8.57-2.22 19.05 3.77z"/>
<path class="cls-20" d="m1936.3 1340.9h81.84a4.25 4.25 0 0 0 0.83 -0.27c2.3-1.09 3.41-5.39 3.87-10.49 0.86-9.21-0.37-21-0.37-21s-27.9-23.3-32.16-6-27.48 24.62-40.65 26.47c-12.29 1.72-13.29 10.18-13.36 11.29z"/>
<path class="cls-20" d="m2009.5 1340.9h86.26c5.45-4.89 2.65-31.77 2.65-31.77s-27.9-23.3-32.17-6-27.47 24.62-40.64 26.47a26.78 26.78 0 0 0 -2.75 0.54 19.72 19.72 0 0 0 -13.35 10.76z"/>
<path class="cls-21" d="M2058.94,872.45s-.07,3.12-.19,8.74c-.78,36.23-3.88,176.31-6.82,254.4-.12,2.85-.22,5.59-.33,8.27,0,1.41-.11,2.83-.17,4.23-1.76,37.76-6.88,74.73-12,104.29-6.6,37.71-13.3,63.39-13.3,63.39-25.16,5.09-41.46-4.47-41.46-4.47s-6.78-58.52-9.36-93.94c-.85-11.49-5-50.7-10.19-98.41-4-36.89-8.68-78.86-13-117-.22-2-.44-4.07-.67-6.07-6.9-61.71-12.62-112-12.62-112l44.48-4.23Z"/>
<path class="cls-22" d="M2039.38,1252.38,1965.07,1119c-4-36.89-8.68-78.86-13-117-.22-2-.44-4.07-.67-6.07-6.9-61.71-12.62-112-12.62-112l44.48-4.23,75.45,1.54Z"/>
<path class="cls-21" d="m1947 884.22s41.58 205.5 75.45 304.69 34.3 126.74 34.3 126.74 31.08 6.73 44.77-1.09c0 0 7.83-188-12.67-238-13.56-33-23.93-103.33-20.4-128.65s6.81-76.09 6.81-76.09z"/>
<path class="cls-16" d="M1997.52,608.33l46.23-13s-7.85-19.21-10.58-39.23c-1.5-11.12-1.44-22.48,2.42-30.95.23-.53.49-1.05.76-1.56,1.76-3.29.69-4.8-1.66-5.17-4.07-.65-12,2.11-15.62,4.92l-.33.27c-5.3,4.42-30.85,17.4-32.18,18.08l-.06,0s0,.2-.09.56v0s0,.07,0,.18c-.14,1-.41,2.77-.68,5.25C1984.4,560,1983.3,588.67,1997.52,608.33Z"/>
<path class="cls-23" d="m2064.2 895.21c-9.83 6.95-25.32 9.47-42.37 9.2-19.92-0.32-42-4.43-59.58-9.7a140.21 140.21 0 0 1 -23.58 -9.08c-26.33-13.73-22.59-32-22-100.4 0.64-69.81 43.6-160.05 51.34-175.16 13.77-26.89 75.55-17 75.55-17 13.56 6.5 18.37 28.15 19.69 56.45 1.47 31.43-1.38 71.05-1.38 107.19 0 29.87 5.64 56.29 9.74 78.19 5.34 28.47 8.1 49.31-7.41 60.31z"/>
<path class="cls-24" d="m2071.7 834.93c-11.89 25.05-35.3 53.25-49.82 69.48-19.92-0.32-42-4.43-59.58-9.7-7.42-17.76-10.67-47.38-3.81-96.3 5.22-37.29 43.29-187.31 43.29-187.31 30.74-4 49.86 12.73 61.56 38.45 1.47 31.43-1.38 71.05-1.38 107.19 0.04 29.87 5.64 56.26 9.74 78.19z"/>
<path class="cls-20" d="M1928.18,954.15h27.91v-8.68a26.14,26.14,0,0,1,26.11-26.11h23.1a26.14,26.14,0,0,1,26.11,26.11v8.68h27.91a15.27,15.27,0,0,1,15.23,15.23v71.07a15.27,15.27,0,0,1-15.23,15.23H1928.18a15.27,15.27,0,0,1-15.23-15.23V969.38A15.27,15.27,0,0,1,1928.18,954.15Zm92.88-8.68a15.78,15.78,0,0,0-15.76-15.76h-23.1a15.78,15.78,0,0,0-15.76,15.76v8.68h54.62Z"/>
<path class="cls-25" d="m1985.8 901.88s-16.08 31-8 43.07 36.75-3.45 39-10.34 0-40.19 0-40.19z"/>
<path class="cls-23" d="m2054.5 659.34s-6 85.33-5.91 120.63-28 129.19-28 129.19-18.59 1.49-25.89 0.55a29.77 29.77 0 0 1 -13.41 -4.94s6.17-110.93-5.6-153.45-12.39-127.92-12.39-127.92 6.54-18.43 45.68-12.62c46.42 6.91 45.52 48.56 45.52 48.56z"/>
<path class="cls-24" d="m2035.2 553.84s10.53 33.31 8.45 39.26c0 0-57.15 7.69-80.33 30.3 0 0 7.53-32.46 16.81-40.57s55.07-28.99 55.07-28.99z"/>
<path class="cls-19" d="M1985.69,547.68c5.19,0,37.49.06,46.56,7.73a5.08,5.08,0,0,0,.92.65c-1.5-11.12-1.44-22.48,2.42-30.95-.33-2.6.38-5.42-.9-6.73-2.89-2.93-11.9,2-15.62,4.92l-.33.27c-5.3,4.42-30.85,17.4-32.18,18.08l-.15.58v0s0,.07,0,.18C1986.23,543.4,1986,545.2,1985.69,547.68Z"/>
<path class="cls-16" d="m1964.9 545.62s53.42 10.23 59.28-23.14 16.7-54.48-17.17-62.48-42.74 3.62-47.4 14.28-8.45 67.82 5.29 71.34z"/>
<path class="cls-20" d="m2033.8 537s-2.78-2.12 8-18.51 15.94-11.89 16.08-29.36 6.63-28-13.64-39.33-17-21.9-29.21-24.42-29.85 7.5-40.29 5.39-43.13 40.44-22.19 50.51c0 0 9.73 0.49 16.56-3.72s31.91-8.48 34.84-0.86 18.85 54.39 29.85 60.3z"/>
<path class="cls-26" d="m1102.6 1326l19.4-0.26s-29.17-32.38-38.13-48.86l-24.63-45.49-32.25 8 40.93 58z"/>
<path class="cls-27" d="M920.56,440.65c-7.44-4.23-16.35-4.69-22.58-4.32,1.6-1.66,4.76-2.26,4.76-2.26-3.87-.58-12.5,3.26-12.5,3.26-53.77-20.72-62.22,58.46-61.09,76.86s-18.08,24.4-46,38.89C729.71,580.73,725,617.77,725,617.77c.42.24.85.52,1.32.84,2.65-4.49,8.1-12.91,12.7-14.19-.18.41-5.44,11.6-7.4,18,15.75,12,45.21,38.52,65.74,57.34-.09-3.67.06-8.9,1.4-11.66l2.54,15.28c11,10.1,18.56,17.21,18.56,17.21-1.36-14.87,67.23-93.32,103-116.81,8.71-12.83,11.81-35.48,12-37.26-1.5,18-4.58,28-7.32,33.71C957.92,552.36,940.28,451.85,920.56,440.65Z"/>
<path class="cls-26" d="m920.78 585c0.18 0.08-17.28 9.14-30.41 5.55-12.37-3.4-20.37-19.41-20.25-19.45 5.23-1 6.74-8.22 6.63-39.11l2.36 0.46 39.76 7.88s-0.9 12.51-0.93 24.3c-0.02 9.89 0.58 19.28 2.84 20.37z"/>
<path class="cls-10" d="m875.82 453.62s19.61-20.89 44.24-1.07c0 0-14.33-2.48-44.24 1.07z"/>
<path class="cls-28" d="M918.87,540.33s-.9,12.51-.93,24.3c-22.25-.63-34-20.93-38.83-32.18Z"/>
<path class="cls-27" d="M875,528.12S863.35,509.7,860.55,494c-2-11.25,3.73-52.94,45.62-46.93a56.81,56.81,0,0,1,23.61,8.92c9.09,6.14,22.22,19.4,7.54,55.78L933.51,524Z"/>
<path class="cls-29" d="M1077.35,1260.93l-21.08.65-22.81.69s-52.7-58.66-82.25-152.71q-1-3.29-2.19-6.64c-16.18-47.17-49.71-106.38-67.38-160q-4.23-12.8-7.61-24.17c-.72-2.44-1.43-4.83-2.1-7.18-13-45.26-16.8-75-20.27-106.71l112.84.9S999.87,1022.67,1077.35,1260.93Z"/>
<path class="cls-30" d="m961.4 732.58c1.5 60.71 8.91 86.78 8.91 86.78s-54.64 27.76-119.58 7.33c-0.76-0.24 4.21-250.86 22.63-257.77 4.24 5.28 16.86 10.41 28.09 10.15 12.94-0.28 17.13-5.82 16.46-11.87 13.79 7.67 41.35 78.46 43.49 165.38z"/>
<path class="cls-26" d="M926.3,551.49s-52.64.87-52.67-31.93-6.86-54.76,26.75-56.7,40.15,10.57,42.83,21.51S940,550.42,926.3,551.49Z"/>
<path class="cls-27" d="m941.64 466.14c-8.12-9.85-14.26-7.71-17.71-4.75-11.38-17-47.33 7.58-47.33 7.58-17.7 16.85-20.49 37-20.49 37s9.59 5.92 31.71 0.24c17.41-4.48 30-29.26 34.64-39.61 3.13 2.78 9.73 9.21 11.71 15.51 2.63 8.35 3.81 25.54 8.82 25 0.01-0.03 10.85-26.18-1.35-40.97z"/>
<path class="cls-26" d="m1138.1 605.91s7.42-26.75 36.83-23c3.37 1.06 13.23 5 6.93 15.55-4.65 7.78-6.66 3.76-14 14.22s-15.24 12.82-24.3 11.57z"/>
<path class="cls-26" d="m886.86 1324.1c-1.79-9.85-5.2-26.89-5.2-26.89l0.79-60.46h-36.71l13.74 57.87a58.91 58.91 0 0 1 -2.83 24.16s-3.52 16.07 12.3 16.37 19.71-1.2 17.91-11.05z"/>
<path class="cls-31" d="m856.65 1318.8s-3.13 17-1.34 25h33.24s0.14-18.41-2.77-25.43c0 0.02-11.21 16.85-29.13 0.43z"/>
<path class="cls-31" d="m1122.3 1325.9a2.59 2.59 0 0 1 -0.33 -0.17c-7.76 0.24-15.58-2.61-22.67-10.58-21.55-24.28-33.66-27-37.89-27-3.64 7.5-7.65 15.93-2.49 25.42l7.72 30.24h8.36l0.09-28.54c5.48 1.44 10.83 4.06 13.21 8.83 5.82 11.64 9.86 19.71 15.27 19.71h37.4s-0.76-9.85-18.67-17.91z"/>
<path class="cls-10" d="M1138.13,605.91s-34.55,19.32-46.9,24.89c-7,3.18-23.22,10.76-34.63,16.12a17.82,17.82,0,0,1-21.11-4.55c-18.73-21.88-67.27-69.34-117.35-75.17l.06.13-.29-.13s30.46,75.25,31.35,90.47,3.59,249,3.59,249-1.79,10.75,18.81,6.27,26-9,26-9-19.7-144.21-14.33-194.37c1.06-9.88.1-21-2.13-32.48,30.52,18.56,66.62,26.81,66.62,26.81s27-11.77,63.9-38.81c11.58-8.49,31.93-40.86,31.93-40.86Z"/>
<path class="cls-32" d="m1056.3 1261.6l-22.81 0.69s-52.7-58.66-82.25-152.71q-1-3.29-2.19-6.64c-16.18-47.17-49.71-106.38-67.38-160q-4.23-12.8-7.61-24.17c-0.72-2.44-1.43-4.83-2.1-7.18l18.79-14.26s56.42 91.36 73.89 177.34c15.17 74.71 75.93 164.58 91.66 186.93z"/>
<path class="cls-27" d="M996.37,695.66l-1.11,3.41-59.06-19.2a2.26,2.26,0,0,1-.37-2.1,1.67,1.67,0,0,1,1.48-1.31Z"/>
<path class="cls-29" d="M892.68,1082.68c.32,41.82-1.79,137.94-7.24,177.74h-20.2c-11.17,0-16.75-.16-16.75-.16-13.66-69.19-23.37-126.45-30.45-175.78-5.8-40.49-11-75.2-14.93-105.08-4-30.07-6.77-55.25-7.77-76.52-.15-3.35-.27-6.61-.33-9.77s-.08-6.27,0-9.27l110.26-10.75C903.83,946.35,892.5,1058.38,892.68,1082.68Z"/>
<path class="cls-32" d="m865.24 1260.4c-11.17 0-16.75-0.16-16.75-0.16-13.66-69.19-23.37-126.45-30.45-175.78-5.8-40.49-11-75.2-14.93-105.08-4-30.07-6.77-55.25-7.77-76.52l40.46 23.8s-25.82 9.11-16 78.08 31.72 245.9 45.44 255.66z"/>
<path class="cls-10" d="M870.44,902.2s-7.76,28.06-34.63,24.48S770.72,907,770.72,907s11.49-36.28,25.76-84c17.29-57.71,38.69-132.11,48.77-179,2.84-13.15,4.77-24.13,5.49-32l22.62-43.07s32.91,74.42,34.7,93.23S870.44,902.2,870.44,902.2Z"/>
<path class="cls-31" d="M869.25,701.56c-1.2,30.46-8.36,89.57-72.26,121.22-.17.08-.34.17-.51.24,17.29-57.71,38.69-132.11,48.77-179C857,661.52,869.91,684.79,869.25,701.56Z"/>
<path class="cls-26" d="m984.87 684.91c0 3.65-10.57 29.1-29.12 44.3-3.59 2.94-6.47 4.37-8.76 4.76a386.21 386.21 0 0 1 -77.71 18.33v-33.71c26.29-1.68 58.68-3.44 72-4.16 2.19-3.49 4.77-8.44 5.63-13.44 1.59-9.27 6.56-16.14 19.49-17.84s18.5-1.89 18.47 1.76z"/>
<path class="cls-27" d="m1163.4 574.3l59.73 38.84a3.44 3.44 0 0 1 1 3.06l-28.75 97.26c-0.4 1.36-1.78 1.59-2.92 0.74l-57.94-43.39c-0.67-0.51-1.17-1.06-0.94-1.87l26.39-93.1c0.42-1.32 2.28-2.29 3.43-1.54z"/>
<path class="cls-33" d="M1161.35,572.9l60.24,39.22a2,2,0,0,1,.85,2.29l-28.75,97.26a2,2,0,0,1-3.17,1.05l-57.9-43.39a2,2,0,0,1-.73-2.18l26.39-93.1A2,2,0,0,1,1161.35,572.9Z"/>
<polygon class="cls-6" points="1161 577.17 1219.4 614.46 1192.9 700.07 1137.8 660.21"/>
<path class="cls-27" d="m1156.5 681.71a2.39 2.39 0 1 1 2.39 2.39 2.39 2.39 0 0 1 -2.39 -2.39z"/>
<polygon class="cls-6" points="1180.8 686.74 1152.6 667.04 1172 588.35 1200.2 608.05"/>
<g class="cls-34">
<path class="cls-35" d="M1186.41,640.93l-18.68-13a1.23,1.23,0,0,1-.2-1.17l.08-.33c.12-.48.4-.74.63-.58l18.68,13.05a1.22,1.22,0,0,1,.2,1.17l-.08.33C1186.92,640.83,1186.64,641.09,1186.41,640.93Z"/>
<path class="cls-35" d="M1189.82,627.09,1171.15,614a1.25,1.25,0,0,1-.21-1.17l.09-.33c.11-.48.4-.74.63-.58l18.68,13a1.22,1.22,0,0,1,.2,1.17l-.08.33C1190.34,627,1190.06,627.25,1189.82,627.09Z"/>
<path class="cls-35" d="M1188.64,631.9l-18.68-13a1.23,1.23,0,0,1-.2-1.17l.08-.33c.12-.48.4-.74.64-.58l18.67,13.05a1.22,1.22,0,0,1,.2,1.17l-.08.33C1189.15,631.8,1188.87,632.06,1188.64,631.9Z"/>
<path class="cls-35" d="M1187.52,636.41l-18.67-13a1.22,1.22,0,0,1-.21-1.17l.08-.33c.12-.48.41-.74.64-.58L1188,634.34a1.18,1.18,0,0,1,.21,1.16l-.08.33C1188,636.31,1187.75,636.57,1187.52,636.41Z"/>
<path class="cls-35" d="M1184.13,650.13l-18.67-13a1.25,1.25,0,0,1-.21-1.17l.08-.33c.12-.48.41-.74.64-.58l18.68,13a1.23,1.23,0,0,1,.2,1.17l-.08.33C1184.65,650,1184.36,650.29,1184.13,650.13Z"/>
<path class="cls-35" d="M1185.25,645.61l-18.68-13.05a1.2,1.2,0,0,1-.2-1.16l.08-.33c.12-.48.41-.74.64-.58l18.67,13a1.25,1.25,0,0,1,.21,1.17l-.08.32C1185.77,645.51,1185.48,645.78,1185.25,645.61Z"/>
<path class="cls-35" d="m1180.6 664.26l-4.54-3.17a1.45 1.45 0 0 1 -0.24 -1.38c0.14-0.57 0.48-0.88 0.76-0.69l4.53 3.17a1.44 1.44 0 0 1 0.25 1.39c-0.14 0.57-0.49 0.88-0.76 0.68z"/>
<path class="cls-35" d="m1166.6 654.55l-4.53-3.17a1.42 1.42 0 0 1 -0.24 -1.38c0.14-0.57 0.48-0.88 0.75-0.69l4.54 3.17a1.46 1.46 0 0 1 0.24 1.39c-0.14 0.57-0.48 0.88-0.76 0.68z"/>
</g>
<path class="cls-8" d="M1179.4,676.46a.43.43,0,0,1-.24-.08l-6.62-4.63a1.87,1.87,0,0,1-.32-1.81l1-4c.14-.59.46-1,.78-1a.39.39,0,0,1,.25.08l6.61,4.62a1.87,1.87,0,0,1,.33,1.81l-1,4C1180,676.06,1179.73,676.46,1179.4,676.46ZM1174,665.07c-.28,0-.57.38-.7.92l-1,4a1.84,1.84,0,0,0,.29,1.73l6.62,4.62a.33.33,0,0,0,.19.06c.28,0,.57-.37.71-.92l1-4a1.81,1.81,0,0,0-.3-1.72l-6.61-4.63A.36.36,0,0,0,1174,665.07Z"/>
<path class="cls-8" d="M1165.48,666.73a.46.46,0,0,1-.24-.08l-6.61-4.62a1.89,1.89,0,0,1-.33-1.82l1-4c.15-.59.46-1,.79-1a.46.46,0,0,1,.24.08l6.61,4.62a1.89,1.89,0,0,1,.33,1.82l-1,4C1166.12,666.33,1165.81,666.73,1165.48,666.73Zm-5.41-11.39c-.29,0-.58.38-.71.92l-1,4a1.85,1.85,0,0,0,.29,1.73l6.62,4.62a.37.37,0,0,0,.19.07c.29,0,.58-.38.71-.92l1-4a1.85,1.85,0,0,0-.29-1.73l-6.62-4.62A.3.3,0,0,0,1160.07,655.34Z"/>
<path class="cls-8" d="M1174.09,599.22c.35-1.43,1.16-2.23,1.9-1.71a2.1,2.1,0,0,1,.73,1.46l-.51.54a1.43,1.43,0,0,0-.48-1c-.4-.29-.87.21-1.09,1.08s-.1,1.78.32,2.06c.27.2.5.09.77-.14l.16,1a.83.83,0,0,1-1.2.16C1174,602.17,1173.73,600.67,1174.09,599.22Z"/>
<path class="cls-8" d="m1176.6 600.94c0.35-1.42 1.18-2.21 1.93-1.69s1 2 0.63 3.48-1.18 2.21-1.92 1.69-0.99-2.04-0.64-3.48zm2 1.41a2.19 2.19 0 0 0 -0.34 -2.09c-0.43-0.3-0.9 0.2-1.11 1.07s-0.09 1.79 0.34 2.08 0.9-0.19 1.12-1.06z"/>
<path class="cls-8" d="M1180.21,600.56l.49.34.37,3.87.76-3.08.52.37-1.23,5-.45-.31-.38-4-.79,3.18-.52-.36Z"/>
<path class="cls-8" d="M1183.24,603.87l-.73-.51.25-1,2,1.4-.25,1-.74-.51-1,4-.53-.37Z"/>
<path class="cls-8" d="M1185.16,604l1.11.77a1.46,1.46,0,0,1,.57,1,3.11,3.11,0,0,1-.08,1.3c-.2.81-.53,1.17-.9,1.19l.15,2.2-.62-.43-.13-2-.41-.29-.39,1.61-.53-.37Zm.47,3.18c.26.18.48,0,.59-.44a.92.92,0,0,0-.24-1l-.53-.37-.36,1.44Z"/>
<path class="cls-8" d="M1188.49,606.3l.49.34-.21,5.77-.56-.39.06-1.28-1-.71-.5,1-.54-.38Zm-.17,3.34.08-1.85-.72,1.4Z"/>
<path class="cls-8" d="M1189.49,610c.36-1.42,1.16-2.23,1.9-1.71a2.13,2.13,0,0,1,.73,1.47l-.5.53a1.5,1.5,0,0,0-.48-1c-.41-.28-.88.22-1.09,1.09s-.1,1.77.31,2.06.5.08.78-.14l.15,1a.82.82,0,0,1-1.2.16C1189.38,612.94,1189.14,611.43,1189.49,610Z"/>
<path class="cls-8" d="M1193.07,610.74l-.73-.52.25-1,2,1.39-.25,1-.73-.51-1,4-.54-.37Z"/>
<path class="cls-9" d="M1181.56,669.56a22.61,22.61,0,0,0-3.24,1.05c.06-.23.12-.46.17-.7s-.07-.4-.16-.23a1.93,1.93,0,0,1-.13.21c0-.16,0-.33-.14-.25h0c.06-.22-.1-.37-.18-.17l-.12.29a.44.44,0,0,1-.34.25,2.77,2.77,0,0,1,0-.41.29.29,0,0,0-.07-.22c0-.13,0-.24-.11-.21a.47.47,0,0,0-.26.23c0-.25-.2-.21-.31-.07v0c.06-.17,0-.44-.11-.31a2.18,2.18,0,0,0-.47,1,1.73,1.73,0,0,1-.23.29c0,.05-.21.27-.25.21a.85.85,0,0,1,0-.37l0,0c.16-.32.93-1.82.5-2.1-.05,0-.1,0-.14.08a8,8,0,0,0-.49,1.5c0,.1-.06.23-.08.38l0,.09c-.22.4-.51,1-.81,1a11.39,11.39,0,0,1,.5-2.43c.08-.33.17-.65.27-1,0,0,0,0,.06,0a2.44,2.44,0,0,0,.45-1.83c0-.2-.16-.13-.2,0-.3.92-.57,1.87-.83,2.83a11.24,11.24,0,0,0-.48,2.67c0,.1,0,.17.09.18.33.06.66-.4.93-.89a.56.56,0,0,0,.07.24c.14.2.38,0,.55-.25a1.93,1.93,0,0,0,0,.34c0,.12,0,.18.12.17a.8.8,0,0,0,.42-.32c.15,0,.3-.18.43-.43.07-.09.15-.18.22-.29a1,1,0,0,0,0,.25c0,.18.19.14.28.11a.61.61,0,0,0,.26-.18.18.18,0,0,0,.16,0l0,.11c0,.13.12.14.19.09a1.82,1.82,0,0,1-.07.25l-.47.21c-.1,0-.15.36,0,.42l.41.21c.06,0,.11,0,.15-.14l.09-.32a22.1,22.1,0,0,1,3.4-1.11C1181.72,670,1181.71,669.53,1181.56,669.56Zm-4.88.29a1.09,1.09,0,0,1,0,.17l0,.1A2.14,2.14,0,0,1,1176.68,669.85Zm-.34.37a1.38,1.38,0,0,0,0,.34.38.38,0,0,1-.11.08,1.84,1.84,0,0,1,0-.41l.15-.3Z"/>
<path class="cls-9" d="M1163.3,655.3c-.47,1.28-.8,2.7-1.21,4a12.94,12.94,0,0,1-.7,1.85c-.19.39-.6,1.23-.86.81a.56.56,0,0,1,0-.43l0-.11a.1.1,0,0,0,.15.06.69.69,0,0,0,.24-.38.84.84,0,0,0,0-.54c-.06-.13-.16-.12-.24,0a1.67,1.67,0,0,0-.19.49,2.59,2.59,0,0,0-.16.68c0,.36.14.6.3.63s.41-.24.57-.5a9.33,9.33,0,0,0,.52-1,22.31,22.31,0,0,0,.8-2.47c.28-1,.54-2,.89-2.91C1163.46,655.3,1163.36,655.15,1163.3,655.3Zm-2.48,5.58a.51.51,0,0,1-.1.3.15.15,0,0,1,0,.06l0,0h0a.09.09,0,0,0,0-.07l.06-.21C1160.7,660.89,1160.82,660.63,1160.82,660.88Z"/>
<path class="cls-9" d="M1165.3,661.73a.36.36,0,0,1-.24.06l-.06,0a.84.84,0,0,0,.15-.33c0-.21-.07-.33-.17-.28s-.16.21-.18.38a.43.43,0,0,0,0,.16c-.09.08-.23.16-.31.07a1.31,1.31,0,0,0,.31-.42.23.23,0,0,0,0-.14c0-.17-.13-.24-.22-.2a.65.65,0,0,0-.24.4,1.16,1.16,0,0,0,0,.18.3.3,0,0,1-.3-.05h0a.71.71,0,0,0,.1-.14.19.19,0,0,0,0-.23c-.09-.09-.17,0-.21.21a2.07,2.07,0,0,1-.52.44s-.1.09-.13,0a1.36,1.36,0,0,0,.22-.25,1,1,0,0,0,.16-.84c0-.05-.07-.07-.1,0l-.21.41a3.17,3.17,0,0,0-.17.37l0,.16a.5.5,0,0,1-.2.08h0l.11-.12a.79.79,0,0,0,.24-.5,1.7,1.7,0,0,0-.08-.61s0,0-.08,0a2,2,0,0,0-.5.91.88.88,0,0,0,0,.39c-.18.17-.37.34-.56.49,0,0-.06.08-.08,0s0-.1,0-.14l0-.32c0-.22.08-.45.14-.66s.11-.36.17-.53c0,0,0,.05.07,0a1.12,1.12,0,0,0,.25-.71c0-.1-.07-.13-.11-.07a5.16,5.16,0,0,0-.69,2.34c0,.2,0,.39.13.36a.45.45,0,0,0,.16-.12l.21-.17.38-.34a.3.3,0,0,0,.21,0,.63.63,0,0,0,.25-.09c0,.1,0,.19.11.21s.16,0,.22-.09l.22-.16.21-.2a.16.16,0,0,0,.07.11.3.3,0,0,0,.17.08.46.46,0,0,0,.2,0s0,0,0,.07a.25.25,0,0,0,.26.14.63.63,0,0,0,.25-.14l.07.09c.11.11.25,0,.38,0S1165.39,661.69,1165.3,661.73Zm-2.52-.4a1.59,1.59,0,0,1,.32-.56.72.72,0,0,1,0,.48.68.68,0,0,1-.15.18l-.18.17,0,0A.79.79,0,0,1,1162.78,661.33Zm.75-.27a.88.88,0,0,1-.16.35l0,0C1163.4,661.31,1163.47,661.19,1163.53,661.06Zm1.13.19a.92.92,0,0,1-.18.23C1164.52,661.34,1164.61,661.21,1164.66,661.25Zm.3.2s0-.09,0,0a.6.6,0,0,1-.06.11A.19.19,0,0,1,1165,661.45Z"/>
<polygon class="cls-27" points="1000.6 698.95 996.37 695.66 995.26 699.07"/>
<path class="cls-10" d="m873.36 568.92s-54.87 3.66-68 32.92-17.36 126.59-0.6 155.26c0 0 23 6.55 63.73-1.06l1.5-0.29s13-31.8 1.35-38.06c0 0-34.34 1.79-30.76-9.56s32.78-139.21 32.78-139.21z"/>
<path class="cls-1" d="m2517.7 1347.4h-2514.7a3 3 0 0 1 -3 -3 3 3 0 0 1 3 -3h2514.7a3 3 0 0 1 3 3 3 3 0 0 1 -3 3z"/>
</g>
</g>
</svg>
