<?xml version="1.0" encoding="UTF-8" standalone="no"?>
<svg xmlns:dc="http://purl.org/dc/elements/1.1/"
  xmlns:cc="http://creativecommons.org/ns#"
  xmlns:rdf="http://www.w3.org/1999/02/22-rdf-syntax-ns#"
  xmlns:svg="http://www.w3.org/2000/svg"
  xmlns="http://www.w3.org/2000/svg"
  xmlns:sodipodi="http://sodipodi.sourceforge.net/DTD/sodipodi-0.dtd"
  xmlns:inkscape="http://www.inkscape.org/namespaces/inkscape" version="1.1" id="svg2" xml:space="preserve" width="4000" height="2666.6667" viewBox="0 0 4000 2666.6667" sodipodi:docname="8263.eps">
  <metadata id="metadata8">
    <rdf:RDF>
      <cc:Work rdf:about="">
        <dc:format>image/svg+xml</dc:format>
        <dc:type rdf:resource="http://purl.org/dc/dcmitype/StillImage" />
      </cc:Work>
    </rdf:RDF>
  </metadata>
  <defs id="defs6" />
  <sodipodi:namedview bordercolor="#666666" borderopacity="1" objecttolerance="10" gridtolerance="10" guidetolerance="10" inkscape:pageopacity="0" inkscape:pageshadow="2" inkscape:window-width="640" inkscape:window-height="480" id="namedview4" />
  <g id="g10" inkscape:groupmode="layer" inkscape:label="ink_ext_XXXXXX" transform="matrix(1.3333333,0,0,-1.3333333,0,2666.6667)">
    <g id="g12" transform="scale(0.1)">
      <path d="m 24708,12450.4 c -1029.3,878 -2270.2,6173.1 -6521.2,3415.3 -1171.5,-760.1 -2771.8,-361.3 -4475.4,37.6 -1490.2,348.8 -3059.3,697.7 -4489.57,270.9 C 6406.7,15334.3 6135.34,12566.7 6407.72,11664.9 6957.94,9843.3 5245.7,9572.2 3657.32,8789.6 1165.78,7561.9 2997.92,3247.4 5351.71,3226.7 c 2353.78,-20.6 16613.49,41.1 16613.49,41.1 0,0 3419.4,-8.6 4841.3,1878.6 1530.2,2030.8 560.2,5036.1 -2098.5,7304" style="fill:#ebf2f9;fill-opacity:1;fill-rule:nonzero;stroke:none" id="path16" />
      <path d="m 9501.7,3298.3 c 0,0 -1227.32,746.7 -1089.24,1427.1 138.07,680.3 1442.1,-414.8 1442.1,334 0,748.8 -966.52,1678.8 -322.18,1967.2 644.32,288.5 2025.12,-713 1948.32,-1770.7 -76.7,-1057.6 1445.8,258.6 2073,-530.5 627.1,-789.2 -385.4,-1427.1 -385.4,-1427.1 H 9501.7" style="fill:#a8d29f;fill-opacity:1;fill-rule:nonzero;stroke:none" id="path18" />
      <path d="m 18130.4,3268.4 c 0,0 -1227.3,1619.2 -1089.2,3094.4 138,1475.2 1442.1,-899.3 1442.1,724.3 0,1623.6 -966.6,3640.3 -322.2,4265.7 644.3,625.5 2025.1,-1546.1 1948.4,-3839.5 -76.8,-2293.4 1445.7,560.7 2072.9,-1150.5 C 22809.6,4651.7 21797,3268.4 21797,3268.4 h -3666.6" style="fill:#a8d29f;fill-opacity:1;fill-rule:nonzero;stroke:none" id="path20" />
      <path d="m 16343.5,7882 c -247.6,-248.4 -520.4,-464.2 -814.9,-646 -714,521.8 -1476.8,968.4 -2271.5,1330 109.3,200.2 217,411.6 322.1,632.3 727.4,-96.4 1426.7,-154.2 2065.2,-169.2 166.6,-4.8 328.4,-4.8 485.4,-3.6 406.9,4.8 769.2,29 1079.5,72.5 -217.3,-450.4 -508.4,-858.6 -865.8,-1216 m -1423.7,-960 c -553,-234.3 -1138.7,-352.6 -1743.6,-352.6 -466.1,0 -921.4,70.3 -1358.7,209.6 331.4,173.8 664.5,572.8 920.9,940.4 132.3,189.6 264.5,399.5 395,626 752.5,-340.8 1476,-759.4 2155.7,-1247.1 -120,-64.1 -243.1,-122.9 -369.3,-176.3 M 9046.4,9306.9 c -10.24,24.3 -20.21,48.7 -30,73.1 393.14,-16 1046.5,-80.6 1810.4,-255.1 55.3,-12.7 110.5,-25.9 165.7,-39.3 -42,-245.1 -73,-479.4 -92.2,-699.5 -36.2,-417.1 -38.8,-898 77.5,-1241.5 -354.1,199.4 -678.8,446 -970.2,737.4 -411.77,411.7 -735.4,891.1 -961.2,1424.9 M 8888.22,10320 c 115.91,-43.5 234.26,-86.9 356.22,-129.2 560.63,-194.3 1189.06,-374.9 1861.36,-535 -24.4,-109 -46.9,-216.3 -67.6,-322 -55,13.3 -109.9,26.4 -164.9,38.9 -929.41,211.6 -1626.84,254.6 -1950.12,261.9 -80.09,241.2 -138.97,487.9 -176.24,739.7 47.09,-18.1 94.18,-36.2 141.28,-54.3 m -649.66,513.2 c -856.14,417.8 -1247.38,821.1 -1072.29,1107.3 141.28,231.9 655.69,388.8 1443.01,446.8 -96.6,-326.1 -155.78,-662.9 -178.72,-1004.7 -7.25,-101.4 -10.87,-202.9 -12.08,-305.5 v -26.6 c 0,-102.6 3.63,-205.2 9.67,-306.7 -65.22,29 -128,59.2 -189.59,89.4 m 807.84,1961 c 39.85,91.8 80.9,182.4 125.58,270.5 l 0.12,0.2 c 553.43,-691.7 1369.2,-1398.9 2322.3,-2012.2 -135.2,-411.3 -250.5,-815.5 -343.5,-1202.9 -693.4,167.7 -1336.06,357.6 -1899.21,560.8 -118.35,42.2 -233.06,85.7 -342.95,129.2 -65.2,25.3 -129.2,51.9 -191.99,78.4 -9.67,96.7 -16.91,194.5 -19.33,292.3 -1.2,47.1 -2.41,92.9 -2.41,140 0,54.4 1.21,109.9 2.41,164.3 15.7,406.9 84.53,804.2 205.28,1188.2 20.54,65.2 42.26,129.2 66.42,193.2 24.15,66.4 49.51,132.8 77.28,198 M 8798.94,14971 c 145.67,231.2 471.18,350.5 928.23,350.5 218.6,0 467.43,-27.2 740.93,-82.8 103.9,-21 209.9,-45.7 317.8,-74.2 l 0.3,-0.1 c -354.9,-205.2 -680.9,-456.3 -974.23,-750.9 -61.58,-60.4 -120.75,-123.1 -178.71,-188.3 -72.45,-79.8 -141.28,-163.1 -207.69,-247.6 -106.26,-135.2 -204.07,-276.5 -294.64,-421.4 l -0.22,-0.4 c -403.88,599.7 -525.3,1108.2 -331.77,1415.2 m 4377.26,560.7 c 310.3,0 615.6,-31.2 914,-93.2 -352,-153.2 -711.3,-579.6 -984.1,-970.7 -279.2,-400.2 -558,-889.9 -821.2,-1438.2 -177.6,96.5 -345.7,200.8 -503.5,312.8 -523.6,371.5 -837.3,760.5 -1008.2,1021.4 -90.8,138.5 -152,256.5 -191,341.2 183.8,130.7 377.1,247.4 579.1,349.4 l 0.2,-0.1 c 82.3,41.6 166.2,80.4 251.3,116.9 6.2,2.6 12.3,5.3 18.5,7.9 1.4,0.6 2.9,1.2 4.3,1.8 18.1,7.7 36.4,15.2 54.6,22.5 4.9,2 9.9,4 14.7,5.9 530.2,213.7 1092.9,322.4 1671.3,322.4 m 3167.3,-1312.6 c 411.8,-411.8 735.4,-891.2 961.2,-1424.9 80.6,-190.7 147.4,-385.5 200.3,-583.9 -1032.7,-75.5 -1979.1,-51.8 -2825,70.7 134.2,548.5 224.6,1064.4 264.2,1520.2 43.8,503.3 38.5,1099.4 -165.6,1434.9 47.3,-18.2 94.4,-37.2 141.2,-57 533.8,-225.8 1013.2,-548.2 1423.7,-960 m -2460.2,-2045.5 c 157.4,-36.5 319.1,-69 484.4,-97.8 -116.2,-437.1 -259.2,-892.3 -425.9,-1351.9 -64.3,-177.2 -130.8,-351.6 -199.3,-522.5 -626.2,229.9 -1290.9,558.7 -1944.3,964.9 33.8,98.8 68.6,197.8 104.6,297.1 154.9,427 323,838 499.2,1222.9 444.2,-215.2 939.5,-386.9 1481.3,-512.7 m 540,3058.8 c 137.4,-49.8 207.2,-247.1 241.5,-403.7 54.2,-247.6 64.1,-595.3 28.4,-1005.7 -39.1,-449.1 -129,-959.2 -262.9,-1502.4 -161.6,27.8 -319.5,59.2 -473.3,94.6 -531.2,122.2 -1015.5,289.3 -1448,499.2 258,538.2 530.9,1018.2 803.8,1409.3 235.6,337.8 466.1,598.4 666.4,753.6 104.5,81.1 245.2,167.8 368.4,167.8 26.2,0 51.6,-4 75.7,-12.7 m -4046.5,-682.6 c 41.3,-84.6 98.3,-189.4 175.2,-308.1 327.4,-506.1 759.9,-873 1065.1,-1091.7 175.2,-125.5 362.2,-241.9 560.5,-348.9 -180.9,-394.2 -353.2,-814.9 -511.7,-1251.8 -29.5,-81.5 -58.3,-162.8 -86.3,-243.9 -946.4,616 -1747.59,1322.8 -2273.17,2006.9 l -0.22,0.3 c 131.59,224.5 282.46,436.9 451.43,636 70.03,82.1 142.49,161.8 218.56,239.1 10.87,10.9 20.53,20.5 31.4,31.4 117.5,117.6 240.8,227.7 369.2,330.7 M 11959,9669.1 c -190.6,39.2 -378.4,80.2 -563,122.8 86.9,361.5 193.6,738.5 318.3,1122.6 647.8,-398.2 1306.5,-722.2 1930.3,-952.1 -78.3,-186.8 -158.6,-368.9 -240.7,-545.3 -473.8,68 -958.6,152.3 -1444.9,252 m 1066.9,-1000.9 c -568.5,245 -1152.9,447.4 -1743.2,603.7 20.8,107.1 43.6,216.1 68.4,326.7 164.2,-37.3 330.6,-73.4 499.2,-108.2 493.2,-100.9 985.3,-186.5 1466.9,-255.8 -95.3,-197.4 -192.7,-386.6 -291.3,-566.4 M 11421.2,6954.9 c -137.4,49.8 -207.1,247 -241.5,403.7 -54.2,247.5 -64,595.3 -28.3,1005.6 18,207.6 47,428.2 86.1,659 563.2,-150.1 1120.9,-343.2 1664,-575.8 -122.3,-210.9 -246,-406.5 -369.7,-583.8 -235.7,-337.8 -466.1,-598.4 -666.5,-753.7 -126.7,-98.2 -306.7,-204.9 -444.1,-155 m 5885.9,2358 c -322.4,-58 -724.5,-91.8 -1194.2,-96.6 -728.9,-8.9 -1566,48.7 -2448.2,164.9 74.2,161.6 147,327.7 218,497.5 273.7,-91.6 539.4,-164.1 792.8,-215.5 290.2,-58.9 555.1,-88 791.6,-88 554.2,0 951.2,160 1147.3,471.2 32.3,51.3 58.6,105.7 78.9,163.1 h -282.5 c -4.7,-8.6 -9.6,-17.1 -14.9,-25.4 -145.6,-231.2 -471.1,-350.6 -928.2,-350.5 -218.6,0 -467.5,27.3 -740.9,82.8 -238.4,48.3 -488.4,116.3 -746.2,201.8 68,170.2 134.2,343.7 198,519.8 172.2,474.8 319.7,945.5 438.9,1397.5 543.6,-80.1 1126.9,-120.3 1746.8,-120.3 385.9,0 786.1,15.5 1199.4,46.7 61.4,-297.5 92.4,-602.1 92.4,-911.4 0,-602.5 -117.1,-1187 -349,-1737.6 m 1136.3,778.9 -368.3,8.4 c 118.4,-153.3 144.9,-294.6 71.3,-414.2 -73.7,-121.9 -250,-222.2 -513.2,-298.2 199.2,530.1 299.4,1089.2 299.4,1662.7 0,642.4 -125.5,1265.5 -374.3,1851.2 -239.1,566.3 -582,1075.9 -1019.2,1511.8 -437.1,437.2 -945.5,780.1 -1511.8,1020.4 -586.8,247.5 -1209.9,373.1 -1851.1,373.1 -642.4,0 -1265.5,-125.6 -1852.4,-373.1 -70,-30.2 -140.1,-61.6 -207.7,-94.2 l -0.6,-0.3 c -204.6,62.4 -403.8,113.6 -596.1,152.5 -970.48,197 -1659.2,60.9 -1938.95,-383.2 -266.23,-422.4 -121.3,-1058.2 406.98,-1799.7 l -0.19,-0.4 c -71.25,-131.6 -135.25,-266.8 -194.43,-406.9 -44.67,-105.1 -84.52,-210.1 -120.75,-317.6 -992.59,-59.2 -1523.9,-233.8 -1717.11,-550.2 -224.6,-368.3 82.12,-862.6 1063.84,-1343.2 135.25,-66.4 280.15,-131.6 432.3,-196.8 50.71,-445.6 165.43,-879.1 341.72,-1294.5 239.11,-566.3 582.04,-1075.9 1019.16,-1513 437.13,-436 945.53,-778.9 1511.83,-1019.2 586.9,-247.5 1210,-373.1 1852.4,-373.1 641.2,0 1264.3,125.6 1851.1,373.1 566.3,240.3 1074.7,583.2 1511.8,1019.2 425.1,425 762,920.1 999.9,1468.3 484.2,100.2 803,257.2 929.8,464.9 88.1,143.7 77.3,303.1 -25.4,472.2" style="fill:#adcbf9;fill-opacity:1;fill-rule:nonzero;stroke:none" id="path22" />
      <path d="m 12145.4,16090.2 -1125.4,-191.1 736.1,530.8 42.5,-162.8 276,-42.4 70.8,-134.5" style="fill:#456aa3;fill-opacity:1;fill-rule:nonzero;stroke:none" id="path24" />
      <path d="m 11020,15899.1 927.2,509.6 920.2,70.7 z" style="fill:#adcbf9;fill-opacity:1;fill-rule:nonzero;stroke:none" id="path26" />
      <path d="m 11756.1,16429.9 -736.1,-530.8 559.2,813.9 z" style="fill:#adcbf9;fill-opacity:1;fill-rule:nonzero;stroke:none" id="path28" />
      <path d="m 7203.61,13344.8 1065.2,-410.4 -616.31,666.2 -73.89,-151.1 -278.98,13.1 -96.02,-117.8" style="fill:#456aa3;fill-opacity:1;fill-rule:nonzero;stroke:none" id="path30" />
      <path d="m 8268.81,12934.4 -807.83,683.3 -887.86,251.7 z" style="fill:#adcbf9;fill-opacity:1;fill-rule:nonzero;stroke:none" id="path32" />
      <path d="m 7652.5,13600.6 616.31,-666.2 -386.77,908.7 z" style="fill:#adcbf9;fill-opacity:1;fill-rule:nonzero;stroke:none" id="path34" />
      <path d="m 10785.8,3285.9 h 8034.1 l 2692.7,10800 h -8034.1 l -2692.7,-10800" style="fill:#3b76ca;fill-opacity:1;fill-rule:nonzero;stroke:none" id="path36" />
      <path d="m 11128.6,3631.1 h 7520.6 l 2520.6,10109.6 H 13649.2 L 11128.6,3631.1" style="fill:#ffffff;fill-opacity:1;fill-rule:nonzero;stroke:none" id="path38" />
      <path d="m 13782.6,9081.2 h 4982 c 61.7,0 124.8,50.5 140.2,112.2 l 10.5,42.1 c 15.4,61.8 -22.5,112.3 -84.3,112.3 h -4981.9 c -61.8,0 -124.9,-50.5 -140.3,-112.3 l -10.5,-42.1 c -15.4,-61.7 22.6,-112.2 84.3,-112.2" style="fill:#a0c0ef;fill-opacity:1;fill-rule:nonzero;stroke:none" id="path40" />
      <path d="m 14225.8,10858.9 h 4982 c 61.8,0 124.9,50.5 140.3,112.2 l 10.5,42.1 c 15.4,61.8 -22.6,112.3 -84.3,112.3 h -4982 c -61.7,0 -124.8,-50.5 -140.2,-112.3 l -10.5,-42.1 c -15.4,-61.7 22.5,-112.2 84.2,-112.2" style="fill:#a0c0ef;fill-opacity:1;fill-rule:nonzero;stroke:none" id="path42" />
      <path d="m 14071.9,10241.3 h 4981.9 c 61.8,0 124.9,50.6 140.3,112.3 l 10.5,42.1 c 15.4,61.8 -22.5,112.3 -84.3,112.3 h -4981.9 c -61.8,0 -124.9,-50.5 -140.3,-112.3 l -10.5,-42.1 c -15.4,-61.7 22.5,-112.3 84.3,-112.3" style="fill:#a0c0ef;fill-opacity:1;fill-rule:nonzero;stroke:none" id="path44" />
      <path d="m 13927.2,9661.2 h 4982 c 61.7,0 124.9,50.6 140.3,112.3 l 10.5,42.1 c 15.4,61.8 -22.6,112.3 -84.3,112.3 h -4982 c -61.7,0 -124.8,-50.5 -140.2,-112.3 l -10.5,-42.1 c -15.4,-61.7 22.5,-112.3 84.2,-112.3" style="fill:#a0c0ef;fill-opacity:1;fill-rule:nonzero;stroke:none" id="path46" />
      <path d="m 13487.9,7898.9 h 4981.9 c 61.8,0 124.9,50.6 140.3,112.3 l 10.5,42.1 c 15.4,61.7 -22.6,112.3 -84.3,112.3 h -4982 c -61.7,0 -124.8,-50.6 -140.2,-112.3 l -10.5,-42.1 c -15.4,-61.7 22.5,-112.3 84.3,-112.3" style="fill:#a0c0ef;fill-opacity:1;fill-rule:nonzero;stroke:none" id="path48" />
      <path d="m 13632.5,8479 h 4981.9 c 61.8,0 124.9,50.5 140.3,112.3 l 10.5,42.1 c 15.4,61.7 -22.5,112.3 -84.3,112.3 H 13699 c -61.8,0 -124.9,-50.6 -140.3,-112.3 l -10.5,-42.1 c -15.4,-61.8 22.5,-112.3 84.3,-112.3" style="fill:#a0c0ef;fill-opacity:1;fill-rule:nonzero;stroke:none" id="path50" />
      <path d="m 13054.4,6076 h 1210 c 73.3,0 148.3,60 166.6,133.3 18.3,73.3 -26.8,133.3 -100.1,133.3 h -1210 c -73.4,0 -148.3,-60 -166.6,-133.3 -18.3,-73.3 26.8,-133.3 100.1,-133.3" style="fill:#a0c0ef;fill-opacity:1;fill-rule:nonzero;stroke:none" id="path52" />
      <path d="m 16761.3,6076 h 1210 c 73.3,0 148.3,60 166.5,133.3 18.3,73.3 -26.7,133.3 -100,133.3 h -1210.1 c -73.3,0 -148.2,-60 -166.5,-133.3 -18.3,-73.3 26.7,-133.3 100.1,-133.3" style="fill:#a0c0ef;fill-opacity:1;fill-rule:nonzero;stroke:none" id="path54" />
      <path d="m 12542.7,5491.4 c -90.7,0 -183,-73.9 -205.6,-164.7 l -127.2,-510.2 c -11,-44.1 -3.9,-85.2 20.1,-115.9 22.9,-29.3 58.6,-45.4 100.7,-45.4 h 1764.6 c 90.7,0 183,73.9 205.6,164.7 l 127.2,510.2 c 11,44.1 3.9,85.2 -20.1,115.9 -22.9,29.3 -58.6,45.4 -100.7,45.4 z M 14095.3,4641 h -1764.6 c -46.5,0 -86.3,18.1 -111.9,50.9 -26.7,34.1 -34.7,79.6 -22.7,128 l 127.2,510.2 c 24.2,96.8 122.6,175.5 219.4,175.5 h 1764.6 c 46.5,0 86.3,-18.1 111.9,-50.9 26.7,-34.1 34.7,-79.6 22.7,-128 l -127.2,-510.2 c -24.1,-96.8 -122.6,-175.5 -219.4,-175.5" style="fill:#476ba7;fill-opacity:1;fill-rule:nonzero;stroke:none" id="path56" />
      <path d="m 16255.9,5491.4 c -90.8,0 -183,-73.9 -205.6,-164.7 L 15923,4816.5 c -10.9,-44.1 -3.8,-85.2 20.2,-115.9 22.8,-29.3 58.6,-45.4 100.6,-45.4 h 1764.6 c 90.8,0 183,73.9 205.7,164.7 l 127.2,510.2 c 11,44.1 3.8,85.2 -20.1,115.9 -22.9,29.3 -58.7,45.4 -100.7,45.4 z M 17808.4,4641 h -1764.6 c -46.5,0 -86.2,18.1 -111.8,50.9 -26.7,34.1 -34.8,79.6 -22.7,128 l 127.2,510.2 c 24.1,96.8 122.5,175.5 219.4,175.5 h 1764.6 c 46.5,0 86.2,-18.1 111.9,-50.9 26.7,-34.1 34.7,-79.6 22.6,-128 l -127.2,-510.2 c -24.1,-96.8 -122.5,-175.5 -219.4,-175.5" style="fill:#476ba7;fill-opacity:1;fill-rule:nonzero;stroke:none" id="path58" />
      <path d="m 14588.4,12707.9 c 60,182.7 246.9,332.5 444.3,332.5 121.3,0 174.2,-46 214.6,-104.8 l -116.4,-97.3 c -34.9,45 -68.4,71.6 -141.9,71.6 -108.3,0 -215.9,-90 -252.7,-202 -36.1,-110.3 10,-202.1 120.2,-202.1 73.5,0 128.1,29.4 193.7,75.3 l 58.4,-96.4 c -89.4,-70.8 -175.5,-109.3 -299.5,-109.3 -189.2,0 -281.8,146 -220.7,332.5" style="fill:#a0c0ef;fill-opacity:1;fill-rule:nonzero;stroke:none" id="path60" />
      <path d="m 15783.4,12707.9 c 36.2,110.2 -14.5,202 -128.4,202 -113.9,0 -222.4,-90 -259.2,-202 -36.1,-110.3 14.6,-202.1 128.5,-202.1 113.8,0 222.4,90 259.1,202.1 z m -535.5,0 c 60,182.7 253.3,332.5 451.7,332.5 198.4,0 292.2,-147.9 231.7,-332.5 -60,-182.8 -253.3,-332.5 -451.7,-332.5 -198.3,0 -292.2,147.8 -231.7,332.5" style="fill:#a0c0ef;fill-opacity:1;fill-rule:nonzero;stroke:none" id="path62" />
      <path d="m 16162.6,13029.3 h 130.4 l 171.5,-395.8 129.8,395.8 h 139.6 l -210.9,-642.9 h -120.3 l -177.3,408.7 -134.1,-408.7 h -139.6 l 210.9,642.9" style="fill:#a0c0ef;fill-opacity:1;fill-rule:nonzero;stroke:none" id="path64" />
      <path d="m 16995.2,12898.9 h -195.6 l 42.8,130.4 h 532.7 l -42.8,-130.4 h -195.7 l -168.1,-512.5 h -141.4 l 168.1,512.5" style="fill:#a0c0ef;fill-opacity:1;fill-rule:nonzero;stroke:none" id="path66" />
      <path d="m 17665.8,12717 c 68.9,0 120.4,36.8 138.8,92.8 19.9,60.6 -12.1,91.9 -81,91.9 H 17583 l -60.5,-184.7 z m -182.3,312.3 h 293.9 c 81.7,0 137.6,-22.9 166,-65.2 24,-35.8 26.8,-86.3 6.3,-148.8 -34.1,-103.8 -111.5,-169 -203.2,-199.3 l 81.8,-229.6 h -165.4 l -72.1,205.7 h -109.3 l -67.5,-205.7 h -141.4 l 210.9,642.9" style="fill:#a0c0ef;fill-opacity:1;fill-rule:nonzero;stroke:none" id="path68" />
      <path d="m 18394.2,12655.5 -17,208.5 -153.9,-208.5 z m -24.7,378.4 h 130.4 l 63.2,-647.5 h -147.9 l -11.5,144.2 h -271.8 l -106.1,-144.2 h -144.2 l 487.9,647.5" style="fill:#a0c0ef;fill-opacity:1;fill-rule:nonzero;stroke:none" id="path70" />
      <path d="m 18698,12707.9 c 59.9,182.7 246.8,332.5 444.3,332.5 121.2,0 174.1,-46 214.5,-104.8 l -116.4,-97.3 c -34.8,45 -68.3,71.6 -141.8,71.6 -108.4,0 -216,-90 -252.8,-202 -36.1,-110.3 10,-202.1 120.2,-202.1 73.5,0 128.1,29.4 193.7,75.3 l 58.4,-96.4 c -89.3,-70.8 -175.5,-109.3 -299.5,-109.3 -189.2,0 -281.8,146 -220.6,332.5" style="fill:#a0c0ef;fill-opacity:1;fill-rule:nonzero;stroke:none" id="path72" />
      <path d="m 19616.7,12898.9 h -195.6 l 42.7,130.4 h 532.8 l -42.8,-130.4 h -195.6 l -168.2,-512.5 h -141.4 l 168.1,512.5" style="fill:#a0c0ef;fill-opacity:1;fill-rule:nonzero;stroke:none" id="path74" />
      <path d="m 16884.9,5101.7 c -2.9,-14.8 -6.4,-29.5 -0.9,-40.1 -8.4,-6.4 -17.2,-12.3 -26.4,-17.5 -1.8,15.7 -0.7,32.4 3,49.3 12.2,14.4 23.7,29.3 34.4,44.5 -4.5,-12.5 -7.8,-24.8 -10.1,-36.2 z m 77.6,66.1 c -2.4,-7.4 -5.2,-14.8 -8.7,-22 -2.4,-5 -5,-10 -7.9,-14.8 4.1,12.4 9.6,24.8 16.6,36.8 z m 1228.1,405.5 c -268.1,-110.7 -534.4,-231.9 -798.1,-363 10.4,29.5 19.8,59.1 28.1,88.8 6.7,23.8 -25.4,39.6 -45.2,13.4 -8.8,-11.6 -18.1,-22.6 -28,-33.2 6.7,21.3 -18.5,33.2 -40,17.6 -1.5,-1.1 -2.8,-2.2 -4.1,-3.3 10.4,28.7 -34.1,33 -50.7,5.2 l -24.7,-41.3 c -21,-25.1 -50,-44.1 -79.9,-53.4 -6.2,13.6 -10.3,28.4 -11.8,44.5 -1.1,12.1 -9.9,18.8 -20.6,18.8 -0.5,14.6 -13.6,23.2 -33,14.6 -23.5,-10.5 -44.2,-26.4 -60.8,-44.8 -13.2,24.6 -55.6,7 -78.3,-16.7 0.6,1.3 1.3,2.6 1.9,4 10.7,22.9 -9.2,49 -36.1,25.9 -47.8,-41.1 -82.4,-92.9 -98.7,-144.6 -15.7,-17.5 -32.5,-34.3 -50.4,-49.7 -8.8,-7.6 -49.7,-45.5 -59.1,-42.2 -9,3.1 -4.2,26.6 -0.2,43.2 1.5,2 2.9,4.1 4.4,6.1 34,47.3 198,270.2 82.4,268.2 -12.2,-0.2 -24.7,-8.2 -32.1,-19.6 -42.2,-65 -74.8,-133.5 -94.7,-201.7 -3.8,-13.1 -9,-30 -13.3,-47.7 -3.4,-4.5 -6.7,-9.1 -10.1,-13.5 -45.9,-60.2 -109.3,-146.9 -183.7,-176.6 -6.9,94.2 40.7,205.7 76.6,304.5 15.5,42.7 31.6,85.3 48.4,127.8 5,1 10.4,3.6 16,8.3 80.3,67.6 113.1,167.9 76.8,235.3 -10.5,19.4 -42.5,1.7 -51.7,-18.9 -55.3,-124 -105.7,-248.7 -150.5,-373.6 -39.7,-110.7 -84.8,-227.7 -68.2,-329.9 1.7,-10.8 14.3,-14.8 26.1,-12.3 84.7,18.5 158.6,94 218.1,169.2 4.3,-9.7 11.6,-17.1 23.2,-20.5 39.5,-11.7 93.4,32.2 132.1,68.9 0.9,-12.9 3.1,-25.4 7,-37.3 4.1,-12.9 17.6,-15.8 33.3,-9.5 36.6,14.6 70.9,38.2 99.8,66.7 38.4,11.8 71.9,43.3 99.9,80.1 17.7,15.5 34,31.9 49.2,49.1 3.3,-9.5 7.7,-18.1 13.7,-25.1 14.4,-16.5 50.8,-1.5 74,9.1 22.4,10.2 42.9,23.9 61,40 14.3,1.1 28.5,5.1 42,11.5 2.6,-4.1 5.8,-7.6 10,-10.4 14.5,-9.7 31.5,-5.9 48.4,4.6 -3.8,-10.8 -7.7,-21.6 -11.8,-32.3 -38.4,-19.4 -76.9,-39 -115.2,-58.8 -25.3,-13.1 -31.3,-51.9 -2.9,-49.7 35.3,2.7 70.5,5.4 105.7,8 16.1,1.3 28.7,11.4 35.4,26.7 6.3,14.1 12.2,28.2 17.9,42.3 275.6,138.1 554,265.4 834.3,381.2 35.8,14.8 23.9,60.8 -11.8,46" style="fill:#365da2;fill-opacity:1;fill-rule:nonzero;stroke:none" id="path76" />
      <path d="m 12744.9,4936.8 c 3.2,-12.5 -8.9,-28.8 -18.7,-40.3 -3.6,-4.2 -6.8,-7.8 -11.3,-11.1 -2.5,-1.9 -5.2,-3.5 -8,-4.7 -1.1,-0.2 -1.9,-0.4 -2.5,-0.6 -2,3.8 -5.7,5.5 -10,5.5 4.2,9.4 8.5,18.6 12.7,27.4 6.2,13.1 31,49.9 37.8,23.8 z m 513.7,800.7 c -94.9,-176.3 -148.1,-357.3 -225.3,-535.8 -37.5,-86.9 -81.7,-173.8 -139.2,-255.9 -40,-57.2 -127.3,-181.5 -201.2,-154.6 -18.4,6.7 -23.6,22.5 -17.5,44.1 1.3,4.7 2.9,9.6 4.6,14.5 9.3,-5.6 23.8,-3.3 38.3,4.5 23.9,12.8 44.1,38.1 54.6,60.7 11.1,24 9.3,49 -10,59.6 -17.1,9.4 -42.4,1.1 -60.2,-16.9 -19.8,-19.9 -28.9,-45.2 -38.6,-68.2 -11.9,-28.1 -27.8,-58.7 -26.1,-85.8 2.7,-40.7 46.6,-55.2 89.6,-45.7 52.2,11.4 98.5,57 133.6,98.5 41.4,49 77.8,101.1 109.4,154.3 64.4,108.3 109.9,220.8 152.7,332.2 49.6,129 96,258.9 164.2,385.8 11.1,20.7 -17.7,29.5 -28.9,8.7" style="fill:#365da2;fill-opacity:1;fill-rule:nonzero;stroke:none" id="path78" />
      <path d="m 13801.3,5190.4 c 2,3.3 11.4,13.8 9.9,6.6 -0.8,-3.8 -7.9,-11.1 -13.4,-16.5 0.4,3.2 1.6,6.7 3.5,9.9 z m -79.2,-0.9 c -12.1,-15.1 -26.5,-28.4 -42,-39.5 8.6,18.9 28.6,40.5 42,39.5 z m -288.3,-65.4 c -3.8,-17 -24.2,-39.8 -35.5,-50.8 -2.2,-2.1 -4.5,-4.2 -6.7,-6.3 12.3,19.3 27.4,38.4 42.2,57.1 z m -185.4,-87 c 16.4,31.8 40,60.8 68.7,85.3 12.2,-13.6 23.3,-32.1 6.6,-53.7 -9.2,-12 -23.7,-21.9 -35.5,-31.4 -13.6,-10.8 -27.3,-21.6 -41,-32.3 -3.6,-2.8 -7.2,-5.5 -10.8,-8.3 -4.7,9.4 6.8,30.3 12,40.4 z m 645.6,149.5 c -19.4,-10.2 -40,-21.8 -60.2,-25 -4.9,-0.8 -10.3,-1.1 -15.4,-0.5 14.2,14.3 27.5,31 29.7,46.8 3.6,25.5 -24.6,31.4 -48.5,18.3 -21.3,-11.8 -35,-35.5 -36.5,-55.2 -0.5,-6.8 0.7,-12.9 3,-18.1 -20.6,-14.9 -56,-35.2 -77.8,-31.3 27.7,19.1 52.5,43.3 71.6,70.8 3.6,5.2 3.8,12.3 1,16 -12.1,15.9 -36.4,16.9 -60.3,4.7 -25.6,-13.2 -41.7,-38.8 -51.7,-62.3 -3.3,-7.9 -5.7,-15.6 -6.6,-22.8 -25.3,-11.5 -51.8,-17.7 -76.5,-17.3 v 0.5 c 8,7.4 15.9,15 23.6,22.7 11.6,11.5 4.7,23.4 -6.1,24.8 -24.1,3.3 -42.2,-17.5 -49.1,-38.5 -37.5,-33.3 -78.3,-63.1 -121.2,-87.7 -10.8,-6.2 -25.3,-18.7 -32.4,-10.8 17.5,13 34.1,27.6 49.1,43.5 29.2,30.7 58,85.6 23.5,104.6 -6.1,3.4 -17.9,2.9 -24.5,-5.9 -15.1,-20.1 -30.3,-40.3 -45.4,-60.4 -13.2,-17.6 -26.9,-35 -35,-54.2 -2.5,-6.2 -4.2,-12.6 -4.9,-19 -15.5,-9.7 -31.7,-18 -48.1,-24.8 -1.3,-0.5 -2.7,-1.1 -4.1,-1.7 8.9,7.1 17.9,14.3 26.7,21.5 25,20.4 47.8,44.3 49.2,72.7 1.2,26.5 -15.8,45.1 -31.7,60.9 -4.4,4.3 -14.6,2.2 -20.9,-2.6 -48.4,-36.9 -88,-86.3 -107.7,-138.4 -6.3,-16.5 -8.7,-33.7 -1.6,-45.3 -43.1,-32.9 -86.8,-65.1 -131,-96.4 -4.7,-3.3 -16,-13.7 -20.6,-12.2 -4.3,1.5 -2.5,11.5 -2.5,16.1 -0.1,12.1 0.6,24.5 2.1,37 3.1,27.2 10,55.1 20.1,82.9 8.8,24.2 20.1,48.2 33.7,71.6 5.1,-2.3 12,-1.9 18.4,3.4 33.2,27.1 49.8,62.5 46.5,95.7 -1.1,11.6 -19.7,9.9 -28.4,0 -82.3,-93.4 -131.3,-209.2 -126.9,-309.8 1,-22.2 11.1,-40.8 40.8,-28.4 13.5,5.6 26.3,15.9 38.6,24.7 16.1,11.5 32.2,23.1 48.2,34.8 30,22 60,44.3 89.7,67 16.6,-0.5 36,5.7 53.1,12 20.8,7.6 41.4,17.5 61.3,29.3 5.7,-10.4 16.3,-16.9 32.1,-15.3 16.1,1.6 38.6,18 53.7,27.1 17.9,10.8 35.6,22.3 52.7,34.5 16.7,11.9 32.9,24.6 48.6,37.8 3.6,-5.1 9.9,-6.6 20.7,-6.9 14.4,-0.4 29.9,1.4 45.3,4.9 16.5,3.8 32.9,9.7 48.8,17.3 2.3,-2.1 4.9,-4 8.1,-5.6 18,-8.7 43.1,-4.7 66.1,4.1 21.6,8.2 42.9,20.3 62.3,35 5.5,-2.5 11.7,-4.1 18.2,-4.8 30.9,-3.4 64.9,13.1 96.4,29.7 21.6,11.4 14.4,40 -7.3,28.5" style="fill:#365da2;fill-opacity:1;fill-rule:nonzero;stroke:none" id="path80" />
      <path d="m 18224,13312.4 c 0,8.1 -5.2,15 -12.7,17.8 -131.8,49.3 -227.5,195.8 -227.5,369 0,213.5 145.5,386.7 325,386.7 h -1957.4 c -179.4,0 -324.9,-173.2 -324.9,-386.7 0,-213.6 145.5,-386.8 324.9,-386.8 H 18224" style="fill:#e37970;fill-opacity:1;fill-rule:nonzero;stroke:none" id="path82" />
      <path d="m 17352.8,14092.4 c -110.4,0 -200,89.6 -200,200 0,110.5 89.6,200 200,200 110.5,0 200,-89.5 200,-200 0,-110.4 -89.5,-200 -200,-200 z m 0,680 c -265.1,0 -480,-214.9 -480,-480 0,-265.1 214.9,-480 480,-480 265.1,0 480,214.9 480,480 0,265.1 -214.9,480 -480,480" style="fill:#e37970;fill-opacity:1;fill-rule:nonzero;stroke:none" id="path84" />
      <path d="m 18610,3354.2 c -3.3,-35.4 -22.9,-58.1 -54.1,-71.8 l -0.4,-0.1 c -57.6,-25.2 -154,-19.5 -258.2,-5.5 -13.4,1.8 -25.4,3.3 -36.1,4.2 -2.9,0.3 -5.7,0.5 -8.4,0.7 -2.2,0.2 -4.4,0.3 -6.5,0.5 -103.8,6.8 -95.7,-25.1 -294,-24.2 -226.1,1.2 -302.5,77.4 -312.9,109.8 -8.7,27.6 90.2,48.9 200.9,73.5 5.4,1.2 10.7,2.5 16.2,3.6 14.7,3.3 29.5,6.7 44.3,10.1 131.9,30.9 262.5,70 305.7,196.8 45.9,134.4 35,533.3 35,533.3 h 400.4 c 0,0 -105.1,-440.7 -94.1,-567.7 6,-67.8 38.4,-87.1 50.9,-145.8 0.9,-4.2 1.8,-8.3 2.5,-12.4 6.1,-34.4 12.1,-69.6 8.8,-105" style="fill:#ad7041;fill-opacity:1;fill-rule:nonzero;stroke:none" id="path86" />
      <path d="m 19075.9,7665.9 c -33.8,-189.7 -82,-385.7 -123.9,-589.6 -67.3,-327.8 -118,-676.1 -66.1,-1051.1 6.7,-48.3 10.3,-101.5 11.1,-158.8 10.1,-662.8 -286.1,-1863.9 -286.1,-1863.9 0,0 -80.4,-34.7 -215.2,-28.1 -69.4,3.5 -175.9,48.2 -175.9,48.2 0,0 -28.1,744.7 -29.8,1746.3 -1.2,726 -143.7,1681.8 -172.5,2243.6 -17.4,339.9 20.4,792.7 20.4,792.7 0,0 590.3,474.7 802.4,231.9 209.5,-240 362,-661.5 235.6,-1371.2" style="fill:#415da5;fill-opacity:1;fill-rule:nonzero;stroke:none" id="path88" />
      <path d="m 18885.9,6025.2 c 6.7,-48.3 10.3,-101.5 11.1,-158.8 -442.1,640.6 -539.9,2037.4 -539.9,2037.4 l 485.6,-235.7 c 0,0 53.2,-261.9 109.3,-591.8 -67.3,-327.8 -118,-676.1 -66.1,-1051.1" style="fill:#355493;fill-opacity:1;fill-rule:nonzero;stroke:none" id="path90" />
      <path d="m 19887.5,3357.1 c -3.3,-35.2 -22.9,-57.9 -54,-71.5 l -0.5,-0.1 c -57.5,-25.1 -153.9,-19.4 -258.2,-5.4 -13.3,1.8 -25.3,3.2 -36.1,4.2 -2.8,0.3 -5.6,0.5 -8.4,0.7 -2.2,0.2 -4.4,0.3 -6.5,0.5 -103.8,6.8 -95.6,-25.1 -293.9,-24 -226.1,1.2 -302.6,77.1 -313,109.5 -8.7,27.4 90.3,48.7 200.9,73.2 5.4,1.2 10.7,2.4 16.2,3.6 14.7,3.2 29.5,6.6 44.3,10 131.9,30.8 262.5,69.7 305.7,196 45.8,134 -19.8,525.4 -19.8,525.4 l 370.9,30.8 c 0,0 -22.9,-446 -11.9,-572.6 6,-67.6 40.5,-104.8 53,-163.3 0.9,-4.1 1.7,-8.3 2.5,-12.3 6.1,-34.3 12.1,-69.4 8.8,-104.7" style="fill:#ad7041;fill-opacity:1;fill-rule:nonzero;stroke:none" id="path92" />
      <path d="m 19834.9,3968.5 c 0,0 -95.3,-45.1 -164,-58.8 -68.6,-13.7 -211.3,13.1 -211.3,13.1 -25.7,288.4 -85.4,739.4 -201.6,1248.3 -132.3,579.4 -329.1,1264.1 -603.5,1912.4 -58.6,138.5 -300.2,793.9 -341.2,959.3 -124.1,499.8 0.5,446 0.5,446 l 1083.9,127.2 c 0,0 133.5,-68.7 195.1,-774.4 18.4,-211.3 20.6,-1123.9 48.4,-1296.9 26.2,-163.8 57,-300 93,-388.5 201.4,-494.3 100.7,-2187.7 100.7,-2187.7" style="fill:#415da5;fill-opacity:1;fill-rule:nonzero;stroke:none" id="path94" />
      <path d="m 19887.2,3355.7 c -3.3,-36 -23,-59.1 -54.2,-72.9 l -0.4,-0.2 c -61,-22 -156.3,-17.3 -258.8,-4.9 -13.4,1.7 -25.4,2.9 -36.4,3.6 -2.8,0.3 -5.7,0.6 -8.4,0.7 -2.2,0.3 -4.4,0.4 -6.5,0.5 -83.3,5.6 -94.7,-14.1 -198.1,-21.7 h -163.9 c -175.1,14.3 -237.3,79.3 -246.7,108.8 -8.7,27.9 90.5,49.6 201.6,74.6 29.2,-14.6 168.9,-78.6 342.5,-61.5 152.7,14.8 308.6,76.9 418.1,92.3 0.9,-4.2 1.7,-8.4 2.4,-12.6 6.1,-34.9 12.1,-70.7 8.8,-106.7" style="fill:#b84c42;fill-opacity:1;fill-rule:nonzero;stroke:none" id="path96" />
      <path d="m 18609.6,3353.4 c -3.3,-36.7 -23.1,-60.4 -54.2,-74.6 l -0.5,-0.1 c -60.9,-22.7 -155.9,-18.1 -258.2,-5.8 -13.3,1.6 -25.4,2.8 -36.4,3.7 -2.8,0.2 -5.6,0.5 -8.4,0.6 -2.1,0.2 -4.4,0.3 -6.4,0.6 -65.2,4.2 -86.3,-7.3 -142,-16.3 h -276.3 c -131.6,22.2 -180.9,76.8 -189,103.4 -8.6,28.5 90.5,50.9 201.3,76.8 29.1,-14.9 168.4,-79.8 341.8,-61.9 152.3,15.5 308.1,79.3 417.5,95.3 0.8,-4.3 1.6,-8.5 2.3,-12.8 6,-35.6 11.9,-72.1 8.5,-108.9" style="fill:#b84c42;fill-opacity:1;fill-rule:nonzero;stroke:none" id="path98" />
      <path d="m 20371.3,8611.6 69.1,-111.9 c 35.9,-41.2 45.4,-64.3 73.9,-78.2 68.6,-33.8 195.2,-120.4 204.8,-302.4 0,0 -2.2,-103 -71.2,-69.6 -69.1,33.4 -38.9,30.3 -137,75.2 -98.2,45 -134.6,188 -143.1,236.8 l -80.1,105.1 83.6,145" style="fill:#ad7041;fill-opacity:1;fill-rule:nonzero;stroke:none" id="path100" />
      <path d="m 18176.3,11861.7 c -36.6,299 56.8,777.4 653.6,701 596.8,-76.5 784.9,-663 664.5,-923.8 -120.4,-260.7 173.3,-323.6 265.4,-604.1 79.2,-240.9 106.8,-540 235,-674.3 413.1,-432.8 -396.7,-1098.3 -884.8,-958 -889.2,255.6 -1003.7,293.8 -972.2,992.4 16.2,358 294.7,496.7 117.9,600.3 -427.2,250.2 3.5,189.9 -79.4,866.5" style="fill:#aa443e;fill-opacity:1;fill-rule:nonzero;stroke:none" id="path102" />
      <path d="m 19184,9053.6 c 121.7,-309.5 168,-584.2 168,-584.2 l -1321,-16.5 c 0,0 18.5,1062.5 -42.4,1438.5 -60.9,376 367.2,1202.5 367.2,1202.5 7.8,0 58.4,9.3 147.8,14.7 15.2,42.5 25,85.8 31,127.1 13,87.9 9,166.9 4.8,210.9 -2.3,22.8 -4.5,36.1 -4.5,36.1 l 431.6,131.4 12.5,3.8 c 5.3,-117.4 11.9,-209.2 19,-281 20.5,-209.7 45.2,-249.1 52.8,-256.5 111.4,-16.5 235,-40.5 369.9,-75 0,0 -358.5,-1642.3 -236.7,-1951.8" style="fill:#d9935c;fill-opacity:1;fill-rule:nonzero;stroke:none" id="path104" />
      <path d="m 20041.5,9375.4 c -66.2,456.5 -311.4,1394 -476.2,1547.3 -145.7,135.6 -459.9,148 -459.9,148 v 0 0 c -65.3,-102.2 -288.7,-356.2 -566,-310.5 -149.6,24.7 -179.9,293.7 -183.3,329.7 l 1,4 -1.3,-0.1 -0.1,0.2 c -1,-0.3 -2.1,-0.5 -3.2,-0.7 -43.6,-6.5 -391.3,-63 -494.4,-240.5 -152.3,-262.1 -318.1,-1048.7 -481.1,-1037.1 -74.8,5.4 -827.5,288.3 -827.5,288.3 0,0 -125.4,-117.5 -101.4,-261.6 0,0 371.6,-248.9 686,-407.7 43.5,-22 86,-42.3 126.2,-59.9 113.3,-49.7 208.7,-78.5 260.9,-66.2 14.9,3.5 30.8,10.2 47.3,19.9 68.1,39.4 147.7,125.8 224,224.4 50.7,65.6 100,136.5 143.5,202.5 0.9,1.4 1.8,2.7 2.7,4.1 18.6,-250 37.3,-522.1 18,-735.4 -14.8,-162.2 -25.5,-513.5 2.3,-604.3 58.1,-189.2 484.5,-239.2 882.5,-219.4 187.6,9.3 320.2,20 416.7,42.2 139.9,32.2 203.9,88.5 249.9,199.6 44,105.8 -159.1,602.5 -178.5,819.9 -17.5,197.1 12.6,357.5 62.4,515.1 140.5,-324.5 283.4,-556.6 302.1,-606.9 39.5,-105.9 639.3,-775.4 639.3,-775.4 0,0 48.6,9.9 87,35.1 39.7,25.9 59.5,60.2 59.5,60.2 -105.9,251.5 -438.4,885.2 -438.4,885.2" style="fill:#ebba56;fill-opacity:1;fill-rule:nonzero;stroke:none" id="path106" />
      <path d="m 19508.1,8442.2 c -46,-111.1 -110,-167.4 -249.9,-199.6 -187.1,36 -310.5,380.3 -374,549.7 -73.3,195.2 308.1,1199.1 413.4,1189.9 78.3,-6.8 91.8,-139.6 94.4,-205 -50.7,-159.1 -80.1,-316 -62.4,-515.1 19.4,-217.4 222.5,-714.1 178.5,-819.9" style="fill:#e7a329;fill-opacity:1;fill-rule:nonzero;stroke:none" id="path108" />
      <path d="m 16554.8,10025.1 c 0,0 -64.2,157.3 -134.9,163.8 -70.6,6.4 -295.4,41.7 -311.5,9.6 -16,-32.1 0,-147.7 48.2,-189.5 48.2,-41.7 346.8,-109.2 346.8,-109.2 l 51.4,125.3" style="fill:#d9935c;fill-opacity:1;fill-rule:nonzero;stroke:none" id="path110" />
      <path d="m 17936,9755.4 c -43.5,-66 -92.8,-136.9 -143.5,-202.5 -72.7,-89.5 -153,-176.1 -224,-224.4 -16.5,-9.7 -32.4,-16.4 -47.3,-19.9 -52.2,-12.3 -147.6,16.5 -260.9,66.2 67.4,-4.9 133.6,-2.5 198.7,3 114,9.7 147.2,133.2 327.5,318.3 107.7,110.7 140.5,93.6 149.5,59.3" style="fill:#e7a329;fill-opacity:1;fill-rule:nonzero;stroke:none" id="path112" />
      <path d="m 18978.7,11594.7 c 0,0 -167.4,-301.9 -444.1,-359 13,87.9 9,166.9 4.8,210.9 -2.3,22.8 -4.5,36.1 -4.5,36.1 l 431.6,131.4 12.2,-19.4" style="fill:#cb8757;fill-opacity:1;fill-rule:nonzero;stroke:none" id="path114" />
      <path d="m 18419,11452.6 c 0,0 531.6,-106.8 592.9,225.3 61.4,332 171.4,541.9 -165.4,624.1 -336.8,82.2 -426.4,-32.3 -473.8,-138.2 -47.5,-105.8 -90.4,-674.9 46.3,-711.2" style="fill:#d9935c;fill-opacity:1;fill-rule:nonzero;stroke:none" id="path116" />
      <path d="m 19114.9,12280 c -90,101.2 -222.4,251.4 -222.4,251.4 0,0 -264.3,88.5 -526.5,-170 -113,-111.3 -95.9,-330.1 -35.4,-457.1 0,0 92.9,272.1 262.1,331.5 37.6,13.2 73.4,35.2 106.2,61.4 20.6,-51.8 62,-125 145.4,-216.1 174.8,-191.1 140.7,-577.5 140.7,-577.5 0,0 287.1,599.5 129.9,776.4" style="fill:#aa443e;fill-opacity:1;fill-rule:nonzero;stroke:none" id="path118" />
      <path d="m 18584.6,11615.9 c 0,0 -14.2,-39.4 -114.3,-21.5 0,0 -84,15 -76.3,59.3 0,0 85.7,22.2 190.6,-37.8" style="fill:#ffffff;fill-opacity:1;fill-rule:nonzero;stroke:none" id="path120" />
      <path d="m 21759.8,3304 h 818.3 c 3.5,0.8 6.3,1.8 8.4,2.7 23,10.9 34,54 38.7,104.9 8.5,92.1 -3.7,210.2 -3.7,210.2 0,0 -279,232.9 -321.6,59.9 -42.7,-173 -274.8,-246.1 -406.6,-264.7 -122.9,-17.2 -132.8,-101.9 -133.5,-113" style="fill:#233862;fill-opacity:1;fill-rule:nonzero;stroke:none" id="path122" />
      <path d="m 22491.6,3304 h 862.6 c 54.6,48.9 26.5,317.8 26.5,317.8 0,0 -279,232.9 -321.6,59.9 -42.6,-173 -274.8,-246.1 -406.4,-264.7 -9.7,-1.4 -18.9,-3.1 -27.5,-5.4 -86.9,-22.2 -122.7,-83.7 -133.6,-107.6" style="fill:#233862;fill-opacity:1;fill-rule:nonzero;stroke:none" id="path124" />
      <path d="m 22985.9,7988.6 c 0,0 -0.6,-31.3 -1.9,-87.5 -7.8,-362.3 -38.7,-1763.1 -68.1,-2544 -1.2,-28.4 -2.3,-55.9 -3.3,-82.6 -0.6,-14.2 -1.1,-28.4 -1.7,-42.4 -17.6,-377.5 -68.8,-747.3 -120.6,-1042.9 -65.9,-377.1 -133,-633.9 -133,-633.9 -251.5,-50.9 -414.5,44.7 -414.5,44.7 0,0 -67.9,585.2 -93.6,939.4 -8.5,114.9 -49.9,507.1 -101.9,984.1 -40.3,368.9 -86.9,788.6 -129.6,1170.3 -2.3,20.3 -4.4,40.6 -6.8,60.7 -69,617.1 -126.1,1119.7 -126.1,1119.7 l 444.7,42.4 756.4,72" style="fill:#b64c41;fill-opacity:1;fill-rule:nonzero;stroke:none" id="path126" />
      <path d="m 22790.3,4189.2 -743,1334.3 c -40.3,368.9 -86.9,788.6 -129.6,1170.3 -2.3,20.3 -4.4,40.6 -6.8,60.7 -69,617.1 -126.1,1119.7 -126.1,1119.7 l 444.7,42.4 754.5,-15.5 -193.7,-3711.9" style="fill:#aa413e;fill-opacity:1;fill-rule:nonzero;stroke:none" id="path128" />
      <path d="m 21867,7870.9 c 0,0 415.7,-2055.1 754.5,-3046.9 338.7,-991.9 342.9,-1267.4 342.9,-1267.4 0,0 310.9,-67.4 447.8,10.8 0,0 78.3,1880.3 -126.7,2379.7 -135.6,330.2 -239.3,1033.2 -204,1286.4 35.2,253.2 68.1,761 68.1,761 L 21867,7870.9" style="fill:#b64c41;fill-opacity:1;fill-rule:nonzero;stroke:none" id="path130" />
      <path d="m 22371.8,10629.8 462.2,130.3 c 0,0 -78.5,192.1 -105.7,392.3 -15.1,111.2 -14.4,224.9 24.2,309.6 2.3,5.2 4.9,10.4 7.5,15.5 17.7,32.9 7,48 -16.6,51.7 -40.7,6.5 -119.7,-21 -156.2,-49.2 -1.1,-0.9 -2.2,-1.7 -3.2,-2.6 -53,-44.3 -308.6,-174.1 -321.9,-180.8 l -0.5,-0.3 c 0,0 -0.4,-1.9 -0.9,-5.5 l -0.1,-0.3 c 0,0 -0.2,-0.6 -0.3,-1.8 -1.5,-9.6 -4.1,-27.7 -6.8,-52.4 -12.9,-123.4 -23.9,-410 118.3,-606.5" style="fill:#d9935c;fill-opacity:1;fill-rule:nonzero;stroke:none" id="path132" />
      <path d="m 23039,7761 c -98.3,-69.6 -253.1,-94.7 -423.6,-92.1 -199.2,3.2 -419.7,44.3 -595.9,97.1 -94.7,28.3 -176.6,59.9 -235.7,90.7 -263.3,137.3 -225.9,320 -219.6,1004 6.4,698.1 436,1600.6 513.4,1751.6 137.7,269 755.5,169.7 755.5,169.7 135.5,-64.9 183.7,-281.5 196.9,-564.5 14.7,-314.2 -13.9,-710.5 -13.9,-1071.9 0,-298.7 56.4,-562.8 97.5,-781.9 53.1,-284.4 80.5,-492.8 -74.6,-602.7" style="fill:#739af0;fill-opacity:1;fill-rule:nonzero;stroke:none" id="path134" />
      <path d="m 23113.6,8363.7 c -118.9,-250.5 -353,-532.4 -498.2,-694.8 -199.2,3.2 -419.7,44.3 -595.9,97.1 -74.1,177.5 -106.6,473.8 -38.1,962.9 52.3,373 433,1873.1 433,1873.1 307.4,40.1 498.6,-127.3 615.6,-384.5 14.7,-314.2 -13.9,-710.5 -13.9,-1071.9 0,-298.7 56.4,-562.8 97.5,-781.9" style="fill:#4a75cb;fill-opacity:1;fill-rule:nonzero;stroke:none" id="path136" />
      <path d="m 22607.2,7258.3 c 0,86.9 -70.7,157.6 -157.6,157.6 h -231 c -86.9,0 -157.6,-70.7 -157.6,-157.6 v -86.8 h 546.2 z m -928.9,-86.8 h 279.1 v 86.8 c 0,144 117.2,261.1 261.2,261.1 h 231 c 143.9,0 261.1,-117.1 261.1,-261.1 v -86.8 h 279.1 c 83.8,0 152.3,-68.5 152.3,-152.3 v -710.7 c 0,-83.8 -68.5,-152.3 -152.3,-152.3 h -1311.5 c -83.7,0 -152.3,68.5 -152.3,152.3 v 710.7 c 0,83.8 68.6,152.3 152.3,152.3" style="fill:#233862;fill-opacity:1;fill-rule:nonzero;stroke:none" id="path138" />
      <path d="m 22254.1,7694.2 c 0,0 -160.8,-310.1 -80.4,-430.6 80.4,-120.6 367.5,34.4 390.5,103.3 23,68.9 0,402 0,402 l -310.1,-74.7" style="fill:#da935b;fill-opacity:1;fill-rule:nonzero;stroke:none" id="path140" />
      <path d="m 22941.9,10119.6 c 0,0 -59.9,-853.3 -59.1,-1206.3 0.8,-353 -280.2,-1291.9 -280.2,-1291.9 0,0 -185.9,-14.9 -258.8,-5.5 -84,10.9 -134.1,49.4 -134.1,49.4 0,0 61.7,1109.4 -56,1534.5 -117.8,425.2 -124,1279.2 -124,1279.2 0,0 65.4,184.4 456.9,126.2 464.3,-69 455.3,-485.6 455.3,-485.6" style="fill:#739af0;fill-opacity:1;fill-rule:nonzero;stroke:none" id="path142" />
      <path d="m 22748.5,11174.6 c 0,0 105.4,-333 84.6,-392.6 0,0 -571.5,-76.9 -803.4,-303 0,0 75.4,324.6 168.2,405.8 92.7,81.1 550.6,289.8 550.6,289.8" style="fill:#4a75cb;fill-opacity:1;fill-rule:nonzero;stroke:none" id="path144" />
      <path d="m 22253.5,11236.3 c 51.8,0.4 374.8,-0.7 465.5,-77.4 3.3,-2.8 6.4,-4.9 9.3,-6.5 -15.1,111.2 -14.4,224.9 24.2,309.6 -3.3,25.9 3.8,54.1 -9.1,67.2 -28.8,29.3 -118.9,-19.7 -156.2,-49.2 -1.1,-0.9 -2.2,-1.7 -3.2,-2.6 -53,-44.3 -308.6,-174.1 -321.9,-180.8 l -1.4,-5.8 -0.1,-0.3 c 0,0 -0.2,-0.6 -0.3,-1.8 -1.5,-9.6 -4.1,-27.7 -6.8,-52.4" style="fill:#cb8757;fill-opacity:1;fill-rule:nonzero;stroke:none" id="path146" />
      <path d="m 22045.5,11256.8 c 0,0 534.2,-102.3 592.8,231.4 58.5,333.7 166.9,545.2 -171.7,624.6 -338.6,79.4 -427.4,-36.3 -474,-142.9 -46.7,-106.6 -84.6,-677.9 52.9,-713.1" style="fill:#d9935c;fill-opacity:1;fill-rule:nonzero;stroke:none" id="path148" />
      <path d="m 22734.5,11343.2 c 0,0 -27.8,21.2 80.3,185.1 108.2,163.9 159.5,119 160.8,293.6 1.4,174.7 66.4,279.6 -136.4,393.3 -202.7,113.7 -170.4,219.1 -292,244.3 -121.6,25.2 -298.5,-75.1 -402.9,-53.9 -104.4,21.1 -431.3,-404.5 -221.9,-505.2 0,0 97.3,-4.8 165.6,37.3 68.3,42.1 319.1,84.7 348.4,8.5 29.3,-76.2 188.1,-544.1 298.1,-603" style="fill:#233862;fill-opacity:1;fill-rule:nonzero;stroke:none" id="path150" />
      <path d="m 13422.3,3453.5 194,2.6 c 0,0 -291.7,323.9 -381.3,488.6 l -246.3,454.9 -322.5,-79.7 409.3,-580 346.8,-286.4" style="fill:#e49963;fill-opacity:1;fill-rule:nonzero;stroke:none" id="path152" />
      <path d="m 11602.2,12306.5 c -74.4,42.3 -163.5,46.9 -225.9,43.2 16.1,16.6 47.7,22.6 47.7,22.6 -38.7,5.8 -125,-32.6 -125,-32.6 -537.8,207.2 -622.3,-584.6 -611,-768.5 11.2,-184 -180.7,-244 -460.5,-389 -533.8,-276.5 -580.69,-646.8 -580.69,-646.8 4.16,-2.5 8.5,-5.3 13.12,-8.5 26.49,44.9 81.01,129.2 126.98,141.9 -1.73,-4.1 -54.33,-116 -73.95,-180.2 157.48,-119.8 452.14,-385.2 657.44,-573.4 -0.9,36.8 0.5,89 14,116.6 l 25.3,-152.8 c 109.9,-101 185.7,-172 185.7,-172 -13.6,148.6 672.3,933.1 1030.2,1168 87.1,128.3 118,354.8 120.3,372.7 -15,-179.6 -45.7,-280.4 -73.2,-337.1 303,278.8 126.6,1283.9 -70.5,1395.9" style="fill:#163560;fill-opacity:1;fill-rule:nonzero;stroke:none" id="path154" />
      <path d="m 11604.4,10863.4 c 1.8,-0.9 -172.8,-91.5 -304.1,-55.6 -123.5,33.7 -204.2,193.8 -202.5,194.2 52.3,10.4 67.4,82.3 66.2,391.2 l 23.7,-4.7 397.6,-78.7 c 0,0 -9.1,-125.2 -9.3,-243 -0.3,-99 5.7,-192.9 28.4,-203.4" style="fill:#e49963;fill-opacity:1;fill-rule:nonzero;stroke:none" id="path156" />
      <path d="m 11154.7,12176.9 c 0,0 196.2,208.8 442.4,10.7 0,0 -143.3,24.7 -442.4,-10.7" style="fill:#e37970;fill-opacity:1;fill-rule:nonzero;stroke:none" id="path158" />
      <path d="m 11585.3,11309.8 c 0,0 -9.1,-125.2 -9.3,-243 -222.5,6.2 -340.1,209.2 -388.3,321.7 l 397.6,-78.7" style="fill:#d68d5d;fill-opacity:1;fill-rule:nonzero;stroke:none" id="path160" />
      <path d="m 11146.6,11431.8 c 0,0 -116.6,184.2 -144.6,341.8 -19.9,112.4 37.3,529.3 456.3,469.3 0,0 121.7,-12 236,-89.3 91,-61.4 222.2,-194 75.5,-557.8 l -38.2,-122.9 -585,-41.1" style="fill:#163560;fill-opacity:1;fill-rule:nonzero;stroke:none" id="path162" />
      <path d="m 13170,4103.7 -210.7,-6.4 -228.2,-7 c 0,0 -526.9,586.7 -822.5,1527.2 -6.9,21.8 -14.1,43.9 -21.8,66.3 -161.8,471.7 -497.2,1063.8 -673.9,1599.7 -28.1,85.3 -53.4,165.7 -76,241.7 -7.3,24.4 -14.4,48.3 -21.1,71.9 -130.2,452.5 -167.9,749.6 -202.7,1067 l 1128.5,-9 c 0,0 353.7,-2168.8 1128.4,-4551.4" style="fill:#80bdcc;fill-opacity:1;fill-rule:nonzero;stroke:none" id="path164" />
      <path d="m 12010.6,9387.2 c 15,-607.1 89.1,-867.8 89.1,-867.8 0,0 -546.4,-277.6 -1195.8,-73.2 -7.6,2.4 42.1,2508.6 226.3,2577.6 42.3,-52.7 168.6,-104 280.9,-101.5 129.3,2.9 171.3,58.2 164.6,118.7 137.8,-76.7 413.5,-784.6 434.9,-1653.8" style="fill:#e7f1fd;fill-opacity:1;fill-rule:nonzero;stroke:none" id="path166" />
      <path d="m 11659.6,11198.2 c 0,0 -526.4,-8.7 -526.8,319.2 -0.3,327.9 -68.5,547.6 267.6,567 336.1,19.4 401.5,-105.6 428.2,-215 26.8,-109.5 -32.1,-660.5 -169,-671.2" style="fill:#e49963;fill-opacity:1;fill-rule:nonzero;stroke:none" id="path168" />
      <path d="m 11813,12051.7 c -81.3,98.4 -142.7,77 -177.2,47.5 -113.7,170 -473.3,-75.9 -473.3,-75.9 -176.9,-168.5 -204.9,-370 -204.9,-370 0,0 96,-59.3 317.2,-2.4 174.1,44.7 300.4,292.5 346.3,396 31.3,-27.8 97.4,-92.1 117.2,-155.1 26.2,-83.5 38,-255.4 88.1,-249.5 0,0 108.6,261.5 -13.4,409.4" style="fill:#163560;fill-opacity:1;fill-rule:nonzero;stroke:none" id="path170" />
      <path d="m 13777.9,10653.9 c 0,0 74.2,267.5 368.2,229.7 33.8,-10.6 132.4,-49.9 69.3,-155.5 -46.4,-77.8 -66.5,-37.6 -139.6,-142.2 -73.1,-104.6 -152.4,-128.2 -243,-115.7 l -54.9,183.7" style="fill:#e49963;fill-opacity:1;fill-rule:nonzero;stroke:none" id="path172" />
      <path d="m 11265.2,3472.2 c -17.9,98.6 -52,269 -52,269 l 7.9,604.5 h -367.2 l 137.4,-578.6 c 2.8,-26.9 10.4,-131.1 -28.2,-241.7 0,0 -35.3,-160.6 123,-163.6 158.2,-3 197,11.9 179.1,110.4" style="fill:#e49963;fill-opacity:1;fill-rule:nonzero;stroke:none" id="path174" />
      <path d="m 10963.1,3525.4 c 0,0 -31.4,-169.6 -13.5,-250.2 0,0 46.4,0 161.4,0 108.9,0 171.1,0 171.1,0 0,0 1.4,184.2 -27.7,254.3 0,0 -112.2,-168.3 -291.3,-4.1" style="fill:#c45446;fill-opacity:1;fill-rule:nonzero;stroke:none" id="path176" />
      <path d="m 13619.5,3454.4 c -1.1,0.5 -2.1,1 -3.2,1.7 -77.7,-2.4 -155.9,26.1 -226.7,105.8 -215.5,242.9 -336.7,270 -378.9,269.9 -36.4,-75 -76.6,-159.3 -24.9,-254.2 l 77.2,-302.4 h 83.2 l 0.8,285.5 c 54.9,-14.5 108.3,-40.7 132.1,-88.3 58.3,-116.5 98.7,-197.2 152.8,-197.2 30.4,0 374,0 374,0 0,0 -7.2,98.6 -186.4,179.2" style="fill:#c45446;fill-opacity:1;fill-rule:nonzero;stroke:none" id="path178" />
      <path d="m 13777.9,10653.9 c 0,0 -345.6,-193.2 -469,-248.9 -70.3,-31.7 -232.3,-107.6 -346.4,-161.2 -72.6,-34 -158.9,-15.4 -211,45.5 -187.3,218.9 -672.7,693.5 -1173.6,751.7 l 0.7,-1.3 -2.9,1.3 c 0,0 304.6,-752.4 313.5,-904.7 9,-152.3 35.8,-2490.1 35.8,-2490.1 0,0 -17.9,-107.5 188.1,-62.7 206.1,44.8 259.8,89.6 259.8,89.6 0,0 -197.1,1442.1 -143.3,1943.7 10.6,98.9 0.9,210 -21.3,324.8 305.1,-185.6 666.2,-268.1 666.2,-268.1 0,0 269.9,117.8 638.9,388.2 115.8,84.8 319.4,408.5 319.4,408.5 l -54.9,183.7" style="fill:#e37970;fill-opacity:1;fill-rule:nonzero;stroke:none" id="path180" />
      <path d="m 12959.3,4097.3 -228.2,-7 c 0,0 -526.9,586.7 -822.5,1527.2 -6.9,21.8 -14.1,43.9 -21.8,66.3 -161.8,471.7 -497.2,1063.8 -673.9,1599.7 -28.1,85.3 -53.4,165.7 -76,241.7 -7.3,24.4 -14.4,48.3 -21.1,71.9 l 188,142.6 c 0,0 564.2,-913.7 738.8,-1773.4 151.8,-746.9 759.4,-1645.5 916.7,-1869" style="fill:#5f9aa8;fill-opacity:1;fill-rule:nonzero;stroke:none" id="path182" />
      <path d="m 12360.2,9756.4 -11,-34.1 -590.6,192 c 0,0 -7.8,9.1 -3.8,21 4.5,13.2 14.8,13.1 14.8,13.1 l 590.6,-192" style="fill:#163560;fill-opacity:1;fill-rule:nonzero;stroke:none" id="path184" />
      <path d="m 11323.4,5886.2 c 3.2,-418.1 -18,-1379.4 -72.4,-1777.4 h -202.1 c -111.7,0 -167.4,1.6 -167.4,1.6 -136.6,692 -233.8,1264.5 -304.5,1757.9 -58.1,404.8 -109.7,751.9 -149.3,1050.7 -40,300.7 -67.8,552.5 -77.7,765.2 -1.5,33.5 -2.7,66.1 -3.3,97.7 -0.6,31.8 -0.8,62.7 -0.6,92.8 l 1102.7,107.4 c -13.9,-732.6 -127.2,-1852.9 -125.4,-2095.9" style="fill:#80bdcc;fill-opacity:1;fill-rule:nonzero;stroke:none" id="path186" />
      <path d="m 11048.9,4108.8 c -111.7,0 -167.4,1.6 -167.4,1.6 -136.6,692 -233.8,1264.5 -304.5,1757.9 -58.1,404.8 -109.7,751.9 -149.3,1050.7 -40,300.7 -67.8,552.5 -77.7,765.2 l 404.6,-238 c 0,0 -258.2,-91.1 -159.7,-780.8 98.5,-689.7 316.9,-2458.9 454,-2556.6" style="fill:#5f9aa8;fill-opacity:1;fill-rule:nonzero;stroke:none" id="path188" />
      <path d="m 11101,7691 c 0,0 -77.7,-280.6 -346.4,-244.8 -268.7,35.9 -650.8,197.1 -650.8,197.1 0,0 114.8,362.8 257.6,839.5 172.9,577.1 386.9,1321.1 487.7,1790.4 28.3,131.5 47.7,241.3 54.8,319.9 l 226.3,430.7 c 0,0 329.1,-744.2 347,-932.3 C 11495.1,9903.4 11101,7691 11101,7691" style="fill:#e37970;fill-opacity:1;fill-rule:nonzero;stroke:none" id="path190" />
      <path d="m 11089.1,9697.4 c -12,-304.5 -83.7,-895.7 -722.6,-1212.2 -1.7,-0.8 -3.4,-1.7 -5.1,-2.4 172.9,577.1 386.9,1321.1 487.7,1790.4 117.4,-175.4 246.5,-408.1 240,-575.8" style="fill:#c45446;fill-opacity:1;fill-rule:nonzero;stroke:none" id="path192" />
      <path d="m 12245.2,9864 c -0.3,-36.5 -105.6,-291 -291.2,-443 -35.9,-29.5 -64.6,-43.8 -87.6,-47.7 -302.1,-103.4 -564.2,-157.1 -777.1,-183.2 v 337 c 262.9,16.8 586.8,34.4 720.2,41.6 21.9,34.9 47.6,84.4 56.3,134.4 15.9,92.7 65.6,161.4 194.9,178.5 129.3,17 184.8,18.8 184.5,-17.6" style="fill:#e49963;fill-opacity:1;fill-rule:nonzero;stroke:none" id="path194" />
      <path d="m 14031.1,10970.1 597.3,-388.5 c 7.5,-4.9 13,-21.9 10.4,-30.5 l -287.4,-972.6 c -4,-13.6 -17.9,-15.9 -29.2,-7.4 l -579.4,433.8 c -6.8,5.1 -11.8,10.6 -9.5,18.7 l 263.9,931 c 3.8,13.2 22.4,23 33.9,15.5" style="fill:#163560;fill-opacity:1;fill-rule:nonzero;stroke:none" id="path196" />
      <path d="m 14010,10984.1 602.5,-392.3 c 7.5,-4.9 11,-14.2 8.4,-22.8 l -287.4,-972.6 c -4,-13.6 -20.4,-19.1 -31.7,-10.6 l -579,433.9 c -6.7,5.1 -9.7,13.7 -7.4,21.9 l 263.9,930.9 c 3.8,13.2 19.2,19 30.7,11.6" style="fill:#1c468a;fill-opacity:1;fill-rule:nonzero;stroke:none" id="path198" />
      <path d="m 14006.4,10941.3 584.5,-372.8 -265.4,-856.2 -550.8,398.6 231.7,830.4" style="fill:#ffffff;fill-opacity:1;fill-rule:nonzero;stroke:none" id="path200" />
      <path d="m 13961.3,9896 c 0,13.1 10.7,23.8 23.9,23.8 13.2,0 23.9,-10.7 23.9,-23.8 0,-13.2 -10.7,-23.9 -23.9,-23.9 -13.2,0 -23.9,10.7 -23.9,23.9" style="fill:#163560;fill-opacity:1;fill-rule:nonzero;stroke:none" id="path202" />
      <path d="m 14204.4,9845.6 -281.9,197 194.4,787 281.8,-197 -194.3,-787" style="fill:#ffffff;fill-opacity:1;fill-rule:nonzero;stroke:none" id="path204" />
      <path d="m 14262.1,10303.3 c -0.5,0 -1,0.1 -1.5,0.5 l -186.7,130.5 c -2.3,1.6 -3.3,6.8 -2.1,11.6 l 0.8,3.3 c 1,3.9 3,6.3 5,6.3 0.5,0 0.9,-0.1 1.4,-0.5 l 186.7,-130.5 c 2.4,-1.6 3.3,-6.8 2.1,-11.7 l -0.8,-3.2 c -1,-3.9 -3,-6.3 -4.9,-6.3" style="fill:#b4cef6;fill-opacity:1;fill-rule:nonzero;stroke:none" id="path206" />
      <path d="m 14296.2,10441.7 c -0.5,0 -0.9,0.1 -1.4,0.5 l -186.7,130.5 c -2.4,1.6 -3.3,6.8 -2.1,11.6 l 0.8,3.3 c 1,3.8 3,6.3 4.9,6.3 0.5,0 1,-0.2 1.5,-0.5 l 186.7,-130.5 c 2.3,-1.6 3.3,-6.9 2.1,-11.7 l -0.8,-3.3 c -1,-3.8 -3,-6.2 -5,-6.2" style="fill:#b4cef6;fill-opacity:1;fill-rule:nonzero;stroke:none" id="path208" />
      <path d="m 14284.4,10393.6 c -0.5,0 -1,0.2 -1.5,0.5 l -186.7,130.5 c -2.3,1.6 -3.3,6.9 -2.1,11.7 l 0.8,3.2 c 1,3.9 3,6.3 5,6.3 0.5,0 0.9,-0.1 1.4,-0.5 l 186.7,-130.5 c 2.4,-1.6 3.3,-6.8 2.1,-11.6 l -0.8,-3.3 c -1,-3.9 -3,-6.3 -4.9,-6.3" style="fill:#b4cef6;fill-opacity:1;fill-rule:nonzero;stroke:none" id="path210" />
      <path d="m 14273.2,10348.4 c -0.5,0 -1,0.2 -1.4,0.5 l -186.8,130.5 c -2.3,1.7 -3.2,6.9 -2,11.7 l 0.8,3.3 c 0.9,3.8 3,6.3 4.9,6.3 0.5,0 1,-0.2 1.5,-0.5 l 186.7,-130.5 c 2.3,-1.6 3.2,-6.9 2.1,-11.7 l -0.9,-3.3 c -0.9,-3.8 -2.9,-6.3 -4.9,-6.3" style="fill:#b4cef6;fill-opacity:1;fill-rule:nonzero;stroke:none" id="path212" />
      <path d="m 14239.3,10211.3 c -0.5,0 -0.9,0.1 -1.4,0.4 l -186.7,130.5 c -2.4,1.7 -3.3,6.9 -2.1,11.7 l 0.8,3.3 c 1,3.8 3,6.3 4.9,6.3 0.5,0 1,-0.2 1.5,-0.5 l 186.7,-130.5 c 2.3,-1.6 3.3,-6.9 2.1,-11.7 l -0.8,-3.3 c -1,-3.8 -3,-6.2 -5,-6.2" style="fill:#b4cef6;fill-opacity:1;fill-rule:nonzero;stroke:none" id="path214" />
      <path d="m 14250.5,10256.4 c -0.5,0 -1,0.2 -1.5,0.5 l -186.7,130.5 c -2.3,1.6 -3.2,6.9 -2,11.7 l 0.8,3.3 c 0.9,3.8 2.9,6.2 4.9,6.2 0.5,0 1,-0.1 1.4,-0.4 l 186.8,-130.5 c 2.3,-1.7 3.2,-6.9 2,-11.7 l -0.8,-3.3 c -0.9,-3.8 -3,-6.3 -4.9,-6.3" style="fill:#b4cef6;fill-opacity:1;fill-rule:nonzero;stroke:none" id="path216" />
      <path d="m 14203.8,10069.8 c -0.6,0 -1.2,0.2 -1.7,0.6 l -45.4,31.7 c -2.7,1.9 -3.8,8.2 -2.4,13.8 1.1,4.6 3.5,7.5 5.8,7.5 0.6,0 1.2,-0.2 1.7,-0.6 l 45.4,-31.7 c 2.7,-1.9 3.8,-8.1 2.4,-13.8 -1.1,-4.6 -3.5,-7.5 -5.8,-7.5" style="fill:#b4cef6;fill-opacity:1;fill-rule:nonzero;stroke:none" id="path218" />
      <path d="m 14064.8,10166.9 c -0.6,0 -1.1,0.2 -1.7,0.6 l -45.3,31.7 c -2.8,1.9 -3.9,8.2 -2.5,13.9 1.2,4.5 3.6,7.4 5.9,7.4 0.6,0 1.1,-0.2 1.7,-0.6 l 45.3,-31.7 c 2.8,-1.9 3.9,-8.1 2.5,-13.8 -1.2,-4.6 -3.6,-7.5 -5.9,-7.5" style="fill:#b4cef6;fill-opacity:1;fill-rule:nonzero;stroke:none" id="path220" />
      <path d="m 14136.4,10062.3 c -2.8,0 -5.7,-3.7 -7.1,-9.2 l -9.8,-39.7 c -1.7,-7 -0.3,-14.9 3,-17.2 l 66.1,-46.3 2,-0.6 c 2.8,0 5.7,3.8 7,9.2 l 9.8,39.7 c 1.8,7 0.4,14.9 -2.9,17.3 l -66.1,46.2 z m 54.2,-113.8 -2.4,0.8 -66.2,46.2 c -3.6,2.5 -5.1,10.7 -3.3,18.1 l 9.8,39.7 c 1.5,5.9 4.7,9.9 7.9,9.9 l 2.4,-0.8 66.2,-46.3 c 3.6,-2.5 5.1,-10.7 3.2,-18.1 l -9.8,-39.7 c -1.4,-5.9 -4.6,-9.8 -7.8,-9.8" style="fill:#476ba7;fill-opacity:1;fill-rule:nonzero;stroke:none" id="path222" />
      <path d="m 13997.2,10159.6 c -2.8,0 -5.7,-3.8 -7,-9.2 l -9.8,-39.7 c -1.8,-7 -0.4,-14.9 2.9,-17.3 l 66.1,-46.2 2,-0.6 c 2.8,0 5.7,3.7 7.1,9.2 l 9.8,39.7 c 1.7,7 0.3,14.9 -3,17.2 l -66.1,46.2 z m 54.2,-113.9 -2.4,0.8 -66.2,46.3 c -3.6,2.5 -5.1,10.6 -3.2,18.1 l 9.8,39.7 c 1.4,5.9 4.6,9.8 7.8,9.8 l 2.4,-0.8 66.2,-46.2 c 3.6,-2.5 5.1,-10.7 3.3,-18.1 l -9.8,-39.7 c -1.5,-5.9 -4.7,-9.9 -7.9,-9.9" style="fill:#476ba7;fill-opacity:1;fill-rule:nonzero;stroke:none" id="path224" />
      <path d="m 14137.5,10720.9 c 3.5,14.2 11.5,22.2 18.9,17.1 4.6,-3.2 6.2,-8.6 7.3,-14.7 l -5,-5.4 c -1,4.8 -2.1,8 -4.8,9.9 -4.1,2.9 -8.7,-2.1 -10.9,-10.8 -2.1,-8.6 -1,-17.7 3.1,-20.6 2.8,-1.9 5,-0.8 7.8,1.4 l 1.5,-9.9 c -3.8,-3.7 -7.3,-4.8 -12,-1.5 -7.1,4.9 -9.5,20 -5.9,34.5" style="fill:#476ba7;fill-opacity:1;fill-rule:nonzero;stroke:none" id="path226" />
      <path d="m 14182.3,10689.6 c 2.1,8.5 0.8,17.8 -3.5,20.8 -4.2,3 -8.9,-2 -11.1,-10.7 -2.1,-8.6 -0.8,-17.8 3.4,-20.8 4.3,-3 9,1.9 11.2,10.7 z m -20.1,14 c 3.5,14.2 11.8,22.1 19.2,16.9 7.5,-5.2 9.9,-20.4 6.4,-34.8 -3.5,-14.2 -11.8,-22.1 -19.2,-16.9 -7.5,5.2 -10,20.4 -6.4,34.8" style="fill:#476ba7;fill-opacity:1;fill-rule:nonzero;stroke:none" id="path228" />
      <path d="m 14198.7,10707.4 4.9,-3.4 3.7,-38.7 7.6,30.8 5.2,-3.7 -12.3,-50 -4.6,3.2 -3.8,39.9 -7.8,-31.8 -5.3,3.7 12.4,50" style="fill:#476ba7;fill-opacity:1;fill-rule:nonzero;stroke:none" id="path230" />
      <path d="m 14229,10674.3 -7.3,5.2 2.5,10.1 19.9,-13.9 -2.5,-10.2 -7.3,5.1 -9.8,-39.9 -5.3,3.7 9.8,39.9" style="fill:#476ba7;fill-opacity:1;fill-rule:nonzero;stroke:none" id="path232" />
      <path d="m 14252.9,10641.1 c 2.6,-1.8 4.7,0 5.8,4.3 1.2,4.8 0.2,8.3 -2.4,10.1 l -5.2,3.7 -3.6,-14.4 z m -4.7,31.7 11,-7.7 c 3.1,-2.1 5,-5.6 5.8,-10 0.6,-3.7 0.4,-8.1 -0.8,-13 -2,-8.1 -5.3,-11.7 -9,-11.9 l 1.5,-22 -6.2,4.3 -1.3,19.7 -4.1,2.9 -3.9,-16 -5.4,3.7 12.4,50" style="fill:#476ba7;fill-opacity:1;fill-rule:nonzero;stroke:none" id="path234" />
      <path d="m 14279.8,10616.6 0.8,18.5 -7.3,-14 z m 1.7,33.4 4.8,-3.4 -2.1,-57.6 -5.5,3.8 0.5,12.8 -10.1,7.1 -5,-9.7 -5.4,3.8 22.8,43.2" style="fill:#476ba7;fill-opacity:1;fill-rule:nonzero;stroke:none" id="path236" />
      <path d="m 14291.5,10613.2 c 3.5,14.2 11.6,22.3 19,17.1 4.5,-3.2 6.2,-8.5 7.3,-14.6 l -5.1,-5.4 c -1,4.8 -2,8 -4.8,9.9 -4,2.8 -8.7,-2.1 -10.9,-10.8 -2.1,-8.6 -1,-17.8 3.2,-20.7 2.7,-1.9 5,-0.8 7.7,1.5 l 1.6,-9.9 c -3.9,-3.8 -7.4,-4.9 -12,-1.6 -7.1,5 -9.6,20 -6,34.5" style="fill:#476ba7;fill-opacity:1;fill-rule:nonzero;stroke:none" id="path238" />
      <path d="m 14327.3,10605.7 -7.4,5.1 2.5,10.1 20,-13.9 -2.5,-10.2 -7.3,5.2 -9.9,-39.9 -5.3,3.7 9.9,39.9" style="fill:#476ba7;fill-opacity:1;fill-rule:nonzero;stroke:none" id="path240" />
      <path d="m 14160,10010.9 c -0.2,-1.2 -0.5,-2.4 -0.3,-3.5 l -1.1,-0.8 c 0,1.4 0.2,2.8 0.4,4.2 0.6,0.9 1.1,1.9 1.6,2.9 -0.2,-0.9 -0.5,-1.9 -0.6,-2.8 z m 3.3,3.6 -0.4,-1.6 -0.4,-1.1 c 0.2,1 0.5,1.9 0.8,2.7 z m 48.9,2.9 c -10.8,-2.5 -21.6,-6 -32.4,-10.5 0.6,2.3 1.1,4.6 1.6,7 0.4,1.9 -0.6,4.1 -1.6,2.3 l -1.3,-2.1 c 0.4,1.7 -0.4,3.3 -1.3,2.6 l -0.2,-0.2 c 0.6,2.2 -1.1,3.7 -1.9,1.8 l -1.2,-3 c -0.9,-1.6 -2.2,-2.5 -3.3,-2.5 -0.2,1.4 -0.2,2.7 -0.2,4.2 0.1,1.1 -0.2,1.9 -0.6,2.1 0.1,1.3 -0.4,2.4 -1.2,2.2 -0.9,-0.3 -1.8,-1.2 -2.5,-2.3 -0.4,2.5 -2.1,2 -3.1,0.6 l 0.1,0.3 c 0.6,1.7 0,4.5 -1.2,3.2 -2,-2.3 -3.7,-5.9 -4.7,-9.9 -0.7,-1.1 -1.4,-2.2 -2.2,-3 l -2.5,-2.1 c -0.3,0.5 0,2.4 0.3,3.7 l 0.2,0.4 c 1.6,3.2 9.3,18.2 4.9,21.1 l -1.3,-0.9 c -2,-4.5 -3.7,-9.6 -5,-15 -0.2,-1 -0.5,-2.3 -0.8,-3.7 l -0.5,-0.9 c -2.1,-4 -5.1,-9.9 -8.1,-10.5 0.4,8.3 3,16.7 5,24.3 0.9,3.3 1.8,6.6 2.7,9.8 l 0.7,0.3 c 3.5,3.7 5.4,11.6 4.5,18.3 -0.3,2 -1.6,1.3 -2.1,-0.2 -2.9,-9.3 -5.7,-18.8 -8.2,-28.4 -2.3,-8.5 -4.8,-17.5 -4.9,-26.7 0,-1 0.5,-1.7 0.9,-1.8 3.3,-0.6 6.6,4 9.4,9 0.1,-1 0.3,-1.8 0.7,-2.4 1.4,-2.1 3.7,0.3 5.4,2.5 0,-1.2 0,-2.3 0,-3.4 0.1,-1.3 0.6,-1.9 1.2,-1.7 1.5,0.3 2.9,1.4 4.2,3.1 1.5,0 3,1.9 4.3,4.3 0.8,0.9 1.5,1.9 2.2,3 0.1,-0.9 0.2,-1.8 0.3,-2.5 0.5,-1.9 1.9,-1.5 2.9,-1.2 0.9,0.3 1.8,0.9 2.6,1.8 l 1.6,-0.1 0.3,-1.1 c 0.5,-1.2 1.1,-1.3 1.9,-0.9 l -0.7,-2.5 c -1.6,-0.6 -3.2,-1.3 -4.7,-2 -1.1,-0.5 -1.6,-3.7 -0.5,-4.3 1.4,-0.6 2.7,-1.3 4,-2 0.6,-0.3 1.2,0.2 1.5,1.3 0.4,1.1 0.7,2.2 1,3.2 11.3,4.8 22.6,8.5 33.9,11.1 1.5,0.4 1.3,4.7 -0.1,4.3" style="fill:#365da2;fill-opacity:1;fill-rule:nonzero;stroke:none" id="path242" />
      <path d="m 14004.8,10104.3 c 0,-1.2 -0.5,-2.3 -1,-3 l -0.5,-0.7 -0.3,-0.2 h -0.1 l -0.4,0.8 0.7,2 c 0.3,1 1.5,3.5 1.6,1.1 z m 24.8,55.7 c -4.8,-12.7 -8,-27 -12.2,-40.4 -2,-6.5 -4.2,-12.9 -7,-18.5 -1.9,-3.9 -6,-12.3 -8.6,-8.1 -0.6,1.1 -0.7,2.6 -0.3,4.3 l 0.3,1.1 1.4,-0.6 c 1,0.5 1.9,2.2 2.5,3.8 0.6,1.8 0.7,4 0,5.5 -0.5,1.2 -1.6,1.2 -2.4,0.1 -0.8,-1.2 -1.3,-3.2 -1.9,-4.9 -0.6,-2.1 -1.4,-4.4 -1.5,-6.7 -0.2,-3.6 1.3,-6 3,-6.3 2,-0.4 4.1,2.3 5.7,5 1.9,3.1 3.6,6.7 5.2,10.5 3.1,7.6 5.6,16.1 8,24.7 2.7,9.8 5.4,19.8 8.8,29 0.6,1.5 -0.4,3 -1,1.5" style="fill:#365da2;fill-opacity:1;fill-rule:nonzero;stroke:none" id="path244" />
      <path d="m 14046.1,10098.5 0.5,0.3 -0.7,-1.1 z m -2.9,2 c -0.6,-1 -1.2,-1.7 -1.9,-2.3 0.5,1.4 1.4,2.7 1.9,2.3 z m -11.3,1.9 c -0.2,-1.4 -1.2,-2.8 -1.7,-3.5 l -0.3,-0.3 c 0.6,1.3 1.3,2.6 2,3.8 z m -7.5,-2.7 c 0.8,2.4 1.9,4.3 3.1,5.6 0.4,-1.5 0.7,-3.4 -0.1,-4.8 l -1.6,-1.8 -1.7,-1.7 -0.5,-0.4 c -0.1,0.9 0.5,2.4 0.8,3.1 z m 25.2,-3.9 -2.4,-0.6 -0.6,0.3 c 0.6,0.9 1.2,2 1.4,3.3 0.3,2.1 -0.7,3.4 -1.7,2.8 -0.9,-0.4 -1.5,-2.1 -1.7,-3.8 v -1.6 c -0.9,-0.8 -2.4,-1.6 -3.2,-0.7 1.2,0.9 2.3,2.4 3.2,4.3 l 0.2,1.3 c -0.4,1.7 -1.3,2.4 -2.3,2 -1,-0.5 -1.8,-2.2 -2.3,-4 l -0.4,-1.8 c -1.1,-0.4 -2.1,-0.2 -3,0.5 v 0 l 1,1.4 v 2.3 c -0.9,0.9 -1.8,-0.4 -2.2,-2.1 -1.6,-1.9 -3.3,-3.4 -5.1,-4.4 l -1.3,-0.1 c 0.8,0.7 1.5,1.5 2.1,2.5 1.4,1.9 2.8,5.9 1.7,8.5 l -1,0.1 c -0.7,-1.4 -1.4,-2.7 -2.1,-4.1 -0.6,-1.1 -1.3,-2.3 -1.7,-3.7 l -0.3,-1.5 -2,-0.9 -0.2,-0.1 1.2,1.2 c 1.1,1.1 2.1,2.6 2.3,5 0.3,2.3 -0.3,4.3 -0.7,6.1 l -0.8,0.3 c -2.1,-1.9 -3.9,-5.1 -5,-9.1 -0.4,-1.3 -0.6,-2.7 -0.4,-3.9 -1.9,-1.7 -3.7,-3.4 -5.6,-4.9 l -0.9,-0.5 0.1,1.4 c 0.1,1.1 0.2,2.1 0.3,3.2 0.3,2.3 0.8,4.5 1.3,6.6 0.5,1.9 1.1,3.7 1.8,5.3 l 0.7,-0.1 c 1.4,1.4 2.3,4 2.4,7 0.1,1 -0.7,1.4 -1.1,0.7 -3.7,-5.9 -6.3,-14.6 -6.9,-23.4 -0.1,-2 0.2,-3.8 1.4,-3.5 l 1.6,1.1 2,1.7 c 1.3,1.1 2.6,2.3 3.9,3.5 l 2,-0.4 2.5,0.9 c 0.2,-1 0.5,-1.8 1.1,-2.1 l 2.2,0.9 2.3,1.6 2,2 0.8,-1.1 1.7,-0.8 2,0.2 0.2,-0.7 c 0.6,-1.2 1.6,-1.5 2.5,-1.3 l 2.6,1.4 0.6,-0.9 c 1.2,-1.2 2.6,-0.6 3.9,0 l -0.1,2.7" style="fill:#365da2;fill-opacity:1;fill-rule:nonzero;stroke:none" id="path246" />
      <path d="m 12402.7,9723.5 -42.5,32.9 -11,-34.1 z" style="fill:#163560;fill-opacity:1;fill-rule:nonzero;stroke:none" id="path248" />
      <path d="m 11130.2,11023.8 c 0,0 -548.7,-36.6 -680.1,-329.2 -131.4,-292.6 -173.2,-1265.9 -6,-1552.5 0,0 230.2,-65.6 637.4,10.5 5,1 10,1.9 15,2.9 0,0 129.9,318 13.4,380.7 0,0 -343.3,-17.9 -307.5,95.5 35.8,113.5 327.8,1392.1 327.8,1392.1" style="fill:#e37970;fill-opacity:1;fill-rule:nonzero;stroke:none" id="path250" />
      <path d="M 27573.6,3238.6 H 2426.38 c -16.4,0 -29.82,13.4 -29.82,29.8 0,16.5 13.42,29.9 29.82,29.9 H 27573.6 c 16.4,0 29.8,-13.4 29.8,-29.9 0,-16.4 -13.4,-29.8 -29.8,-29.8" style="fill:#ebf2f9;fill-opacity:1;fill-rule:nonzero;stroke:none" id="path252" />
    </g>
  </g>
</svg>
