<?xml version="1.0" ?>
<svg viewBox="0 0 64 64"
  xmlns="http://www.w3.org/2000/svg">
  <title/>
  <g id="wipe-floor">
    <path d="M43,36.414c.184.129.365.263.543.4h0a10.954,10.954,0,0,0,8.11,2.179h0A3.3,3.3,0,0,1,55.2,43.342l-1.36,3.917-50-.619L3.9,42.1a7.306,7.306,0,0,1,2.749-5.619l1.3-1.04" style="fill:none;stroke:#000;stroke-linecap:round;stroke-linejoin:round;stroke-width:2px"/>
    <path d="M18.151,32.589A23.11,23.11,0,0,0,12,41" style="fill:none;stroke:#000;stroke-linecap:round;stroke-linejoin:round;stroke-width:2px"/>
    <line style="fill:#000;stroke:#000;stroke-linecap:round;stroke-linejoin:round;stroke-width:2px" x1="12.766" x2="38.764" y1="52.751" y2="53.073"/>
    <line style="fill:#000;stroke:#000;stroke-linecap:round;stroke-linejoin:round;stroke-width:2px" x1="45.764" x2="49.763" y1="53.159" y2="53.209"/>
    <line style="fill:#000;stroke:#000;stroke-linecap:round;stroke-linejoin:round;stroke-width:2px" x1="5.692" x2="22.691" y1="58.664" y2="58.874"/>
    <line style="fill:#000;stroke:#000;stroke-linecap:round;stroke-linejoin:round;stroke-width:2px" x1="28.691" x2="33.69" y1="58.949" y2="59.011"/>
    <line style="fill:#000;stroke:#000;stroke-linecap:round;stroke-linejoin:round;stroke-width:2px" x1="40.69" x2="58.688" y1="59.097" y2="59.32"/>
    <polygon points="18 9 14 9 14 5 9 5 9 9 5 9 5 14 9 14 9 18 14 18 14 14 18 14 18 9" style="fill:none;stroke:#000;stroke-linecap:round;stroke-linejoin:round;stroke-width:2px"/>
    <path d="M57.082,32.667A1.069,1.069,0,1,1,56.013,31.6,1.07,1.07,0,0,1,57.082,32.667Z"/>
    <line style="fill:none;stroke:#000;stroke-linecap:round;stroke-linejoin:round;stroke-width:2px" x1="41" x2="41" y1="4" y2="6"/>
    <line style="fill:none;stroke:#000;stroke-linecap:round;stroke-linejoin:round;stroke-width:2px" x1="41" x2="41" y1="10" y2="12"/>
    <line style="fill:none;stroke:#000;stroke-linecap:round;stroke-linejoin:round;stroke-width:2px" x1="37" x2="39" y1="8" y2="8"/>
    <line style="fill:none;stroke:#000;stroke-linecap:round;stroke-linejoin:round;stroke-width:2px" x1="43" x2="45" y1="8" y2="8"/>
    <path d="M33.47,31.019l-9.388-1.457a2.5,2.5,0,0,0-2.853,2.087h0A2.5,2.5,0,0,0,23.316,34.5L38.9,36.921a6.038,6.038,0,0,0,5.849-2.471h0c.672-.945,17.437-15.09,17.437-15.09L53.308,9.25,46.136,22.865,31.723,20.628a16.843,16.843,0,0,0-12.11,2.754L8.476,31.02a2.66,2.66,0,0,0-.4,4.05h0a2.659,2.659,0,0,0,2.97.578l9.905-4.338" style="fill:none;stroke:#000;stroke-linecap:round;stroke-linejoin:round;stroke-width:2px"/>
    <path d="M41,46.529S34,40,25,39" style="fill:none;stroke:#000;stroke-linecap:round;stroke-linejoin:round;stroke-width:2px"/>
    <path d="M43.543,36.814A11.844,11.844,0,0,1,45,43" style="fill:none;stroke:#000;stroke-linecap:round;stroke-linejoin:round;stroke-width:2px"/>
  </g>
</svg>